<svg width="95" height="35" viewBox="0 0 95 35" fill="none" xmlns="http://www.w3.org/2000/svg">
<rect width="95" height="35" rx="15" fill="#ECE4C0"/>
<path d="M26.9933 9.55957C28.1179 9.55957 28.4713 10.3405 28.7678 11.1203C28.8924 11.4514 31.8149 19.1998 31.9027 19.4324C31.9261 19.4973 31.9103 19.6038 31.8073 19.6423C31.7036 19.6803 30.1851 20.2519 30.1011 20.2825C30.017 20.3138 29.9228 20.2685 29.8924 20.1871C29.8608 20.1069 29.2306 18.4177 29.1598 18.2291H24.8281C24.7598 18.4177 24.122 20.1106 24.0935 20.1871C24.0645 20.2648 23.9741 20.3174 23.8843 20.2825C23.7945 20.2483 22.2704 19.6766 22.1793 19.6423C22.0921 19.6093 22.0523 19.5132 22.0826 19.4324C22.1901 19.1423 25.0683 11.5181 25.215 11.1203C25.5008 10.3522 25.8661 9.55957 26.9933 9.55957ZM21.8512 23.4242C21.7602 23.4242 21.6875 23.4976 21.6875 23.587V25.398C21.6875 25.4873 21.7602 25.5596 21.8512 25.5596H32.131C32.2239 25.5596 32.2966 25.4873 32.2966 25.398V23.587C32.2966 23.4976 32.2239 23.4242 32.131 23.4242H21.8512ZM26.9832 12.0898L25.5191 16.3465H28.4713L27.0022 12.0898H26.9832ZM48.953 19.0695C48.7375 19.1399 48.5952 19.157 48.4258 19.157C48.0756 19.157 47.8815 19.023 47.8815 18.6753C47.8815 18.313 48.128 18.1918 48.6123 18.1918C48.7305 18.1918 48.8468 18.2083 48.9012 18.2267V18.4862C48.9012 18.7659 48.917 18.9495 48.953 19.0695ZM50.1978 19.4844C49.9392 19.1044 49.8716 18.8804 49.8716 18.4011V17.428C49.8716 16.9041 49.8084 16.715 49.6655 16.524C49.4663 16.2535 49.1345 16.136 48.5244 16.136C48.0926 16.136 47.6735 16.1813 47.2677 16.2816L47.4143 16.9732C47.6887 16.9359 47.9763 16.9041 48.1792 16.9041C48.8272 16.9041 48.9012 16.9947 48.9012 17.4653V17.641C48.757 17.6036 48.5952 17.5767 48.4075 17.5767C47.432 17.5767 46.9168 18.0388 46.9168 18.8039C46.9168 19.5212 47.4674 19.9123 48.1382 19.9123C48.3885 19.9123 48.6502 19.8676 48.8576 19.7856C48.9827 19.7329 49.0371 19.7017 49.1989 19.6001C49.2963 19.7372 49.4916 19.8774 49.5713 19.9037L50.1978 19.4844ZM59.8466 19.0695C59.6298 19.1399 59.49 19.157 59.3194 19.157C58.9679 19.157 58.7713 19.023 58.7713 18.6753C58.7713 18.313 59.021 18.1918 59.5065 18.1918C59.6247 18.1918 59.7416 18.2083 59.7948 18.2267V18.4862C59.7948 18.7659 59.8099 18.9495 59.8466 19.0695ZM61.0926 19.4844C60.8321 19.1044 60.7658 18.8804 60.7658 18.4011V17.428C60.7658 16.9041 60.7013 16.715 60.5572 16.524C60.3605 16.2535 60.028 16.136 59.4161 16.136C58.9849 16.136 58.5633 16.1813 58.1574 16.2816L58.3022 16.9732C58.5772 16.9359 58.8655 16.9041 59.0741 16.9041C59.7183 16.9041 59.7948 16.9947 59.7948 17.4653V17.641C59.6506 17.6036 59.49 17.5767 59.2985 17.5767C58.3218 17.5767 57.8047 18.0388 57.8047 18.8039C57.8047 19.5212 58.3566 19.9123 59.0305 19.9123C59.284 19.9123 59.5432 19.8676 59.7486 19.7856C59.8757 19.7329 59.9281 19.7017 60.09 19.6001C60.1886 19.7372 60.3839 19.8774 60.4642 19.9037L61.0926 19.4844ZM68.6875 19.8309C68.6875 19.8309 68.1527 18.7273 68.0218 18.4764C67.8745 18.1936 67.738 17.9984 67.4371 17.928V17.9121C67.6387 17.8748 67.7993 17.7566 67.975 17.3955C68.1413 17.0436 68.1906 16.9677 68.2886 16.8839C68.3847 16.8006 68.5162 16.8306 68.5162 16.8306L68.5655 16.18C68.4258 16.1617 68.2709 16.1611 68.111 16.1696C67.8454 16.1849 67.7083 16.259 67.5774 16.3863C67.475 16.4836 67.4055 16.6293 67.3195 16.7964C67.2285 16.9787 67.1564 17.1256 67.0616 17.3111C66.9674 17.5014 66.9231 17.5871 66.6696 17.5871H66.5046V14.705H65.5279V19.8309H66.5046V18.3571L66.638 18.3546C66.9181 18.3546 66.9674 18.4225 67.1153 18.7084C67.2885 19.0493 67.6204 19.8309 67.6204 19.8309H68.6875ZM41.1729 19.8309H42.3001L40.5951 14.7907C40.4156 14.7325 40.1937 14.6964 39.9566 14.6964C39.698 14.6964 39.6057 14.7295 39.4035 14.7907L37.5992 19.8309H38.6809C38.6809 19.8309 38.8269 19.389 38.9989 18.8412H40.8676C41.0345 19.3884 41.1729 19.8309 41.1729 19.8309ZM39.2732 17.996C39.2732 17.996 39.5855 16.9843 39.6342 16.827C39.7581 16.4193 39.9465 15.7718 39.9465 15.7718H39.9775C39.9775 15.7718 40.1519 16.4426 40.2657 16.8196C40.3087 16.9696 40.6071 17.996 40.6071 17.996H39.2732ZM51.8616 17.4194C51.5171 17.4194 51.2371 17.6918 51.2371 18.0253C51.2371 18.3613 51.5171 18.6319 51.8616 18.6319C52.2068 18.6319 52.4856 18.3613 52.4856 18.0253C52.4856 17.6918 52.2068 17.4194 51.8616 17.4194ZM43.6384 14.705H42.6591V19.8302H43.6384V14.705ZM63.0934 16.9506C63.6346 16.9616 63.7016 17.0699 63.7016 17.5094V19.8309H64.672V17.428C64.672 16.9041 64.6087 16.715 64.4646 16.524C64.2655 16.2535 63.8741 16.136 63.2123 16.136C62.5573 16.136 62.1401 16.2033 61.6034 16.3581V19.8309H62.5839V16.9947C62.8412 16.9585 62.8867 16.9506 63.0934 16.9506ZM46.0602 14.6138C45.4483 14.6138 45.1151 14.7313 44.9191 15.0012C44.775 15.1928 44.7112 15.3862 44.7112 15.9113V16.3581H44.225V17.1244H44.7112V19.8309H45.6822L45.6796 17.1244H46.6475V16.3581H45.6796L45.6822 15.9475C45.6822 15.4774 45.7561 15.3862 46.4047 15.3862C46.4749 15.3862 46.5539 15.3899 46.638 15.396L46.791 14.6597C46.5514 14.6291 46.3061 14.6138 46.0602 14.6138ZM53.8511 14.6616C54.1842 14.6426 54.9289 14.6156 55.3961 14.6156C55.4815 14.6156 55.57 14.6163 55.6585 14.6205C56.577 14.6205 57.1036 15.2681 57.1036 16.0282C57.1036 16.5454 56.859 16.8888 56.2856 17.0932C56.9601 17.2376 57.3135 17.7475 57.3135 18.3711C57.3135 18.8289 57.1801 19.1925 56.9354 19.4404C56.6181 19.7427 56.1376 19.9123 55.4979 19.9123C54.9289 19.9123 54.2146 19.8951 53.8511 19.8743V14.6616ZM55.3961 15.5013C55.2343 15.5013 55.0339 15.5043 54.8354 15.5111V16.7419H55.3967C55.6193 16.7419 55.7982 16.6819 55.9202 16.5662C56.0365 16.4573 56.0972 16.303 56.0972 16.12C56.0972 15.7265 55.8772 15.5037 55.4682 15.5013H55.3961ZM55.4163 19.0285H55.4587C55.9689 19.0285 56.2811 18.7659 56.2849 18.2371C56.2799 18.0474 56.2047 17.8723 56.07 17.7456C55.9227 17.6024 55.7141 17.5277 55.4694 17.5277H54.8354V19.023C55.0143 19.0266 55.2115 19.0272 55.4163 19.0285Z" fill="#333333"/>
</svg>
