<svg width="95" height="35" viewBox="0 0 95 35" fill="none" xmlns="http://www.w3.org/2000/svg">
<rect width="95" height="35" rx="15" fill="#ECE4C0"/>
<path fill-rule="evenodd" clip-rule="evenodd" d="M18 14.3026V15.6053H20.0901H22.1802V14.3026V13H20.0901H18V14.3026ZM22.7773 14.3646V15.7291L24.8973 15.6968L27.0172 15.6645L27.051 14.3322L27.0848 13H24.9311H22.7773V14.3646ZM34.77 15.0565C34.7325 15.1535 34.7195 15.3566 34.7411 15.5078C34.7748 15.7433 34.8492 15.7829 35.2581 15.7829C35.7245 15.7829 35.7358 15.7731 35.7358 15.3684C35.7358 14.9748 35.7133 14.9521 35.287 14.9171C34.9741 14.8914 34.8175 14.9337 34.77 15.0565ZM30.355 15.2829C30.3228 15.3662 30.3111 16.4986 30.3288 17.7994L30.3613 20.1645L31.5195 20.1983C32.8848 20.2381 33.4031 20.0746 33.7621 19.4907C34.0504 19.0219 34.0776 18.2489 33.8188 17.8825C33.5237 17.4647 33.1697 17.3285 32.2126 17.2641L31.3168 17.2039L31.2809 16.5866L31.2449 15.9693L32.4155 15.9353L33.586 15.9013L33.6234 15.5164L33.6609 15.1316H32.0372C30.8294 15.1316 30.3986 15.1703 30.355 15.2829ZM52.4793 15.2077C52.4339 15.2527 52.3968 16.3961 52.3968 17.7486C52.3968 20.0674 52.4098 20.2118 52.6255 20.2797C52.7512 20.3193 52.9931 20.3171 53.1629 20.2748L53.4717 20.198V18.0793V15.9605H54.4271H55.3826V18.0842C55.3826 20.0723 55.3972 20.2123 55.6113 20.2797C55.7371 20.3193 55.98 20.3169 56.1511 20.2743L56.4622 20.1968L56.43 17.6939L56.3978 15.1908L54.4798 15.1583C53.4248 15.1406 52.5246 15.1627 52.4793 15.2077ZM18 17.5V18.8026H18.8957H19.7915V17.5V16.1974H18.8957H18V17.5ZM20.3887 17.5V18.8026H22.4787H24.5688V17.5V16.1974H22.4787H20.3887V17.5ZM25.166 17.5V18.8026H26.0617H26.9575V17.5V16.1974H26.0617H25.166V17.5ZM37.169 16.476C36.7489 16.6009 36.6866 16.666 36.6527 17.0158C36.6192 17.3612 36.6427 17.4018 36.8319 17.3238C37.5393 17.0321 37.6932 16.9973 37.9708 17.0665C38.6974 17.2473 38.3815 17.9365 37.5443 17.9971C37.1466 18.0259 37.0425 18.0817 37.0136 18.2822C36.9824 18.5001 37.054 18.5403 37.5838 18.6025C37.9172 18.6417 38.2424 18.7059 38.3065 18.7452C38.4692 18.8449 38.4522 19.3185 38.2798 19.4895C38.0833 19.6843 37.3595 19.6669 36.9546 19.4575C36.6693 19.3099 36.6114 19.309 36.5563 19.4512C36.4207 19.802 36.5827 20.0485 37.0513 20.204C37.6487 20.4023 38.6137 20.3054 39.0186 20.0066C39.6082 19.5714 39.6432 18.6803 39.0807 18.4262L38.7894 18.2945L39.0839 17.9474C39.6237 17.3112 39.3542 16.6314 38.4828 16.4312C37.8892 16.2948 37.7642 16.2991 37.169 16.476ZM45.7853 16.4323C45.0121 16.6738 44.5923 17.3622 44.5923 18.3882C44.5923 19.1818 44.8321 19.7591 45.2837 20.0526C45.6901 20.3165 46.7448 20.3952 47.3209 20.2043C47.7106 20.0752 47.8057 19.9839 47.8375 19.7084L47.8765 19.3708L47.3598 19.4683C46.2345 19.6803 45.5891 19.4541 45.5891 18.8476C45.5891 18.5818 45.6237 18.5731 46.8133 18.5403L48.0375 18.5066L48.0176 17.9385C47.9857 17.0256 47.507 16.4997 46.6043 16.386C46.3415 16.3529 45.9729 16.3737 45.7853 16.4323ZM49.8335 16.4894C49.5732 16.5834 49.2646 16.7827 49.1475 16.9322C48.6444 17.5745 48.5779 18.9031 49.0121 19.6321C49.4002 20.2833 50.3165 20.5144 51.1465 20.1705C51.5089 20.0204 51.5607 19.9463 51.5607 19.5784C51.5607 19.1168 51.4964 19.0794 51.1498 19.3393C50.8228 19.5846 50.2892 19.5551 50.0081 19.2763C49.8223 19.0921 49.7692 18.8816 49.7692 18.3289C49.7692 17.7763 49.8223 17.5658 50.0081 17.3816C50.2892 17.1028 50.8228 17.0733 51.1498 17.3186C51.4952 17.5777 51.5607 17.5412 51.5607 17.0897C51.5607 16.8185 51.4891 16.6413 51.3496 16.5673C50.9411 16.3506 50.3078 16.318 49.8335 16.4894ZM58.5299 16.4386C58.0363 16.589 57.4452 17.2682 57.3444 17.8009C57.2271 18.421 57.353 19.2577 57.6173 19.6155C58.1317 20.3117 59.3379 20.5537 60.1618 20.1261C61.3024 19.5341 61.4462 17.4089 60.3971 16.6476C60.0398 16.3883 59.0562 16.2781 58.5299 16.4386ZM62.25 16.4901C61.9872 16.5877 61.7588 16.6683 61.7424 16.6693C61.726 16.6702 61.7126 16.8366 61.7126 17.039C61.7126 17.3427 61.749 17.3921 61.9216 17.3223C62.8456 16.9476 63.5041 17.0189 63.5041 17.4933C63.5041 17.7914 63.1641 17.9737 62.6082 17.9737C62.2055 17.9737 62.1771 17.997 62.2123 18.2993C62.2464 18.5939 62.3012 18.6287 62.7851 18.6628C63.5825 18.719 63.8473 19.0375 63.4359 19.4455C63.202 19.6773 62.6678 19.6842 62.1321 19.4622C61.7579 19.3072 61.7176 19.3108 61.6556 19.5048C61.5494 19.8364 61.6997 20.0777 62.0982 20.2154C62.8713 20.4826 64.0531 20.2952 64.4289 19.8459C64.5106 19.7481 64.611 19.5023 64.6519 19.2994C64.7134 18.9945 64.6649 18.8697 64.372 18.5792L64.0175 18.2277L64.2584 17.9888C64.5946 17.6555 64.5706 17.0827 64.2052 16.7203C63.8263 16.3447 62.9268 16.2387 62.25 16.4901ZM74.6711 16.452C74.0061 16.6962 73.7747 17.0104 74.0002 17.3631C74.0843 17.4947 74.1659 17.4896 74.4702 17.3335C74.9985 17.0626 75.7643 17.0839 75.9209 17.3738C76.1499 17.7979 76.0728 17.9734 75.6564 17.9765C75.0095 17.9813 74.3654 18.1758 74.0623 18.4581C73.6707 18.823 73.6712 19.4984 74.0635 19.9506C74.3142 20.2396 74.4372 20.2829 75.0064 20.2829C75.4827 20.2829 75.7297 20.2214 75.9126 20.0573C76.1262 19.8656 76.164 19.8599 76.164 20.0198C76.164 20.239 76.5216 20.3804 76.804 20.2729C76.9717 20.2091 77 19.9778 77 18.6734C77 17.1768 76.9939 17.1418 76.6716 16.7853C76.3976 16.4823 76.2342 16.4136 75.6862 16.3712C75.325 16.3433 74.8681 16.3796 74.6711 16.452ZM34.8401 18.3218V20.2237H35.3208H35.8016L35.7687 18.3586L35.7358 16.4934L35.288 16.4567L34.8401 16.4199V18.3218ZM40.334 18.3289V20.2237H40.8117H41.2895V19.4539V18.6842H42.0061H42.7227V19.4539V20.2237H43.2004H43.6781V18.3289V16.4342H43.2004H42.7227V17.1447V17.8553H42.0061H41.2895V17.1447V16.4342H40.8117H40.334V18.3289ZM65.415 18.3141C65.415 20.1037 65.4281 20.2118 65.6538 20.2829C66.0832 20.418 66.3119 20.2377 67.093 19.1488L67.8634 18.0748L67.8976 19.1481C67.9304 20.1683 67.9461 20.2249 68.2175 20.2925C68.3745 20.3316 68.6157 20.328 68.7535 20.2847C68.9957 20.2084 69.0029 20.1447 68.9711 18.3497L68.9383 16.4934L68.5191 16.4584C68.1172 16.4247 68.0681 16.4665 67.3334 17.4649C66.912 18.0379 66.5363 18.544 66.4986 18.5897C66.461 18.6355 66.4302 18.1826 66.4302 17.5831V16.4934L65.9226 16.4571L65.415 16.4206V18.3141ZM69.9534 18.3151C69.9534 20.1586 69.9587 20.1974 70.2186 20.2648C70.3644 20.3027 70.6063 20.303 70.756 20.2657C71.004 20.204 71.0283 20.1302 71.0283 19.4412C71.0283 18.7985 71.0599 18.6844 71.2374 18.686C71.5825 18.6891 71.7209 18.8377 72.0359 19.5438C72.2581 20.0423 72.4148 20.2373 72.6376 20.2927C73.0196 20.3878 73.2976 20.2841 73.2976 20.0464C73.2976 19.7358 72.6057 18.4821 72.3887 18.3995C72.2077 18.3307 72.2193 18.2856 72.4912 17.9997C72.7989 17.6763 73.1781 16.9021 73.1781 16.5974C73.1781 16.4871 73.0296 16.4342 72.72 16.4342C72.2739 16.4342 72.2536 16.453 71.9526 17.1447C71.6893 17.7499 71.5978 17.8553 71.3359 17.8553C71.0396 17.8553 71.0283 17.8292 71.0283 17.1447V16.4342H70.4909H69.9534V18.3151ZM46.8139 17.2336C46.9166 17.3475 47.019 17.5474 47.0414 17.6776C47.0779 17.8906 47.0067 17.918 46.3355 17.9498C45.6513 17.9821 45.5891 17.9648 45.5891 17.7425C45.5891 17.1616 46.4327 16.8109 46.8139 17.2336ZM59.6344 17.2353C59.8913 17.4054 60.0405 17.8479 60.0405 18.4396C60.0405 19.1506 59.7581 19.5132 59.2045 19.5132C58.6403 19.5132 58.3684 19.1524 58.3684 18.4041C58.3684 17.6344 58.6864 17.1438 59.1833 17.1465C59.3591 17.1476 59.5622 17.1875 59.6344 17.2353ZM32.6637 18.1581C32.9768 18.3755 33.0206 18.9318 32.7462 19.204C32.5464 19.4021 31.8884 19.5596 31.5378 19.4934C31.3557 19.4589 31.3106 19.3214 31.2812 18.7126L31.2457 17.9737H31.822C32.1503 17.9737 32.5124 18.053 32.6637 18.1581ZM76.0445 18.9735C76.0445 19.4768 75.2255 19.8379 74.8741 19.4895C74.4816 19.1003 74.8211 18.6842 75.531 18.6842C75.9959 18.6842 76.0445 18.7116 76.0445 18.9735ZM18 20.6382V22H20.0901H22.1802V20.6382V19.2763H20.0901H18V20.6382ZM22.7773 20.6382V22H24.8674H26.9575V20.6382V19.2763H24.8674H22.7773V20.6382Z" fill="#333333"/>
</svg>
