<svg width="95" height="35" viewBox="0 0 95 35" fill="none" xmlns="http://www.w3.org/2000/svg">
<rect width="95" height="35" rx="15" fill="#ECE4C0"/>
<path fill-rule="evenodd" clip-rule="evenodd" d="M49.6297 16.1643L49.6276 14.5864L49.6254 13.0085H49.0197H48.4141V16.1986V19.3887L49.0038 19.3704L49.5935 19.3521L49.6113 18.52L49.6289 17.6878L50.105 17.2149C50.5156 16.807 50.5928 16.7549 50.6663 16.8357C50.7131 16.8873 51.2167 17.4816 51.7852 18.1567L52.8188 19.384H53.4923C54.0363 19.384 54.1592 19.3672 54.1321 19.2966C54.1137 19.2485 53.4916 18.458 52.7496 17.5399C51.5692 16.079 51.4112 15.8575 51.4853 15.7664C51.5319 15.7091 52.1233 15.0723 52.7996 14.3513L54.0292 13.0404L53.3734 13.0201L52.7175 13L51.1736 14.5821L49.6297 16.1643ZM74.6645 13.9206C74.2061 13.4804 73.7748 13.2402 73.2 13.1046C72.7089 12.9888 72.2172 12.9905 71.725 13.1096C70.7332 13.3497 69.8478 14.1424 69.5001 15.1017C69.4186 15.3265 69.3581 15.6843 69.3399 16.0488C69.3165 16.5198 69.3367 16.72 69.4435 17.0715C69.5165 17.3119 69.6871 17.6794 69.8227 17.8884C70.2856 18.6021 70.956 19.0668 71.8308 19.2806L72.009 19.324L71.9902 18.8692L71.9715 18.4144L71.6704 18.3004C71.038 18.0607 70.5216 17.5231 70.3089 16.8825C70.2326 16.6528 70.2106 16.4191 70.2303 16.0453C70.2531 15.6104 70.2918 15.4624 70.4705 15.1272C70.7245 14.6506 71.0623 14.3294 71.5494 14.1009C71.8545 13.9579 71.9929 13.9331 72.4815 13.9344C72.9661 13.9357 73.1117 13.9621 73.4184 14.1046C73.8822 14.3201 74.3272 14.7653 74.5372 15.2239C74.7524 15.6941 74.8038 16.3795 74.6574 16.8271C74.6003 17.0018 74.5535 17.169 74.5535 17.1987C74.5535 17.2961 75.2022 17.7407 75.26 17.6829C75.2906 17.6523 75.3759 17.4559 75.4494 17.2465C75.62 16.7604 75.6756 16.017 75.5769 15.5419C75.4547 14.9543 75.1181 14.3561 74.6645 13.9206ZM57.8729 15.0181C57.657 14.8022 57.486 14.7014 57.1701 14.6038C56.4015 14.3664 55.2274 14.4635 54.5345 14.8217C54.3404 14.922 54.2413 14.9727 54.2158 15.0482C54.189 15.1273 54.243 15.2337 54.353 15.4532C54.4611 15.669 54.5588 15.8557 54.57 15.8681C54.5811 15.8806 54.7427 15.8168 54.929 15.7263C55.5824 15.4092 56.3109 15.3552 56.7653 15.5902C57.011 15.7173 57.2117 16.0367 57.212 16.3012L57.2122 16.5019L56.1762 16.529C55.3027 16.5518 55.0952 16.5768 54.8533 16.6876C54.3243 16.93 54.0233 17.3943 54.0259 17.9634C54.0277 18.3631 54.2045 18.7391 54.5083 18.9895C54.8509 19.2719 55.2765 19.3979 55.8743 19.394C56.2404 19.3915 56.462 19.3537 56.694 19.2539C56.8688 19.1787 57.0641 19.0591 57.128 18.9881C57.2428 18.8605 57.2445 18.8618 57.276 19.1055L57.3079 19.3521H57.8498H58.3917V17.6626C58.3917 16.1895 58.3767 15.9302 58.275 15.6382C58.2008 15.4256 58.0541 15.1993 57.8729 15.0181ZM62.7589 15.042C62.7589 14.964 62.1185 14.6775 61.7095 14.5724C61.197 14.4408 60.3893 14.4497 59.9794 14.5913C59.5486 14.7403 59.1352 15.0763 58.9902 15.3955C58.8503 15.7035 58.8349 16.244 58.9576 16.5378C59.0973 16.8721 59.4639 17.1273 60.0105 17.2707C60.2773 17.3407 60.6247 17.4164 60.7825 17.4389C60.9403 17.4615 61.2197 17.5217 61.4033 17.5728C61.664 17.6453 61.7456 17.6992 61.7756 17.8189C61.876 18.2187 61.5697 18.4276 60.8833 18.4276C60.3578 18.4276 59.876 18.3254 59.4936 18.1328C59.3282 18.0495 59.178 17.9814 59.1598 17.9814C59.1096 17.9814 58.7423 18.73 58.7423 18.8324C58.7423 18.936 59.203 19.1473 59.7408 19.2905C60.2454 19.4248 61.2339 19.4249 61.7123 19.2906C62.23 19.1453 62.6734 18.8117 62.8353 18.4457C62.9322 18.2266 62.9574 18.0616 62.9371 17.7801C62.9064 17.3551 62.785 17.1515 62.3996 16.8788C62.2055 16.7415 61.9386 16.658 61.2331 16.5137C60.7298 16.4108 60.2505 16.2822 60.1678 16.228C59.9733 16.1006 59.9666 15.8023 60.1543 15.6274C60.2296 15.5573 60.4188 15.4808 60.5748 15.4574C61.0055 15.3928 61.4745 15.4721 61.8954 15.6806C62.1043 15.7841 62.296 15.8558 62.3216 15.84C62.3777 15.8053 62.7589 15.1096 62.7589 15.042ZM67.5796 15.6275C67.4081 15.1348 67.0149 14.7696 66.4771 14.6034C65.7097 14.3664 64.5351 14.4637 63.8427 14.8217C63.646 14.9234 63.547 14.9744 63.5224 15.0497C63.4973 15.1262 63.5487 15.2277 63.6522 15.4326C63.7554 15.6371 63.867 15.8212 63.9002 15.8417C63.9333 15.8621 64.0564 15.8224 64.1736 15.7532C64.2908 15.684 64.5721 15.5799 64.7987 15.5219C65.2671 15.4019 65.7589 15.4276 66.0698 15.5883C66.321 15.7182 66.5199 16.0359 66.5202 16.3078L66.5204 16.515H65.648C65.0416 16.515 64.6645 16.5462 64.4114 16.6172C63.7365 16.8065 63.3355 17.3032 63.3355 17.9495C63.3355 18.3612 63.5087 18.7358 63.8165 18.9895C64.1523 19.2662 64.5837 19.3968 65.1548 19.3945C65.7223 19.3923 66.0239 19.3069 66.3413 19.0583L66.5765 18.8741L66.5963 19.1131L66.6161 19.3521H67.158H67.6999V17.6626C67.6999 16.1714 67.6857 15.9325 67.5796 15.6275ZM73.448 14.9564C73.3324 14.8683 73.1142 14.7525 72.9632 14.6993C72.3553 14.4847 71.7237 14.6636 71.2868 15.174C71.1662 15.3149 71.0342 15.5413 70.9935 15.6771C70.8374 16.1981 70.9295 16.7414 71.2416 17.1403C71.3766 17.3129 71.8494 17.6626 71.9478 17.6626C71.9768 17.6626 72.0084 17.121 72.0179 16.4592L72.0352 15.2559L72.9532 15.981C73.4581 16.3799 73.8943 16.7063 73.9226 16.7063C74.0065 16.7063 74.0626 16.2724 74.0193 15.9575C73.9697 15.5954 73.7261 15.1686 73.448 14.9564ZM75.3479 18.395L73.9785 17.3187L72.5293 16.1796C72.466 16.1297 72.4496 16.4936 72.4496 17.9556V19.7944L72.8181 19.4298C73.0207 19.2292 73.2014 19.0652 73.2197 19.0652C73.238 19.0652 73.3657 19.3019 73.5036 19.5912C73.6414 19.8804 73.7624 20.1296 73.7725 20.1449C73.7985 20.1842 74.681 19.7509 74.681 19.6987C74.681 19.6749 74.5678 19.4151 74.4293 19.1213L74.1776 18.587L74.4612 18.5392C74.6172 18.5129 74.8805 18.4697 75.0464 18.4432L75.3479 18.395ZM55.6042 17.3709C55.6996 17.3499 55.8064 17.3231 55.8415 17.3114C55.8766 17.2997 56.1993 17.2878 56.5587 17.2851L57.2122 17.2801V17.5731C57.2122 17.7342 57.1646 17.9467 57.1064 18.0452C57.0482 18.1437 56.8935 18.2846 56.7625 18.3581C56.2716 18.6341 55.5604 18.5853 55.303 18.2581C55.0434 17.928 55.2024 17.4594 55.6042 17.3709ZM64.9124 17.3709C65.0079 17.3499 65.1146 17.3231 65.1497 17.3114C65.1848 17.2997 65.5075 17.2878 65.8669 17.2851L66.5204 17.2801V17.5701C66.5204 17.7297 66.4802 17.9379 66.431 18.033C66.3178 18.2521 65.9144 18.4807 65.5542 18.5302C65.1818 18.5812 64.7725 18.4631 64.6112 18.2581C64.3516 17.928 64.5106 17.4594 64.9124 17.3709ZM22.6407 13.4496C23.0017 13.2581 23.5303 13.0836 23.8966 13.035C24.8781 12.9049 26.1032 13.2665 26.6733 13.8547L26.8877 14.0758L26.5128 14.4546L26.138 14.8334L25.9141 14.6368C25.5938 14.3556 25.1168 14.1527 24.6616 14.1039C23.9363 14.0262 23.0784 14.3615 22.6861 14.8759C22.3017 15.3798 22.1492 16.0275 22.2661 16.6597C22.3996 17.382 22.7611 17.8839 23.3747 18.1988C23.6367 18.3333 23.8214 18.3744 24.2647 18.397C24.6127 18.4147 24.9345 18.3945 25.1163 18.3436C25.277 18.2986 25.5726 18.141 25.773 17.9934L26.1376 17.7251L26.4994 18.0728C26.6984 18.264 26.8612 18.4445 26.8612 18.4739C26.8612 18.5604 26.3781 18.9486 26.0446 19.1301C25.8748 19.2225 25.566 19.3431 25.3582 19.3981C24.9044 19.5181 23.9548 19.5328 23.5141 19.4265C22.6505 19.2181 21.7723 18.5655 21.3898 17.8479C20.8832 16.8972 20.8695 15.7169 21.3541 14.7606C21.5811 14.3126 22.197 13.685 22.6407 13.4496ZM39.4847 15.182V14.1501V13.1181H40.0585H40.6323V16.2764V19.4348L40.0744 19.4163L39.5165 19.3979L39.4969 19.1611L39.4773 18.9243L39.2141 19.115C38.8226 19.3985 38.345 19.5167 37.754 19.4761C37.1696 19.4361 36.699 19.2435 36.2962 18.8796C35.8423 18.4695 35.6328 18.0568 35.5319 17.3737C35.3648 16.2417 35.9922 15.0901 36.9854 14.7055C37.2585 14.5998 37.4915 14.5637 37.9227 14.5603C38.3906 14.5566 38.5553 14.5825 38.8152 14.701C38.9906 14.7809 39.2129 14.9218 39.3093 15.0142L39.4847 15.182ZM41.7161 14.0744V13.5962V13.1181H42.3218H42.9274V13.5962V14.0744H42.3218H41.7161ZM44.33 14.5844V13.8512V13.1181H44.9038H45.4776V13.8512V14.5844H46.1152H46.7527V15.0626V15.5407H46.1152H45.4776L45.4779 16.7999C45.4781 17.9355 45.4903 18.0791 45.6023 18.2628C45.7636 18.5272 46.0915 18.5995 46.486 18.4576L46.7625 18.3583L46.888 18.651C47.0772 19.0923 47.0689 19.1778 46.8235 19.3236C46.6747 19.412 46.454 19.4608 46.1142 19.4805C45.4878 19.5167 45.0795 19.3906 44.7593 19.062C44.3566 18.6487 44.33 18.518 44.33 16.9484V15.5468L43.9316 15.5279L43.5331 15.5089L43.5144 15.0466L43.4956 14.5844H43.9128H44.33ZM28.6623 14.9948C28.9116 14.7846 29.2163 14.6508 29.6027 14.582C29.8822 14.5321 30.6628 14.5595 30.901 14.6274C31.0007 14.6559 30.9697 14.7052 30.7077 14.9344C30.5361 15.0846 30.3413 15.3083 30.275 15.4315C30.1588 15.6471 30.1408 15.6555 29.7929 15.6555C29.1883 15.6555 28.779 15.9402 28.5923 16.4906C28.5459 16.6276 28.5188 17.2091 28.5188 18.071V19.4346L27.9291 19.4163L27.3394 19.3979V17.0071V14.6163L27.8972 14.5979L28.4551 14.5794V14.8745V15.1696L28.6623 14.9948ZM30.9812 15.2202C31.3395 14.8814 31.7148 14.6805 32.1701 14.5838C32.5648 14.5001 33.3006 14.5624 33.7059 14.714C34.1866 14.8939 34.6532 15.3275 34.8917 15.8158C35.0893 16.2206 35.2255 16.9136 35.1673 17.2181L35.1345 17.3896H33.2603H31.3861L31.4827 17.6287C31.6071 17.9364 32.0101 18.3021 32.3308 18.3982C32.6611 18.4972 33.2719 18.4895 33.5715 18.3825C33.7031 18.3356 33.9082 18.2228 34.0274 18.1319L34.244 17.9667L34.5373 18.3099C34.6986 18.4987 34.8306 18.669 34.8306 18.6882C34.8306 18.7625 34.4682 19.062 34.2249 19.1888C33.4128 19.6121 32.2806 19.5879 31.4379 19.1293C31.0366 18.9109 30.6547 18.4926 30.4417 18.0383C30.2918 17.7185 30.2721 17.5987 30.2721 17.0071C30.2721 16.4043 30.2903 16.2981 30.4553 15.941C30.5728 15.6866 30.7615 15.428 30.9812 15.2202ZM41.7161 19.4298V17.0071V14.5844H42.3218H42.9274V17.0071V19.4298H42.3218H41.7161ZM34.0306 16.4811C33.93 16.1491 33.7008 15.838 33.4476 15.6896C33.1536 15.5173 32.6169 15.444 32.3291 15.5367C31.8845 15.6801 31.5645 16.0135 31.4227 16.4811L31.3792 16.6246H32.7267H34.0741L34.0306 16.4811ZM39.3084 16.2617C39.1514 15.9647 38.8633 15.7233 38.5348 15.6133C38.2717 15.5252 37.8628 15.5272 37.6039 15.6177C37.2973 15.7249 37.0079 15.9739 36.8557 16.2617C36.7466 16.4679 36.7139 16.6381 36.7128 17.0071C36.7116 17.4006 36.7396 17.5356 36.8707 17.7693C36.9584 17.9255 37.1476 18.1359 37.2912 18.2367C37.4829 18.3713 37.6542 18.4293 37.9354 18.4547C38.3781 18.4949 38.6997 18.4081 38.979 18.173C39.0849 18.084 39.2341 17.8928 39.3107 17.7482C39.418 17.5454 39.4499 17.3758 39.4499 17.0071C39.4499 16.6362 39.4181 16.469 39.3084 16.2617ZM38.0183 21.1512C37.7822 21.1512 37.6358 21.0609 37.6358 20.9153C37.6358 20.8179 37.8017 20.8036 37.8589 20.8961C37.8806 20.9312 37.954 20.9599 38.0221 20.9599C38.0902 20.9599 38.1458 20.9312 38.1458 20.8961C38.1458 20.8611 38.2032 20.8324 38.2733 20.8324C38.3435 20.8324 38.4008 20.8697 38.4008 20.9153C38.4008 21.0609 38.2545 21.1512 38.0183 21.1512ZM50.4706 21.8324C50.5118 21.5256 50.7334 21.2838 51.0321 21.2198C51.429 21.1346 51.7871 21.2975 51.9478 21.6363C52.0393 21.8293 52.0467 21.9122 51.989 22.1045C51.8907 22.4329 51.6616 22.626 51.3257 22.6639C50.7863 22.7247 50.4012 22.3502 50.4706 21.8324ZM33.8105 22.6813V21.9481V21.2149H33.9699C34.1163 21.2149 34.1293 21.2383 34.1293 21.5018V21.7887H34.448H34.7668V21.5018C34.7668 21.2383 34.7798 21.2149 34.9262 21.2149H35.0856V21.9481V22.6813H34.9262C34.7775 22.6813 34.7668 22.66 34.7668 22.3625V22.0437H34.448H34.1293V22.3625C34.1293 22.66 34.1186 22.6813 33.9699 22.6813H33.8105ZM35.467 22.6335C35.4664 22.6072 35.6024 22.2772 35.7692 21.9003C36.0284 21.3143 36.0937 21.2149 36.2197 21.2149C36.3444 21.2149 36.4152 21.3183 36.6825 21.891C36.8562 22.2628 36.9982 22.5927 36.9982 22.6242C36.9982 22.6556 36.9311 22.6813 36.8491 22.6813C36.7518 22.6813 36.6746 22.6258 36.6273 22.5219C36.563 22.3807 36.5156 22.3625 36.2129 22.3625C35.9102 22.3625 35.8628 22.3807 35.7985 22.5219C35.7559 22.6154 35.6726 22.6813 35.597 22.6813C35.5261 22.6813 35.4676 22.6597 35.467 22.6335ZM37.5074 22.6813C37.3883 22.6813 37.3808 22.637 37.3808 21.9436C37.3808 21.2152 37.3825 21.2063 37.5242 21.2264C37.652 21.2446 37.6711 21.2915 37.6995 21.6576L37.7314 22.0685L38.0502 21.6446C38.274 21.347 38.4117 21.2199 38.5124 21.2178C38.653 21.215 38.6559 21.2294 38.6559 21.9481V22.6813H38.4993C38.3496 22.6813 38.3419 22.6615 38.3239 22.2323L38.3052 21.7832L37.9696 22.2323C37.7507 22.525 37.5899 22.6813 37.5074 22.6813ZM39.1659 22.6813V21.9481V21.2149H39.3253C39.4717 21.2149 39.4847 21.2383 39.4847 21.5018C39.4847 21.7438 39.5041 21.7887 39.6091 21.7887C39.6849 21.7887 39.8108 21.6764 39.931 21.5018C40.0761 21.2908 40.1705 21.2149 40.2879 21.2149C40.3499 21.2149 40.3904 21.2129 40.4029 21.2307C40.4256 21.2627 40.3575 21.3589 40.1613 21.6469L39.9772 21.917L40.2091 22.2663C40.3366 22.4584 40.441 22.6303 40.441 22.6484C40.441 22.6665 40.3741 22.6813 40.2924 22.6813C40.1894 22.6813 40.0807 22.5934 39.9378 22.3944C39.8154 22.224 39.6816 22.1075 39.6082 22.1075C39.5043 22.1075 39.4847 22.1531 39.4847 22.3944C39.4847 22.6579 39.4717 22.6813 39.3253 22.6813H39.1659ZM40.7598 22.6813V21.9481V21.2149H41.1974C41.5437 21.2149 41.6702 21.2425 41.8031 21.3471C41.9292 21.4462 41.9711 21.5366 41.9711 21.7095C41.9711 21.8583 41.922 21.9922 41.8325 22.0875C41.7247 22.2022 41.6254 22.235 41.3862 22.235H41.0785V22.4581C41.0785 22.6537 41.0588 22.6813 40.9192 22.6813H40.7598ZM42.1624 22.6106C42.1624 22.5718 42.2968 22.2405 42.4612 21.8744C42.7332 21.2685 42.7742 21.2105 42.918 21.2278C43.0513 21.2438 43.1237 21.3514 43.381 21.9162C43.5488 22.2844 43.6875 22.6072 43.6892 22.6335C43.691 22.6597 43.6254 22.6813 43.5434 22.6813C43.4461 22.6813 43.3689 22.6258 43.3216 22.5219C43.2572 22.3807 43.2099 22.3625 42.9072 22.3625C42.6044 22.3625 42.5571 22.3807 42.4927 22.5219C42.4502 22.6154 42.3668 22.6813 42.2912 22.6813C42.2204 22.6813 42.1624 22.6495 42.1624 22.6106ZM44.0248 22.0164C44.0146 21.6682 44.0209 21.3455 44.0387 21.2991C44.0565 21.2528 44.1293 21.2149 44.2005 21.2149C44.3211 21.2149 44.33 21.2544 44.33 21.7887V22.3625H44.5851H44.8401V21.7842C44.8401 21.2211 44.8438 21.2066 44.9835 21.2264C45.1181 21.2455 45.1281 21.2812 45.1454 21.8046L45.1638 22.3625H45.3845H45.6051V21.7842C45.6051 21.2211 45.6089 21.2066 45.7486 21.2264C45.8826 21.2455 45.8932 21.282 45.9107 21.7837C45.9244 22.1756 45.9558 22.3399 46.0269 22.3919C46.0933 22.4404 46.1179 22.5439 46.1039 22.7157C46.0873 22.9188 46.0584 22.9682 45.9558 22.9682C45.8726 22.9682 45.8213 22.919 45.8081 22.8265C45.7886 22.689 45.7623 22.6843 44.9156 22.6671L44.0431 22.6494L44.0248 22.0164ZM46.4977 22.6813V21.9455V21.2098L47.0237 21.2283C47.4405 21.243 47.5497 21.2666 47.5497 21.3424C47.5497 21.4141 47.4579 21.4428 47.1831 21.4572C46.8417 21.475 46.8165 21.4871 46.8165 21.6325C46.8165 21.7774 46.8394 21.7887 47.1352 21.7887C47.4115 21.7887 47.454 21.8057 47.454 21.9162C47.454 22.0267 47.4115 22.0437 47.1352 22.0437C46.8394 22.0437 46.8165 22.055 46.8165 22.1999C46.8165 22.3454 46.8417 22.3575 47.1831 22.3753C47.5078 22.3922 47.5519 22.4108 47.5701 22.5378C47.5898 22.677 47.5742 22.6813 47.0441 22.6813H46.4977ZM48.7291 22.6813V21.9459V21.2105L49.3826 21.2286L50.0361 21.2468V21.9481C50.0361 22.6268 50.0315 22.65 49.8926 22.6698C49.7524 22.6897 49.7492 22.6763 49.7492 22.0801V21.4699H49.3985H49.0479V22.0756C49.0479 22.6792 49.0473 22.6813 48.8885 22.6813H48.7291ZM52.4269 22.6813V21.9459V21.2105L53.0804 21.2286L53.7339 21.2468V21.9481C53.7339 22.6268 53.7293 22.65 53.5904 22.6698C53.4502 22.6897 53.447 22.6763 53.447 22.0801V21.4699H53.0963H52.7457V22.0756C52.7457 22.6792 52.7451 22.6813 52.5863 22.6813H52.4269ZM54.2758 22.6813V21.9455V21.2098L54.8018 21.2283C55.2186 21.243 55.3277 21.2666 55.3277 21.3424C55.3277 21.4141 55.236 21.4428 54.9612 21.4572C54.6198 21.475 54.5946 21.4871 54.5946 21.6325C54.5946 21.7774 54.6175 21.7887 54.9133 21.7887C55.1896 21.7887 55.2321 21.8057 55.2321 21.9162C55.2321 22.0267 55.1896 22.0437 54.9133 22.0437C54.6175 22.0437 54.5946 22.055 54.5946 22.1999C54.5946 22.3454 54.6198 22.3575 54.9612 22.3753C55.2859 22.3922 55.33 22.4108 55.3481 22.5378C55.3679 22.677 55.3523 22.6813 54.8222 22.6813H54.2758ZM55.7557 22.0164C55.7455 21.6682 55.7518 21.3455 55.7696 21.2991C55.8101 21.1936 56.4967 21.1838 56.7203 21.2857C56.8861 21.3612 57.0172 21.586 57.0172 21.7946C57.0172 21.8647 56.9468 21.9924 56.8607 22.0785C56.7412 22.1981 56.6369 22.235 56.4185 22.235C56.1427 22.235 56.1321 22.2422 56.1128 22.4422C56.0961 22.6154 56.0667 22.6494 55.9334 22.6494C55.7754 22.6494 55.7739 22.6442 55.7557 22.0164ZM57.3998 22.6813V21.9455V21.2098L57.9258 21.2283C58.3426 21.243 58.4517 21.2666 58.4517 21.3424C58.4517 21.4141 58.36 21.4428 58.0851 21.4572C57.7438 21.475 57.7186 21.4871 57.7186 21.6325C57.7186 21.7774 57.7415 21.7887 58.0373 21.7887C58.3136 21.7887 58.3561 21.8057 58.3561 21.9162C58.3561 22.0267 58.3136 22.0437 58.0373 22.0437C57.7415 22.0437 57.7186 22.055 57.7186 22.1999C57.7186 22.3454 57.7438 22.3575 58.0851 22.3753C58.4099 22.3922 58.454 22.4108 58.4721 22.5378C58.4919 22.677 58.4763 22.6813 57.9462 22.6813H57.3998ZM58.8668 22.362C58.9813 22.2757 59.01 22.1717 59.0399 21.7367L59.0756 21.2149H59.6084H60.1412V21.7887C60.1412 22.2562 60.159 22.3625 60.2369 22.3625C60.3091 22.3625 60.3325 22.4404 60.3325 22.6813C60.3325 22.9575 60.3155 23 60.205 23C60.1115 23 60.0775 22.9575 60.0775 22.8407C60.0775 22.684 60.0687 22.6813 59.5719 22.6813C59.0961 22.6813 59.0651 22.6898 59.0459 22.8247C59.0325 22.9189 58.9817 22.9682 58.898 22.9682C58.7956 22.9682 58.7665 22.9188 58.75 22.7169C58.7338 22.5193 58.7588 22.4434 58.8668 22.362ZM60.8497 21.8101C60.7055 21.5328 60.5875 21.2855 60.5875 21.2604C60.5875 21.2354 60.6531 21.2149 60.7333 21.2149C60.8487 21.2149 60.92 21.298 61.0752 21.613L61.2713 22.0111L61.4722 21.613C61.6398 21.2811 61.7002 21.2149 61.836 21.2149H61.9989L61.6682 21.8365C61.4864 22.1784 61.2804 22.5083 61.2105 22.5697C61.1406 22.6311 61.0005 22.6813 60.8992 22.6813C60.7575 22.6813 60.715 22.6519 60.715 22.5538C60.715 22.4752 60.7579 22.4259 60.8266 22.4253C60.8879 22.4247 60.9773 22.3995 61.0251 22.3693C61.0944 22.3253 61.0589 22.2121 60.8497 21.8101ZM41.6523 21.725C41.6523 21.6218 41.6101 21.5311 41.5515 21.5086C41.496 21.4873 41.3669 21.4699 41.2646 21.4699C41.09 21.4699 41.0785 21.4857 41.0785 21.725C41.0785 21.9642 41.09 21.98 41.2646 21.98C41.5587 21.98 41.6523 21.9184 41.6523 21.725ZM51.6592 22.1137C51.7469 21.9022 51.6634 21.6368 51.4778 21.5376C51.2742 21.4286 51.0567 21.4591 50.9079 21.6175C50.6729 21.8676 50.756 22.2484 51.0718 22.3684C51.2978 22.4544 51.5664 22.3379 51.6592 22.1137ZM56.622 21.9035C56.7369 21.7886 56.7142 21.6103 56.5752 21.5359C56.5073 21.4996 56.3782 21.4699 56.2883 21.4699C56.1399 21.4699 56.1247 21.4937 56.1247 21.725C56.1247 21.971 56.1321 21.98 56.3351 21.98C56.4508 21.98 56.5799 21.9455 56.622 21.9035ZM59.8225 22.3625V21.9162V21.4699H59.5674H59.3124L59.3115 21.7728C59.3111 21.9394 59.2934 22.1401 59.2723 22.2191C59.2364 22.3526 59.254 22.3625 59.5281 22.3625H59.8225ZM36.4244 22.0736C36.4244 22.0549 36.3829 21.9401 36.3321 21.8185C36.2812 21.697 36.2311 21.5978 36.2205 21.5981C36.2099 21.5985 36.1532 21.7132 36.0944 21.8531L35.9877 22.1075H36.206C36.3261 22.1075 36.4244 22.0922 36.4244 22.0736ZM43.1187 22.0834C43.1187 22.0701 43.0753 21.9554 43.0222 21.8284C42.9691 21.7014 42.9161 21.5974 42.9044 21.5974C42.8926 21.5974 42.8379 21.7122 42.7828 21.8525L42.6827 22.1075H42.9007C43.0206 22.1075 43.1187 22.0966 43.1187 22.0834Z" fill="#333333"/>
</svg>
