<svg width="95" height="35" viewBox="0 0 95 35" fill="none" xmlns="http://www.w3.org/2000/svg">
<rect width="95" height="35" rx="15" fill="#ECE4C0"/>
<path fill-rule="evenodd" clip-rule="evenodd" d="M22.0736 11.0949C21.9467 11.1708 18.7863 14.221 18.2189 14.8156C17.7129 15.3457 18.1538 16.2463 18.8321 16.0679C18.9183 16.0452 19.7414 15.2928 20.6612 14.3959L22.3335 12.7652L22.524 12.9273C22.6287 13.0165 23.8238 14.2028 25.1797 15.5636L27.645 18.0378L27.647 19.2925L27.649 20.5473H27.4466H27.2442L27.2471 19.9641L27.2499 19.3809L24.8087 16.8572C22.3064 14.2702 22.1939 14.1747 21.826 14.3212C21.6712 14.3829 18.8348 17.0881 18.2199 17.7605L18.0006 18.0004V19.7741V21.5478L18.1978 21.7544C18.6227 22.1996 18.7935 22.1176 20.079 20.852C20.6986 20.242 21.3129 19.6377 21.4443 19.5091L21.683 19.2753L23.0134 20.6182C24.2965 21.9134 24.3534 21.9611 24.6184 21.9611C25.011 21.9611 25.2866 21.6659 25.2897 21.2419L25.292 20.9361L23.721 19.3246C22.857 18.4383 22.0644 17.6649 21.9596 17.6058C21.5609 17.3813 21.5202 17.4103 19.7689 19.1671L19.3443 19.5929L19.3641 19.0919L19.3838 18.5908L20.6927 17.309L22.0017 16.0271L22.6494 16.6565C23.0056 17.0027 23.8679 17.8864 24.5655 18.6203L25.8339 19.9547L25.8475 20.7517L25.861 21.5487L26.0814 21.7549L26.3018 21.9611H27.4184C29.0852 21.9611 28.9985 22.0969 28.9985 19.4869C28.9985 17.203 29.086 17.4644 27.9417 16.3331C27.4653 15.8621 26.1343 14.5306 24.9839 13.3742C22.509 10.8864 22.4718 10.8574 22.0736 11.0949Z" fill="#333333"/>
<path d="M35.0247 11L34.0722 15.2241H36.1012C37.4583 15.2241 37.8889 14.3185 37.8889 13.6978C37.8889 13.0645 37.4061 12.5389 36.5318 12.5389H35.6054L35.775 11.7916H38.0259L38.2021 11H35.0247ZM36.4079 13.3305C36.7145 13.3305 36.9233 13.5268 36.9233 13.7865C36.9233 14.1475 36.6362 14.4324 36.1665 14.4324H35.1748L35.4292 13.3305H36.4079Z" fill="#333333"/>
<path d="M39.8985 12.0893C38.822 12.0893 38.2348 13.1089 38.2348 14.0335C38.2348 14.8441 38.7176 15.3001 39.4353 15.3001C39.8137 15.3001 40.1138 15.1481 40.3813 14.8441L40.29 15.2241H41.1251L41.8232 12.1653H40.9881L40.9033 12.5706C40.6945 12.2666 40.3161 12.0893 39.8985 12.0893ZM40.029 12.8049C40.3618 12.8049 40.6293 12.9569 40.7663 13.1595L40.5249 14.2235C40.3552 14.4324 40.0943 14.5844 39.8007 14.5844C39.4027 14.5844 39.1026 14.3058 39.1026 13.8688C39.1026 13.3052 39.4875 12.8049 40.029 12.8049Z" fill="#333333"/>
<path d="M42.7754 15.2241L43.0689 13.9828H44.3673L44.0802 15.2241H44.9088L45.6265 12.1653H44.7979L44.5369 13.2735H43.2321L43.493 12.1653H42.6644L41.9468 15.2241H42.7754Z" fill="#333333"/>
<path d="M48.8045 15.2241L47.8976 13.5522L49.4634 12.1653H48.4065L46.945 13.4762L47.2517 12.1653H46.4231L45.725 15.2241H46.5536L46.7297 14.4388L47.2191 14.0271L47.7997 15.2241H48.8045Z" fill="#333333"/>
<path d="M36.7254 21.8347L35.3879 19.5929L37.567 17.6107H36.3731L34.4745 19.4219L34.8855 17.6107H33.9591L33 21.8347H33.9265L34.2266 20.5365L34.6767 20.1059L35.6358 21.8347H36.7254Z" fill="#333333"/>
<path d="M39.0529 21.9107C40.1229 21.9107 40.7101 20.8848 40.7101 19.9665C40.7101 19.1559 40.2207 18.6999 39.5161 18.6999C39.1377 18.6999 38.8311 18.8519 38.5636 19.1559L38.6549 18.7759H37.8263L36.8607 23H37.6893L38.0481 21.4294C38.2569 21.7334 38.6223 21.9107 39.0529 21.9107ZM38.9159 21.1951C38.5831 21.1951 38.3156 21.0495 38.1786 20.8468L38.42 19.7829C38.5962 19.5739 38.8506 19.4156 39.1442 19.4156C39.5422 19.4156 39.8423 19.6942 39.8423 20.1312C39.8423 20.6948 39.4639 21.1951 38.9159 21.1951Z" fill="#333333"/>
<path d="M42.687 21.9107C43.0784 21.9107 43.496 21.7967 43.8026 21.5941L43.5417 21.0431C43.3459 21.1888 43.0197 21.2711 42.7457 21.2711C42.165 21.2711 41.8845 20.8975 41.8845 20.6378C41.8845 20.6188 41.8845 20.5745 41.8845 20.5618H44.2267C44.2593 20.4605 44.292 20.2452 44.292 20.0679C44.292 19.2129 43.6787 18.6999 42.8762 18.6999C41.8258 18.6999 41.0559 19.5422 41.0559 20.5365C41.0559 21.3914 41.6953 21.9107 42.687 21.9107ZM41.9693 20.0172C42.0411 19.6815 42.3803 19.3396 42.824 19.3396C43.3264 19.3396 43.5482 19.6499 43.5482 19.9539C43.5482 19.9665 43.5482 20.0045 43.5482 20.0172H41.9693Z" fill="#333333"/>
<path d="M44.0749 22.6137H44.897L45.0731 21.8347H47.0109L46.8347 22.6137H47.6698L48.0025 21.1318H47.6568L48.1918 18.7759H45.6407L45.1058 20.2578C44.8383 20.9988 44.6491 21.1128 44.3946 21.1635L44.0749 22.6137ZM46.2018 19.4789H47.1935L46.8282 21.1318H45.3667C45.6016 20.9545 45.7908 20.6822 45.9148 20.3085L46.2018 19.4789Z" fill="#333333"/>
<path d="M49.1633 21.8347L50.9314 19.9159L50.5008 21.8347H51.3294L52.021 18.7759H51.1859L49.4634 20.6252L49.8875 18.7759H49.0589L48.3673 21.8347H49.1633Z" fill="#333333"/>
<path d="M53.5677 21.8347L54.0962 19.4789H54.977L55.1401 18.7759H52.5434L52.3803 19.4789H53.2611L52.7326 21.8347H53.5677Z" fill="#333333"/>
<path d="M56.2199 22.6137H57.1398L57.3159 21.8347H60.0301L59.8539 22.6137H60.7804L61.1392 21.0431H60.7412L61.5241 17.6107H58.4316L57.6878 19.7702C57.2964 20.8848 57.0028 21.0495 56.5526 21.1128L56.2199 22.6137ZM59.0906 18.4023H60.415L59.8148 21.0431H57.7922C58.1184 20.7961 58.399 20.4035 58.5947 19.8335L59.0906 18.4023Z" fill="#333333"/>
<path d="M62.3146 21.8347L62.6082 20.5935H63.9066L63.6195 21.8347H64.4481L65.1658 18.7759H64.3372L64.0762 19.8842H62.7713L63.0323 18.7759H62.2037L61.4861 21.8347H62.3146Z" fill="#333333"/>
<path d="M66.4974 18.4466C66.7518 18.4466 67.0585 18.2503 67.0585 17.902C67.0585 17.674 66.8693 17.4904 66.6083 17.4904C66.3604 17.4904 66.0537 17.6867 66.0537 18.035C66.0537 18.263 66.2429 18.4466 66.4974 18.4466ZM66.0929 21.8347L66.791 18.7759H65.9624L65.2643 21.8347H66.0929Z" fill="#333333"/>
<path d="M69.8765 21.8347L70.5942 18.7759H67.6322L66.9145 21.8347H67.7431L68.2976 19.4789H69.596L69.0479 21.8347H69.8765Z" fill="#333333"/>
<path d="M72.6174 21.9107C73.6874 21.9107 74.2746 20.8848 74.2746 19.9665C74.2746 19.1559 73.7852 18.6999 73.0806 18.6999C72.7022 18.6999 72.3956 18.8519 72.1281 19.1559L72.2194 18.7759H71.3908L70.4252 23H71.2538L71.6126 21.4294C71.8214 21.7334 72.1868 21.9107 72.6174 21.9107ZM72.4804 21.1951C72.1476 21.1951 71.8801 21.0495 71.7431 20.8468L71.9845 19.7829C72.1607 19.5739 72.4151 19.4156 72.7087 19.4156C73.1067 19.4156 73.4068 19.6942 73.4068 20.1312C73.4068 20.6948 73.0284 21.1951 72.4804 21.1951Z" fill="#333333"/>
<path d="M76.1732 21.9107C77.2432 21.9107 78 21.0431 78 20.0932C78 19.2952 77.4389 18.6999 76.4342 18.6999C75.3707 18.6999 74.6139 19.5676 74.6139 20.5238C74.6139 21.3218 75.1685 21.9107 76.1732 21.9107ZM76.2058 21.1951C75.7426 21.1951 75.4686 20.9228 75.4686 20.4795C75.4686 19.9349 75.847 19.4156 76.4081 19.4156C76.8648 19.4156 77.1388 19.6879 77.1388 20.1312C77.1388 20.6822 76.7604 21.1951 76.2058 21.1951Z" fill="#333333"/>
</svg>
