<svg width="95" height="35" viewBox="0 0 95 35" fill="none" xmlns="http://www.w3.org/2000/svg">
<rect width="95" height="35" rx="15" fill="#ECE4C0"/>
<path fill-rule="evenodd" clip-rule="evenodd" d="M54.5857 13.0584C52.1877 13.6406 49.9202 14.1926 49.5466 14.2851L48.8676 14.4534V18.0448V21.6363L49.1892 21.7082C49.8212 21.8496 53.831 22.7732 55.5863 23.1818C56.5691 23.4104 57.727 23.6788 58.1594 23.7783L58.9457 23.9589L58.9841 21.0062C59.0053 19.3823 59.0053 16.6915 58.9841 15.0268L58.9457 12L54.5857 13.0584ZM33 18.0284C33 23.7617 33.0106 24 33.2665 24C33.4128 24 33.8774 23.9366 34.2986 23.8591C34.7198 23.7815 35.2915 23.6902 35.569 23.6561C35.8464 23.622 37.6173 23.3455 39.5043 23.0418C41.3912 22.738 43.1917 22.4528 43.5052 22.408C43.8188 22.363 44.9832 22.1723 46.0928 21.984C47.2024 21.7956 48.1538 21.6416 48.2072 21.6416C48.2603 21.6416 48.2982 20.0247 48.2911 18.0487C48.2782 14.4748 48.2765 14.4552 47.9653 14.3742C47.7933 14.3294 47.327 14.2197 47.327 14.2197L47.0092 14.1633L46.7579 14.1013C46.6122 14.0809 45.285 13.9738 43.7917 13.7401C40.403 13.2096 36.6391 12.6247 36.0735 12.5409C35.6932 12.4844 35.2882 12.4208 33.4646 12.1307L33 12.0567V18.0284ZM37.8246 13.7365L38.861 13.8979V14.9908V16.0837L37.7174 15.9982L36.5738 15.9127V16.6962V17.4798H37.7174H38.861V18.2279C38.861 19.0701 38.7775 19.1434 37.8129 19.1465C37.4852 19.1474 37.0723 19.186 36.8954 19.2319C36.5849 19.3126 36.5738 19.3724 36.5738 20.9463V22.5769L35.8233 22.672C35.4104 22.7243 34.928 22.8014 34.7512 22.8436L34.4295 22.9203V18.1422C34.4295 15.5143 34.4627 13.3319 34.5034 13.2925C34.544 13.2531 35.0747 13.3004 35.6828 13.398C36.2907 13.4954 37.2547 13.6477 37.8246 13.7365ZM57.7679 13.4913C57.6209 13.6725 56.2701 15.5059 55.124 17.0795L54.4557 17.9972L56.1504 20.3397C57.0825 21.628 57.8339 22.6939 57.8204 22.7083C57.8068 22.7227 57.0251 22.5454 56.0834 22.3143L54.3712 21.8941L53.7358 20.9107L53.1003 19.9272L52.8066 20.3212C52.6451 20.5379 52.3842 20.8591 52.227 21.035L51.9411 21.3547L50.9404 21.1244C50.39 20.9979 49.9202 20.8822 49.8963 20.8675C49.8724 20.8527 50.2311 20.2874 50.6932 19.6111C51.1554 18.9348 51.5837 18.299 51.645 18.198C51.7165 18.0802 51.4187 17.5222 50.8123 16.6384C50.2931 15.8816 49.8683 15.24 49.8683 15.2127C49.8683 15.1398 52.0165 14.6607 52.0656 14.7224C52.0884 14.7511 52.335 15.0696 52.6135 15.4303L53.1197 16.0861L53.817 15.0663L54.5142 14.0465L56.0152 13.6965C57.8222 13.2753 57.9557 13.2597 57.7679 13.4913ZM41.041 14.2391C41.2713 14.3022 41.2912 14.6037 41.2912 18.0326V21.7573L40.5694 21.9076C40.1724 21.9902 39.7865 22.0578 39.7117 22.0578C39.6289 22.0578 39.5758 20.4809 39.5758 18.0225V13.9871L40.1833 14.0788C40.5175 14.1293 40.9034 14.2015 41.041 14.2391ZM42.796 14.6206C42.9511 14.7266 43.5284 15.3789 44.0787 16.07C44.6291 16.7612 45.1277 17.3299 45.1866 17.3338C45.2455 17.3378 45.2938 16.8104 45.2938 16.1618C45.2938 14.8638 45.2825 14.8764 46.2766 15.0694L46.7233 15.1561V18.0347V20.9133L46.2587 21.0051C45.8333 21.0893 45.746 21.0415 45.2223 20.437C44.9079 20.0741 44.4756 19.588 44.2616 19.3568L43.8727 18.9364L43.8685 20.1393C43.8637 21.4894 44.002 21.3391 42.542 21.5829L42.0059 21.6726V18.0501C42.0059 14.6714 42.0231 14.4277 42.26 14.4277C42.3998 14.4277 42.6411 14.5145 42.796 14.6206Z" fill="#333333"/>
</svg>
