<svg width="95" height="35" viewBox="0 0 95 35" fill="none" xmlns="http://www.w3.org/2000/svg">
<rect width="95" height="35" rx="15" fill="#ECE4C0"/>
<path fill-rule="evenodd" clip-rule="evenodd" d="M27 18V25H29.9727H32.9455L32.9617 18L32.9779 11H29.9889H27V18ZM33.5725 18V25H33.9168H34.2611V18V11H33.9168H33.5725V18ZM34.9496 18V25H37.9229H40.8962V18V11H37.9229H34.9496V18ZM43.8382 14.6892V17.0541H44.1824H44.5267V15.9189V14.7838H45.3405H46.1542V14.4685V14.1532H45.3405H44.5267V13.5541V12.955H45.4656H46.4046V12.6396V12.3243H45.1214H43.8382V14.6892ZM67.374 13.1286V13.9329L66.7594 13.9327C66.185 13.9324 66.1249 13.9449 65.8427 14.1216C65.2621 14.4854 64.9981 15.2728 65.2102 16.008C65.2862 16.2711 65.389 16.4449 65.5869 16.6443C65.7456 16.8041 65.9596 16.9466 66.1002 16.9859C66.2327 17.023 66.7144 17.0535 67.1706 17.0537L68 17.0541V14.6892V12.3243H67.687H67.374V13.1286ZM47.8285 13.987C47.4497 14.1294 47.1772 14.3802 46.9961 14.753C46.845 15.0642 46.8299 15.1541 46.8555 15.5891C46.8876 16.1335 46.9868 16.3752 47.3138 16.7046C47.5926 16.9854 48.1081 17.1464 48.5737 17.0979C49.6107 16.9902 50.1985 16.0148 49.8793 14.9317C49.7781 14.5885 49.4709 14.2215 49.1402 14.0485C48.8715 13.908 48.1312 13.8733 47.8285 13.987ZM51.8103 14.0222C51.7022 14.0886 51.5949 14.1736 51.5718 14.2111C51.4978 14.3318 51.4122 14.2838 51.4122 14.1216C51.4122 13.9768 51.3892 13.964 51.1305 13.964H50.8489V15.509V17.0541H51.1305H51.4122V16.0746C51.4122 15.0177 51.4675 14.7583 51.7325 14.5713C51.9458 14.4208 52.2953 14.4422 52.558 14.6218L52.7824 14.7753L52.9477 14.4909C53.1067 14.2176 53.1087 14.203 52.9982 14.1147C52.8068 13.9616 52.6082 13.9009 52.3001 13.9012C52.1217 13.9013 51.9299 13.9487 51.8103 14.0222ZM59.4263 14.0007C59.0656 14.1584 58.9863 14.2664 58.9863 14.5998V14.9007L59.3425 14.6846C59.7844 14.4165 60.1445 14.3915 60.3525 14.6144C60.4385 14.7067 60.4885 14.8413 60.4885 14.9804C60.4885 15.1965 60.4811 15.2028 60.0637 15.3382C59.4557 15.5355 59.0794 15.7922 58.9877 16.0722C58.887 16.3795 58.9582 16.7532 59.1523 16.9368C59.2804 17.058 59.376 17.0852 59.6673 17.0836C59.9141 17.0822 60.0933 17.041 60.2452 16.9507L60.4655 16.8198L60.637 16.9685C60.7313 17.0502 60.8627 17.1171 60.929 17.1171C60.9952 17.1171 61.1626 17.0715 61.301 17.0156C61.5165 16.9288 61.5527 16.8871 61.5527 16.7251C61.5527 16.5699 61.5331 16.5441 61.4431 16.5813C61.1471 16.7037 61.1477 16.7056 61.1145 15.6036C61.0781 14.3924 61.0209 14.2187 60.594 14.0234C60.2768 13.8784 59.7306 13.8678 59.4263 14.0007ZM63.462 14.0002C63.3587 14.0545 63.225 14.1438 63.1646 14.1988C63.0627 14.2917 63.055 14.2869 63.055 14.1314C63.055 13.9725 63.039 13.964 62.742 13.964H62.429V15.509V17.0541H62.742H63.055V16.0104C63.055 14.8707 63.0993 14.6807 63.3975 14.5438C63.6397 14.4326 63.9377 14.4527 64.1504 14.5946C64.2537 14.6635 64.3565 14.7201 64.3789 14.7203C64.4565 14.7211 64.6888 14.2607 64.6553 14.1727C64.6053 14.0416 64.2228 13.9008 63.9177 13.9013C63.7702 13.9015 63.5652 13.9461 63.462 14.0002ZM53.6656 14.0028C53.6656 14.0438 54.5307 16.4239 54.706 16.8656C54.7839 17.0614 54.8385 17.1191 54.9324 17.1047C55.0281 17.0899 55.1472 16.8633 55.4559 16.1081C55.6758 15.5705 55.8784 15.0771 55.9062 15.0116C55.946 14.918 56.0079 15.0187 56.1969 15.4846C56.3291 15.8102 56.5371 16.312 56.6593 16.5997C56.9989 17.3993 57.0235 17.3761 57.6524 15.6667C57.9395 14.8863 58.1915 14.1823 58.2124 14.1023C58.249 13.9623 58.2381 13.9575 57.9198 13.9761L57.589 13.9955L57.2775 14.8941C57.1062 15.3884 56.9468 15.7928 56.9233 15.7928C56.8998 15.7928 56.715 15.3813 56.5127 14.8784C56.1517 13.9812 56.1412 13.964 55.9537 13.9647C55.7661 13.9655 55.7557 13.9827 55.387 14.9068C55.1805 15.4246 54.9942 15.8286 54.973 15.8047C54.9519 15.7808 54.7969 15.3571 54.6287 14.8631L54.3229 13.9648L53.9943 13.9644C53.8135 13.9642 53.6656 13.9814 53.6656 14.0028ZM48.9148 14.6116C49.193 14.7989 49.3464 15.1177 49.3464 15.509C49.3464 15.8746 49.2003 16.2031 48.9579 16.382C48.8576 16.456 48.6531 16.5181 48.4571 16.534C48.1853 16.556 48.0873 16.5343 47.9103 16.4131C47.6012 16.2014 47.4508 15.9083 47.4508 15.5178C47.4508 15.1627 47.5613 14.8912 47.7914 14.6814C47.9819 14.5077 48.0665 14.4794 48.414 14.4735C48.6154 14.47 48.7661 14.5115 48.9148 14.6116ZM67.2135 14.53L67.374 14.5914V15.5705V16.5495L66.9515 16.5494C66.4702 16.5494 66.1721 16.4283 65.9701 16.1508C65.8693 16.0123 65.8405 15.8782 65.8405 15.547C65.8405 15.1992 65.8684 15.0803 65.9931 14.8969C66.0771 14.7734 66.218 14.6273 66.3061 14.5721C66.4864 14.4593 66.9704 14.4369 67.2135 14.53ZM60.4885 16.0389V16.5372L60.2914 16.6064C60.0124 16.7044 59.7969 16.6924 59.6641 16.5713C59.5488 16.4662 59.5149 16.2094 59.5904 16.0115C59.6127 15.9527 59.8029 15.8248 60.0129 15.7273C60.2228 15.6297 60.4158 15.5478 60.4416 15.5452C60.4675 15.5426 60.4885 15.7648 60.4885 16.0389ZM43.8382 21.3166V23.6873L45.0431 23.6647C46.0277 23.6462 46.284 23.6225 46.4441 23.535C47.0722 23.1919 47.2654 22.3563 46.8727 21.6811C46.7584 21.4847 46.6319 21.372 46.4104 21.2697L46.1055 21.1287L46.2629 21.004C46.4716 20.8386 46.6522 20.4252 46.6522 20.1126C46.6522 19.8227 46.4818 19.4091 46.2923 19.2395C46.0385 19.0121 45.72 18.9516 44.7614 18.9487L43.8382 18.9459V21.3166ZM54.7924 21.3108V23.6757H55.1035H55.4147L55.4322 22.8601L55.4496 22.0445L56.1069 22.8588L56.7641 23.6732L57.1553 23.6744C57.3705 23.6751 57.5466 23.6606 57.5466 23.6423C57.5466 23.6238 57.2438 23.2537 56.8737 22.8197C56.5035 22.3857 56.1912 22.0029 56.1795 21.969C56.1678 21.9351 56.4002 21.618 56.6959 21.2642C56.9917 20.9104 57.2336 20.5988 57.2336 20.5718C57.2336 20.5447 57.0951 20.5225 56.9259 20.5225H56.6182L56.0339 21.2288L55.4496 21.9351L55.4328 20.4405L55.4161 18.9459H55.1042H54.7924V21.3108ZM45.5834 19.5834C45.6947 19.6225 45.8229 19.7323 45.8744 19.8325C45.9857 20.0494 45.9933 20.3942 45.8916 20.6189C45.7784 20.8692 45.5333 20.964 44.9993 20.964H44.5267V20.2387V19.5135H44.9556C45.1914 19.5135 45.4739 19.545 45.5834 19.5834ZM52.4303 20.521C52.3188 20.5476 52.1287 20.6454 52.0077 20.7383L51.7878 20.9073V20.7115C51.7878 20.5172 51.7854 20.5158 51.4905 20.5348L51.1931 20.5541L51.1764 22.1149L51.1596 23.6757H51.4737H51.7878V22.6604C51.7878 21.4934 51.8421 21.2944 52.2085 21.1192C52.3958 21.0297 52.4711 21.0244 52.6761 21.0862C52.8387 21.1353 52.9613 21.2275 53.0424 21.3615C53.1505 21.54 53.1644 21.6836 53.1646 22.6194L53.1649 23.6757H53.4826H53.8004L53.7799 22.4617C53.7608 21.3236 53.7505 21.2332 53.6156 21.0144C53.3686 20.6144 52.8843 20.4127 52.4303 20.521ZM48.1514 20.6691C47.8852 20.8107 47.8749 20.8272 47.8567 21.1421C47.8377 21.4692 47.8913 21.5446 48.0264 21.3808C48.0661 21.3326 48.2408 21.2315 48.4146 21.1562C48.6263 21.0644 48.7906 21.0325 48.9126 21.0595C49.1575 21.1137 49.3576 21.3796 49.334 21.6193C49.3165 21.7961 49.2829 21.8188 48.8159 21.9695C48.441 22.0905 48.25 22.1947 48.0492 22.3879C47.8047 22.623 47.7817 22.6719 47.7817 22.9571C47.7817 23.3282 47.9014 23.5273 48.2 23.653C48.4538 23.7599 48.7803 23.7175 49.0931 23.5372C49.2769 23.4313 49.319 23.4261 49.3748 23.5024C49.5544 23.7476 49.8446 23.7705 50.2386 23.5706C50.3688 23.5045 50.4107 23.4372 50.4107 23.2941V23.1049L50.2218 23.2033C50.073 23.2808 50.0272 23.2845 50.0061 23.2207C49.9914 23.1761 49.9697 22.6998 49.9579 22.1622C49.941 21.3974 49.9134 21.1415 49.8309 20.9862C49.5932 20.5384 48.7108 20.3719 48.1514 20.6691ZM45.7938 21.572C45.9227 21.5934 46.0958 21.6791 46.1785 21.7624C46.4748 22.0609 46.4394 22.6568 46.1099 22.9179C45.9705 23.0285 45.8566 23.045 45.2381 23.045H44.5267V22.2883V21.5315L45.0431 21.5322C45.3272 21.5326 45.665 21.5505 45.7938 21.572ZM49.3335 22.6509L49.3153 23.1396L49.0467 23.2332C48.8084 23.3162 48.7592 23.3159 48.6094 23.2312C48.5166 23.1787 48.4144 23.0607 48.3824 22.9692C48.299 22.7302 48.471 22.4988 48.8668 22.3175C49.0446 22.2361 49.2264 22.1678 49.2709 22.1658C49.3319 22.163 49.3473 22.2825 49.3335 22.6509Z" fill="#333333"/>
</svg>
