<svg width="95" height="35" viewBox="0 0 95 35" fill="none" xmlns="http://www.w3.org/2000/svg">
<rect width="95" height="35" rx="15" fill="#ECE4C0"/>
<path fill-rule="evenodd" clip-rule="evenodd" d="M33.2809 13.3929C33.2478 13.5802 33.1793 14.0045 33.1286 14.3357L33.0365 14.9381H33.5585C33.8874 14.9381 34.144 14.8773 34.2522 14.7736C34.4504 14.5834 34.4781 14.1939 34.3051 14.0281C34.2196 13.946 34.2196 13.8945 34.3051 13.8438C34.489 13.7348 34.4484 13.1886 34.251 13.116C34.156 13.081 33.9124 13.0524 33.7097 13.0524C33.379 13.0524 33.3349 13.0875 33.2809 13.3929ZM35.5425 13.1808C35.4795 13.2543 35.2944 13.5972 35.1311 13.9429C34.968 14.2886 34.7897 14.6658 34.7352 14.781C34.6552 14.9503 34.6707 14.9453 34.8165 14.7548C34.9559 14.5726 35.1055 14.5191 35.4753 14.5191C35.896 14.5191 35.9548 14.5475 35.9623 14.7548C35.967 14.8845 35.9954 14.9325 36.0254 14.8616C36.0751 14.7438 35.7815 13.1667 35.6944 13.0832C35.6739 13.0635 35.6055 13.1074 35.5425 13.1808ZM36.6867 13.3368C36.6534 13.4973 36.5912 13.9251 36.5485 14.2873L36.4709 14.9461L37.5497 14.9159L38.6286 14.8858L38.7043 14.3619C38.7459 14.0738 38.8086 13.6495 38.8436 13.4191C38.8844 13.1502 38.8715 13.0523 38.8078 13.1456C38.753 13.2258 38.6744 13.6382 38.6329 14.0623L38.5575 14.8334H38.0633C37.6059 14.8334 37.5735 14.8158 37.6288 14.5977C37.6617 14.468 37.7144 14.0555 37.7458 13.681L37.8029 13L37.6998 13.5762C37.4514 14.9648 37.5202 14.8334 37.0415 14.8334C36.5548 14.8334 36.5673 14.8716 36.7283 13.8763C36.8432 13.1665 36.8105 12.7421 36.6867 13.3368ZM39.5104 14.0106C39.2355 14.5496 39.0909 14.8845 39.1891 14.7548C39.3275 14.5723 39.4759 14.5191 39.8462 14.5191C40.2517 14.5191 40.3246 14.551 40.3246 14.7286C40.3246 14.8439 40.3673 14.9381 40.4194 14.9381C40.5143 14.9381 40.1873 13.2002 40.0716 13.0893C40.038 13.057 39.7854 13.4715 39.5104 14.0106ZM34.2968 13.4596C34.3413 13.7607 34.162 13.8867 33.6863 13.8889C33.4085 13.8902 33.3312 13.8467 33.3312 13.6896C33.3312 13.2614 33.4526 13.1448 33.8641 13.1778C34.1866 13.2037 34.2669 13.2559 34.2968 13.4596ZM35.7932 13.9167L35.8692 14.4143H35.4627C35.1814 14.4143 35.0729 14.374 35.1105 14.2834C35.5997 13.1046 35.6638 13.0701 35.7932 13.9167ZM40.2024 14.1262C40.2141 14.388 40.1803 14.4143 39.8329 14.4143C39.6225 14.4143 39.4504 14.3892 39.4504 14.3585C39.4504 14.3277 39.583 14.0567 39.7451 13.7561L40.0397 13.2095L40.1146 13.5238C40.1558 13.6967 40.1953 13.9678 40.2024 14.1262ZM34.1418 14.0589C34.3454 14.1338 34.3708 14.5281 34.1835 14.7077C34.1114 14.7768 33.8655 14.8334 33.6371 14.8334C33.2394 14.8334 33.2219 14.8187 33.2219 14.4842C33.2219 14.2921 33.2547 14.1035 33.2948 14.0651C33.3858 13.9779 33.9111 13.974 34.1418 14.0589ZM27.87 15.4741C27.721 15.531 27.3308 15.7719 27.0029 16.0093L26.4066 16.4409L26.878 16.8419L27.3493 17.243H26.7397C25.8664 17.243 25.0723 17.4309 24.5505 17.7611C23.9515 18.1402 23.2699 18.3888 22.4097 18.5421L21.7052 18.6676L23.2705 19.7446C24.1314 20.3371 24.8935 20.843 24.9642 20.8691C25.0349 20.8951 25.4462 20.7467 25.8784 20.5395C26.5184 20.2324 26.8312 19.9845 27.5663 19.2013C28.9446 17.733 29.4679 17.2766 30.1297 16.9661C30.6752 16.7102 30.7123 16.6726 30.4952 16.5957C30.3624 16.5486 29.9749 16.3007 29.6343 16.0448C28.7562 15.3853 28.4018 15.2707 27.87 15.4741ZM38.2742 15.5589C37.7147 15.695 37.063 16.1629 36.7283 16.6689C36.1162 17.5945 35.9901 19.4377 36.4864 20.2076C37.1168 21.1856 38.9709 21.2759 40.0321 20.3804C40.6841 19.8301 41.0029 19.1008 41.066 18.0156C41.1367 16.7994 40.8382 16.0868 40.1058 15.7238C39.719 15.532 38.7451 15.4443 38.2742 15.5589ZM55.7866 15.5599C54.4553 15.8707 53.7522 16.8878 53.6819 18.6049C53.6457 19.4859 53.6702 19.654 53.8943 20.0692C54.2578 20.7426 54.7115 20.9626 55.7319 20.96C56.6154 20.9578 57.0561 20.8032 57.6266 20.2954C58.4143 19.5942 58.7991 17.9382 58.4406 16.7912C58.1339 15.8099 56.9897 15.2792 55.7866 15.5599ZM33.1204 15.7503C32.4433 16.0812 32.3507 16.3119 32.0101 18.5143C31.8374 19.6301 31.6954 20.6255 31.6942 20.7264C31.6924 20.8824 31.798 20.9097 32.4024 20.9097C32.793 20.9097 33.1126 20.887 33.1126 20.8591C33.1126 20.4728 33.7059 17.0531 33.7897 16.9563C33.8677 16.8661 34.2447 16.8239 34.9703 16.8239C35.6921 16.8239 36.0714 16.7816 36.145 16.693C36.2049 16.621 36.2877 16.3381 36.3291 16.0644L36.4042 15.5667L34.9496 15.5669C33.7808 15.567 33.4214 15.6031 33.1204 15.7503ZM41.591 16.094C41.5509 16.384 41.5474 16.6669 41.5834 16.7226C41.6193 16.7783 41.9431 16.8239 42.3028 16.8239H42.957L42.8955 17.1644C42.7431 18.0084 42.4007 20.4224 42.4007 20.6536C42.4007 20.8983 42.4316 20.9097 43.0935 20.9097H43.7863L43.974 19.6264C44.0773 18.9206 44.2141 18.0012 44.278 17.5835L44.3942 16.8239H45.0848C45.4645 16.8239 45.8049 16.7779 45.8412 16.7217C45.8774 16.6654 45.9363 16.3825 45.9722 16.0931L46.0372 15.5667H43.8506H41.664L41.591 16.094ZM46.6623 15.6095C46.6623 15.6329 46.4905 16.8233 46.2803 18.2548C46.0702 19.6862 45.8981 20.8691 45.8979 20.8835C45.8977 20.898 46.2161 20.9097 46.6056 20.9097C47.2507 20.9097 47.3189 20.8887 47.3698 20.674C47.4528 20.324 48.0829 15.9809 48.0829 15.7582C48.0829 15.5924 47.9877 15.5667 47.3726 15.5667C46.982 15.5667 46.6623 15.5859 46.6623 15.6095ZM49.188 15.7096C49.0362 15.8849 48.3549 20.5145 48.447 20.7445C48.5022 20.8824 48.7328 20.9097 49.8425 20.9097C51.3662 20.9097 51.9022 20.7897 52.4037 20.3361C53.063 19.7401 53.1453 18.5468 52.5547 18.1502C52.3378 18.0045 52.3395 17.9972 52.6592 17.6907C53.3364 17.0415 53.167 15.9727 52.3444 15.7036C51.7868 15.5213 49.3471 15.5259 49.188 15.7096ZM59.4125 15.6453C59.2963 15.8372 59.0955 17.8742 59.1602 18.2047C59.2983 18.9106 59.9089 19.2335 61.1055 19.2335H61.8755L61.8142 19.574C61.7804 19.7612 61.7202 20.1385 61.6804 20.4121L61.6078 20.9097H62.3255H63.0432L63.105 20.5692C63.1906 20.098 63.818 15.7798 63.818 15.6623C63.818 15.6097 63.4984 15.5667 63.1078 15.5667C62.7171 15.5667 62.3975 15.5906 62.3975 15.6198C62.3975 15.82 62.0536 17.8117 62.0064 17.885C61.9224 18.0153 61.1142 17.998 60.8457 17.8602C60.6339 17.7516 60.6242 17.6852 60.6931 16.8111C60.7335 16.2979 60.7946 15.8079 60.8288 15.7223C60.8799 15.5945 60.7636 15.5667 60.1756 15.5667C59.7821 15.5667 59.4386 15.602 59.4125 15.6453ZM64.6922 15.6095C64.6922 15.6329 64.5203 16.8233 64.3102 18.2548C64.1001 19.6862 63.928 20.8713 63.9278 20.8884C63.9275 20.9053 64.2593 20.9053 64.6649 20.8884L65.4025 20.8573L65.5579 19.7311L65.7133 18.6049L66.1042 18.6065C66.7622 18.6092 66.9227 18.8252 67.0369 19.8621C67.1566 20.9489 67.1235 20.9097 67.9231 20.9097C68.745 20.9097 68.7158 20.9859 68.4623 19.5034C68.3358 18.7628 68.243 18.5087 68.0162 18.2817C67.7348 18.0002 67.7336 17.993 67.9509 17.8815C68.1759 17.7661 68.5466 17.1095 68.9473 16.1167L69.1692 15.5667H68.4231H67.6771L67.3789 16.2954C66.9679 17.2996 66.7384 17.5573 66.2548 17.5573C65.8671 17.5573 65.8665 17.5564 65.9313 17.1644C65.967 16.9484 66.0293 16.5005 66.0696 16.1691L66.1428 15.5667H65.4176C65.0186 15.5667 64.6922 15.5859 64.6922 15.6095ZM71.4378 15.6977C71.2886 15.806 69.2101 20.0913 69.0022 20.7189C68.9455 20.8904 69.0124 20.9097 69.6628 20.9097H70.3865L70.6154 20.3816L70.8443 19.8535L71.6201 19.884L72.3959 19.9145L72.4505 20.3859L72.5052 20.8573L73.2526 20.8886L74 20.9197L73.9379 20.6267C73.9037 20.4654 73.701 19.3229 73.4874 18.0877C73.2738 16.8524 73.0454 15.7799 72.9799 15.7043C72.8261 15.5265 71.6802 15.5217 71.4378 15.6977ZM20 15.771C20 15.8258 20.0617 15.9083 20.1371 15.9544C20.2125 16.0005 20.6611 16.4507 21.134 16.9549C21.8193 17.6855 22.0547 17.8716 22.2945 17.8716C22.7217 17.8716 23.2782 17.7543 23.2782 17.6643C23.2782 17.6224 22.8864 17.1867 22.4077 16.6961C21.929 16.2055 21.5684 15.7743 21.6064 15.7378C21.6444 15.7014 21.2985 15.6715 20.8378 15.6715C20.377 15.6715 20 15.7163 20 15.771ZM39.2914 16.9763C39.509 17.1848 39.5596 17.3384 39.559 17.7883C39.5579 18.8442 39.1783 19.5706 38.5544 19.711C38.3249 19.7627 38.1949 19.7155 37.9688 19.4988C37.7004 19.2415 37.6816 19.1666 37.7227 18.5196C37.7745 17.7044 38.049 17.0876 38.454 16.8766C38.8554 16.6675 38.9855 16.6829 39.2914 16.9763ZM56.7749 16.9763C57.078 17.2669 57.1317 17.8609 56.9257 18.6452C56.7447 19.3346 56.392 19.6945 55.8977 19.6945C55.3359 19.6945 55.1856 19.4649 55.1856 18.6071C55.1856 17.8032 55.5087 17.0618 55.9505 16.852C56.341 16.6664 56.4726 16.6864 56.7749 16.9763ZM51.5567 17.047C51.6148 17.3403 51.2728 17.5573 50.7523 17.5573C50.2491 17.5573 50.2111 17.511 50.3386 17.0546C50.3992 16.8376 50.4609 16.817 50.9644 16.8451C51.3768 16.8681 51.5317 16.9209 51.5567 17.047ZM72.154 17.8977L72.2152 18.7097H71.7865C71.5507 18.7097 71.3578 18.6943 71.3578 18.6753C71.3578 18.6565 71.4734 18.3619 71.6147 18.0205C71.7561 17.6793 71.9047 17.3109 71.9451 17.2018C72.0555 16.9038 72.0871 17.0092 72.154 17.8977ZM51.4489 19.037C51.5008 19.4656 51.2184 19.6526 50.5201 19.6526H49.9132L49.9815 19.3252C50.0191 19.1451 50.0498 18.9307 50.0498 18.8487C50.0498 18.7324 50.1997 18.7065 50.7327 18.7308C51.3789 18.7604 51.4174 18.7769 51.4489 19.037Z" fill="#333333"/>
</svg>
