<svg width="95" height="35" viewBox="0 0 95 35" fill="none" xmlns="http://www.w3.org/2000/svg">
<rect width="95" height="35" rx="15" fill="#ECE4C0"/>
<path fill-rule="evenodd" clip-rule="evenodd" d="M34.705 9.0416C34.7456 9.11053 36.2286 10.3794 36.6511 10.7066C36.7943 10.8176 37.0259 11.0128 37.1655 11.1404C37.3052 11.268 37.4449 11.391 37.4759 11.4137C37.5956 11.5013 38.0416 11.8678 38.0684 11.9006C38.084 11.9196 38.3252 12.1187 38.6045 12.3431C38.8839 12.5675 39.2896 12.8997 39.5061 13.0813C39.7227 13.263 40.0199 13.505 40.1668 13.6192C40.3136 13.7334 40.6544 14.0123 40.9241 14.239C41.479 14.7054 41.4238 14.6883 42.85 14.8327C43.7305 14.9218 44.6001 14.9088 45.207 14.7974C45.3932 14.7632 45.6725 14.7133 45.8277 14.6866C46.2911 14.6068 46.8528 14.4273 48.4209 13.8579C48.6056 13.7909 48.7815 13.7446 48.8116 13.7551C48.9087 13.7892 48.1625 14.2673 47.3987 14.6605C46.9902 14.8708 46.628 15.0429 46.5938 15.0429C46.5596 15.0429 46.4874 15.0689 46.4336 15.1007C46.27 15.1972 45.5149 15.443 45.0659 15.5459C44.8331 15.5993 44.5538 15.6662 44.4451 15.6944C44.3365 15.7227 44.0034 15.7641 43.7049 15.7864C43.4064 15.8087 43.1302 15.8478 43.0911 15.8732C43.0519 15.8987 43.0369 15.9482 43.0576 15.9835C43.0783 16.0188 43.4511 16.3087 43.8861 16.6278C44.3211 16.947 44.885 17.3633 45.1395 17.553C45.3939 17.7427 45.7417 17.9982 45.9124 18.1207C46.0831 18.2431 46.4513 18.5134 46.7306 18.7213C47.0099 18.9291 47.5178 19.3021 47.8592 19.5501C48.2006 19.7981 48.5917 20.0867 48.7283 20.1914C48.8648 20.2961 49.0108 20.3818 49.0525 20.3818C49.127 20.3818 49.6721 20.1994 50.0009 20.0645C50.0925 20.0269 50.429 19.8585 50.7488 19.6902C51.3521 19.3727 51.9059 18.9772 52.4866 18.4491C52.8854 18.0864 54.145 16.7523 54.3305 16.4963C54.6421 16.066 55.6558 14.9022 56.2184 14.3289C56.8408 13.6946 57.2815 13.3178 57.7911 12.9838C58.1595 12.7424 58.902 12.3575 59.2583 12.2234C59.4135 12.165 59.5763 12.0828 59.6201 12.0408C59.6874 11.9762 59.6743 11.9537 59.5355 11.8954C58.8252 11.597 58.519 11.4212 58.1246 11.085C56.6432 9.82245 56.2472 9.58154 55.4695 9.4696C54.8892 9.38608 54.6272 9.44297 53.9467 9.8002C53.4554 10.0581 53.0084 10.3881 52.1286 11.1425C51.9098 11.3302 51.6826 11.4836 51.6237 11.4836C51.5648 11.4836 51.3159 11.315 51.0705 11.109C50.5005 10.6304 50.1795 10.4016 49.8622 10.2478C49.2609 9.95633 48.8162 9.82268 48.2228 9.75506C47.7491 9.70102 47.3978 9.70072 46.7164 9.75369C43.7016 9.98795 41.7853 10.0438 40.1282 9.94572C38.4776 9.84801 37.7437 9.75618 36.9963 9.55396C36.8256 9.50781 36.3304 9.37368 35.8958 9.25599C34.9803 9.00797 34.6503 8.94859 34.705 9.0416ZM35.1199 20.6064C34.8722 20.6241 34.8515 20.6377 34.8475 20.7855C34.8452 20.8734 34.8314 20.9987 34.8169 21.064C34.8025 21.1292 34.7756 21.3495 34.7571 21.5534L34.7236 21.9241H35.0442C35.313 21.9241 35.3883 21.8996 35.5094 21.7723C35.622 21.6539 35.6455 21.5853 35.616 21.4608C35.5772 21.2969 35.5762 21.2652 35.5999 20.9238C35.6175 20.669 35.4835 20.5803 35.1199 20.6064ZM36.4137 20.7261C36.3617 20.7866 36.3191 20.8554 36.3191 20.879C36.3191 20.9026 36.2167 21.1376 36.0915 21.4013C35.8565 21.8964 35.8411 22.0762 36.0582 21.7907C36.1582 21.6592 36.2283 21.6275 36.42 21.6275C36.6177 21.6275 36.6577 21.6469 36.6577 21.7427C36.6577 21.8604 36.7533 21.9621 36.809 21.9034C36.8261 21.8855 36.809 21.7026 36.7711 21.4971C36.7332 21.2915 36.6858 21.0187 36.6658 20.8908C36.6458 20.763 36.6022 20.6489 36.5689 20.6373C36.5356 20.6257 36.4657 20.6656 36.4137 20.7261ZM37.2861 20.9305C37.2548 21.1018 37.2131 21.3954 37.1934 21.5831L37.1574 21.9241H37.8367C38.4259 21.9241 38.5229 21.9104 38.5686 21.8203C38.6454 21.6693 38.7463 20.7168 38.6918 20.6584C38.618 20.5793 38.5779 20.7004 38.5441 21.1034C38.4953 21.6863 38.4803 21.729 38.3125 21.7627C38.0265 21.8202 37.9999 21.7734 38.0432 21.2881C38.0649 21.0449 38.0858 20.8045 38.0897 20.7537C38.0935 20.703 38.0683 20.6509 38.0337 20.638C37.9736 20.6156 37.9462 20.7473 37.8616 21.4644C37.8433 21.6194 37.7998 21.7465 37.765 21.747C37.7301 21.7474 37.6509 21.7611 37.5888 21.7774C37.5267 21.7937 37.443 21.7844 37.4028 21.7566C37.345 21.7167 37.3421 21.6207 37.3891 21.2961C37.4219 21.0706 37.4615 20.826 37.4774 20.7526C37.4971 20.6616 37.4803 20.6191 37.4246 20.6191C37.3708 20.6191 37.3234 20.7257 37.2861 20.9305ZM39.4127 20.7526C39.2418 21.0761 38.9221 21.8329 38.9458 21.8577C38.9601 21.8728 39.0305 21.8271 39.1021 21.7563C39.1865 21.673 39.3048 21.6275 39.4372 21.6275C39.5498 21.6275 39.6575 21.6542 39.6767 21.6869C39.6959 21.7195 39.7381 21.7462 39.7704 21.7462C39.8275 21.7462 39.8173 21.5626 39.7291 21.0047C39.6909 20.7635 39.6166 20.6191 39.5307 20.6191C39.5046 20.6191 39.4515 20.6791 39.4127 20.7526ZM35.4303 20.7894C35.4971 20.8015 35.4796 21.0032 35.4049 21.0818C35.3112 21.1803 35.0243 21.1712 34.9869 21.0686C34.9699 21.0222 34.9816 20.9342 35.0127 20.873C35.0627 20.7748 35.1988 20.7476 35.4303 20.7894ZM36.5657 21.0492C36.5844 21.1226 36.6001 21.2427 36.6004 21.3161C36.6011 21.425 36.5701 21.4496 36.4319 21.4496C36.3388 21.4496 36.2627 21.4368 36.2627 21.4211C36.2627 21.3375 36.4507 20.9157 36.4879 20.9157C36.512 20.9157 36.5469 20.9757 36.5657 21.0492ZM39.5921 21.1233C39.5921 21.2375 39.5929 21.3509 39.5938 21.3754C39.5948 21.3999 39.5313 21.4283 39.4528 21.4387C39.3742 21.449 39.3099 21.4323 39.3099 21.4015C39.3099 21.2864 39.4828 20.9157 39.5364 20.9157C39.567 20.9157 39.5921 21.0091 39.5921 21.1233ZM35.4384 21.4051C35.5389 21.5739 35.4134 21.7136 35.1424 21.7347C34.9105 21.7528 34.9083 21.7511 34.9083 21.5518C34.9083 21.4412 34.9264 21.3316 34.9486 21.3083C35.0231 21.23 35.3756 21.2996 35.4384 21.4051ZM34.8524 22.5346C34.4223 22.757 34.3259 23.0055 34.1689 24.2965C34.1392 24.5415 34.0829 24.9897 34.0438 25.2926C34.0048 25.5955 33.9888 25.8705 34.0083 25.9036C34.0285 25.9379 34.2116 25.9562 34.4335 25.9461L34.8233 25.9283L34.983 24.7122C35.0709 24.0426 35.1788 23.437 35.2232 23.3645C35.2985 23.2413 35.3506 23.2316 36.0228 23.2162L36.7418 23.1996L36.7882 22.8496C36.8236 22.5824 36.817 22.4879 36.7603 22.4501C36.7193 22.4229 36.3304 22.4012 35.8958 22.4021C35.1968 22.4034 35.0766 22.4187 34.8524 22.5346ZM37.7473 22.5252C37.4051 22.6998 37.035 23.1437 36.8859 23.5585C36.7905 23.824 36.757 24.051 36.7507 24.475C36.7455 24.8216 36.7719 25.1267 36.8193 25.2674C36.9183 25.5621 37.2455 25.8856 37.5013 25.9417C37.6115 25.9658 37.8921 25.9839 38.1249 25.9817C38.653 25.9767 38.8832 25.8685 39.2398 25.4577C39.6062 25.0354 39.7198 24.6766 39.727 23.9189C39.7315 23.4334 39.7113 23.2731 39.6219 23.0829C39.4892 22.8007 39.371 22.67 39.1085 22.515C38.9556 22.4248 38.8076 22.3994 38.4477 22.4017C38.1007 22.4039 37.9241 22.435 37.7473 22.5252ZM40.1773 22.4435C40.1422 22.4678 40.0953 22.6546 40.073 22.8585L40.0325 23.2292H40.4612C40.7941 23.2292 40.89 23.2481 40.89 23.3135C40.89 23.3598 40.8132 23.9397 40.7195 24.6021C40.6257 25.2645 40.5615 25.8406 40.5766 25.8822C40.614 25.9846 41.3065 25.9859 41.3838 25.8838C41.4147 25.8431 41.4559 25.6762 41.4754 25.5131C41.4949 25.3499 41.5339 25.043 41.5621 24.8309C41.5904 24.6188 41.6417 24.2317 41.6762 23.9707C41.7831 23.1628 41.7353 23.2292 42.2103 23.2292C42.5 23.2292 42.6456 23.2038 42.692 23.145C42.7303 23.0966 42.7511 22.9268 42.7412 22.7446L42.724 22.4284L41.4825 22.4138C40.7997 22.4058 40.2124 22.4192 40.1773 22.4435ZM43.2364 22.4701C43.1889 22.6352 43.0884 23.2912 43.0065 23.9707C42.9593 24.3622 42.8963 24.8561 42.8664 25.0682C42.8366 25.2802 42.805 25.5605 42.7963 25.691L42.7804 25.9283H43.2006H43.6207L43.8115 24.5639C43.9164 23.8135 44.0067 23.026 44.0121 22.814L44.0219 22.4284L43.6402 22.4108C43.365 22.3982 43.2524 22.4147 43.2364 22.4701ZM44.7712 22.5025C44.7236 22.5596 44.6689 22.7398 44.6496 22.9029C44.5837 23.4585 44.5549 23.6739 44.4743 24.208C44.3149 25.2659 44.2601 25.7698 44.2941 25.8631C44.3239 25.9446 44.4542 25.9578 45.2193 25.9567C45.9934 25.9556 46.143 25.9395 46.3638 25.8344C46.678 25.6846 46.851 25.5187 46.99 25.2337C47.1683 24.8682 47.1151 24.4487 46.8505 24.1332L46.7379 23.999L46.9318 23.7888C47.108 23.5977 47.1256 23.5468 47.1256 23.2298C47.1256 22.9273 47.1043 22.8577 46.965 22.7048C46.8738 22.6048 46.6982 22.5005 46.5591 22.4636C46.4242 22.4279 45.9862 22.3987 45.5857 22.3987C44.9629 22.3987 44.8452 22.4137 44.7712 22.5025ZM48.5216 22.5273C48.186 22.6983 47.8153 23.1536 47.663 23.5815C47.5623 23.8645 47.5363 24.0579 47.5386 24.5061C47.5402 24.8178 47.5704 25.1646 47.6056 25.2767C47.6408 25.3889 47.7833 25.5859 47.9224 25.7145C48.1515 25.9266 48.213 25.9521 48.5815 25.9875C49.0467 26.0321 49.4416 25.9567 49.7091 25.7719C49.9564 25.6011 50.2556 25.1957 50.3895 24.85C50.4749 24.6296 50.5016 24.4131 50.5059 23.907C50.5113 23.2755 50.5049 23.2387 50.3422 22.9623C50.2272 22.7671 50.0914 22.631 49.919 22.5384C49.7157 22.4293 49.5749 22.4023 49.2136 22.4033C48.8743 22.4043 48.7024 22.4351 48.5216 22.5273ZM51.1179 22.4703C51.0435 22.5647 50.9424 23.1557 50.9322 23.5555C50.9131 24.308 50.9234 24.3608 51.1305 24.5661C51.2882 24.7224 51.4035 24.7739 51.7227 24.8305C51.9406 24.8691 52.2239 24.8821 52.3523 24.8594L52.5857 24.8179L52.5407 25.2248C52.4569 25.9833 52.4292 25.9258 52.8889 25.9456L53.2912 25.9629L53.3544 25.5748C53.4417 25.0397 53.5094 24.567 53.6181 23.7334C53.6692 23.3419 53.7305 22.9099 53.7542 22.7733C53.7815 22.6165 53.7753 22.5018 53.7374 22.4619C53.7043 22.4271 53.5427 22.3987 53.3782 22.3987C52.9957 22.3987 52.8553 22.5286 52.8489 22.8881C52.8465 23.0268 52.8134 23.3266 52.7754 23.5544L52.7064 23.9685L52.4739 24.0102C52.1639 24.0659 51.9399 23.9952 51.8413 23.8109C51.7728 23.6826 51.7715 23.5971 51.8327 23.2515C51.8725 23.0272 51.8962 22.7502 51.8854 22.636L51.8658 22.4284L51.5221 22.4109C51.292 22.3993 51.1584 22.4189 51.1179 22.4703ZM54.3854 22.4771C54.3513 22.5202 54.2955 22.7804 54.2613 23.0555C54.227 23.3305 54.1787 23.7023 54.1539 23.8817C54.1292 24.0612 54.0791 24.4349 54.0427 24.7122C54.0063 24.9896 53.949 25.3535 53.9154 25.521C53.8818 25.6884 53.8718 25.8552 53.8932 25.8917C53.9159 25.9302 54.0957 25.958 54.3219 25.958C54.6495 25.958 54.721 25.9397 54.77 25.8433C54.8022 25.7801 54.8296 25.6133 54.8311 25.4725C54.8325 25.3317 54.8643 25.043 54.9018 24.8309L54.9699 24.4453L55.1998 24.4276C55.3599 24.4152 55.4696 24.4436 55.5604 24.5209C55.6688 24.6132 55.7066 24.7418 55.7833 25.2802L55.8756 25.9283L56.3194 25.9458L56.7633 25.9633L56.728 25.6196C56.7087 25.4305 56.6591 25.0823 56.6178 24.8458C56.5611 24.5212 56.5036 24.3729 56.3834 24.2411L56.2241 24.0663L56.4506 23.7958C56.5769 23.645 56.7339 23.3614 56.8055 23.1548C56.8762 22.9511 56.9554 22.7589 56.9816 22.7279C57.0078 22.6969 57.0293 22.6102 57.0293 22.5352C57.0293 22.4078 57.0065 22.3987 56.687 22.3987C56.4987 22.3987 56.298 22.425 56.2409 22.4571C56.1838 22.4892 56.0666 22.7095 55.9806 22.9465C55.8945 23.1836 55.7639 23.4642 55.6902 23.5703C55.5783 23.7315 55.5198 23.7631 55.3335 23.7631H55.1106L55.1154 23.511C55.118 23.3724 55.1399 23.0987 55.164 22.9029C55.1908 22.6856 55.1863 22.5181 55.1524 22.4729C55.0763 22.3714 54.4662 22.3748 54.3854 22.4771ZM58.5661 22.4716C58.4905 22.5098 58.3607 22.7084 58.2487 22.9569C57.8209 23.9062 57.65 24.2972 57.65 24.3264C57.65 24.3434 57.5103 24.665 57.3396 25.0411C57.1689 25.4173 57.0293 25.7774 57.0293 25.8415C57.0293 25.9461 57.0693 25.958 57.4233 25.958H57.8174L57.9668 25.6466C58.049 25.4753 58.1447 25.3155 58.1794 25.2915C58.2557 25.2388 58.9028 25.2317 59.0279 25.2821C59.0856 25.3054 59.1172 25.3909 59.1172 25.5233C59.1172 25.6362 59.1435 25.7801 59.1756 25.8433C59.2242 25.9386 59.2959 25.958 59.6007 25.958C59.851 25.958 59.9762 25.9333 59.9956 25.8802C60.0112 25.8374 59.9837 25.5505 59.9345 25.2425C59.8852 24.9345 59.8229 24.5358 59.796 24.3563C59.769 24.1769 59.7049 23.7898 59.6536 23.4962C59.6022 23.2025 59.5464 22.865 59.5296 22.7462C59.5079 22.5929 59.4591 22.511 59.3619 22.4644C59.1896 22.3819 58.735 22.386 58.5661 22.4716ZM38.6102 23.2746C38.7427 23.3676 38.802 23.5943 38.802 24.0074C38.802 24.3223 38.7705 24.506 38.6843 24.6933C38.6195 24.834 38.5018 25.0026 38.4227 25.0679C38.2261 25.2305 37.9819 25.2199 37.812 25.0412C37.6918 24.9149 37.6734 24.8416 37.6734 24.4882C37.6734 23.9813 37.8015 23.5729 38.0214 23.3783C38.187 23.2318 38.4766 23.1808 38.6102 23.2746ZM46.1602 23.3627C46.2052 23.4381 46.2052 23.4949 46.1601 23.5703C46.1156 23.645 46.0088 23.6791 45.7795 23.6919C45.4738 23.709 45.4609 23.7038 45.4609 23.5633C45.4609 23.2674 45.5105 23.2222 45.8148 23.2412C46.0103 23.2534 46.1175 23.2911 46.1602 23.3627ZM49.4341 23.3069C49.5544 23.3993 49.6434 23.8285 49.6025 24.119C49.5365 24.5877 49.4352 24.8483 49.2539 25.0157C49.0328 25.2198 48.809 25.2363 48.6004 25.0638C48.4624 24.9497 48.4518 24.9076 48.4518 24.4756C48.4518 23.9385 48.5771 23.5581 48.8205 23.3569C48.9939 23.2134 49.282 23.1899 49.4341 23.3069ZM58.912 23.8011C58.9318 23.9524 58.9479 24.1793 58.9479 24.3053C58.9479 24.5329 58.9466 24.5343 58.7222 24.5343C58.5876 24.5343 58.4965 24.5063 58.4965 24.4649C58.4965 24.3555 58.8001 23.5258 58.8401 23.5258C58.8599 23.5258 58.8923 23.6497 58.912 23.8011ZM46.0704 24.5461C46.1672 24.6479 46.1539 24.8921 46.0447 25.019C45.9727 25.1026 45.8683 25.1275 45.5898 25.1275H45.2282L45.2671 24.8457C45.2885 24.6907 45.317 24.5439 45.3303 24.5194C45.3703 24.4465 45.9971 24.4691 46.0704 24.5461Z" fill="#333333"/>
</svg>
