<svg width="95" height="35" viewBox="0 0 95 35" fill="none" xmlns="http://www.w3.org/2000/svg">
<rect width="95" height="35" rx="15" fill="#ECE4C0"/>
<path fill-rule="evenodd" clip-rule="evenodd" d="M19.5494 12.0498C17.5767 12.545 17.4545 15.2724 19.3739 15.9649C19.7055 16.0846 20.3445 16.0846 20.6761 15.9649C21.5479 15.6504 22.0375 14.9562 22.0383 14.0335C22.0391 13.1098 21.5446 12.4093 20.6761 12.1041C20.3995 12.0069 19.8297 11.9794 19.5494 12.0498ZM24.4415 12.0666C22.9278 12.4599 22.4188 14.3695 23.534 15.4712C24.819 16.7407 26.9973 15.8364 26.9973 14.0335C26.9973 12.7053 25.7316 11.7313 24.4415 12.0666ZM28.7685 16.5004V20.844H29.6382H30.508V16.5004V12.1568H29.6382H28.7685V16.5004ZM35.7571 13.9252V15.6936L35.4443 15.3819C34.9575 14.8968 34.5875 14.7503 33.8497 14.7503C33.2531 14.7503 32.8903 14.8563 32.4122 15.1705C30.7903 16.2361 30.668 19.077 32.1886 20.3649C32.7135 20.8095 33.1762 20.9769 33.8802 20.9769C34.7241 20.9769 35.25 20.7331 35.7341 20.1175L35.8175 20.0116L35.8178 20.4278L35.8181 20.844H36.6269H37.4356V16.5004V12.1568H36.5963H35.7571V13.9252ZM51.718 16.5007V20.8485L53.572 20.8352C55.6225 20.8206 55.6601 20.8175 56.2206 20.6188C57.3637 20.2136 58.0064 19.2182 57.8828 18.0441C57.8007 17.2647 57.3265 16.6232 56.6513 16.3784L56.4728 16.3136L56.7007 16.1727C57.3134 15.794 57.6127 15.2456 57.6127 14.5019C57.6127 13.3101 56.9475 12.5229 55.7007 12.2391C55.4428 12.1803 55.3124 12.1758 53.572 12.1647L51.718 12.153V16.5007ZM70.5477 16.5004V20.8449L71.3793 20.8369L72.2109 20.8288L72.2189 19.3912L72.2268 17.9537L73.1006 19.3988L73.9744 20.844H74.9957C75.9153 20.844 76.0151 20.8392 75.9984 20.796C75.9882 20.7696 75.5268 20.0346 74.9731 19.1626L73.9663 17.5773L74.9518 16.2518L75.9373 14.9264L74.9938 14.9028C74.3448 14.8866 74.0383 14.8892 74.0117 14.9111C73.9904 14.9286 73.5834 15.5088 73.1072 16.2003L72.2415 17.4576L72.2262 14.8148L72.2109 12.1719L71.3793 12.1639L70.5477 12.1558V16.5004ZM54.9368 13.6717C55.5619 13.7613 55.8532 14.0736 55.8532 14.654C55.8532 15.1035 55.7119 15.3497 55.3492 15.532C55.0626 15.6761 54.9029 15.6982 54.1531 15.6982H53.4576V14.6691V13.64L54.0908 13.6406C54.4391 13.6409 54.8198 13.6549 54.9368 13.6717ZM40.5027 14.7638C38.9029 14.962 37.9375 16.1417 37.9422 17.8927C37.9448 18.859 38.1692 19.49 38.7302 20.1085C39.7988 21.2867 42.1471 21.2961 43.2689 20.1267C43.5317 19.8528 43.8956 19.2202 43.8287 19.1534C43.8179 19.1426 43.4525 19.1063 43.0166 19.0727L42.2243 19.0115L42.1314 19.155C41.7032 19.8168 40.6531 19.9024 40.0985 19.3207C39.8835 19.0953 39.6688 18.6328 39.6639 18.3846C39.6636 18.3721 40.5128 18.3619 41.5508 18.3619C42.5889 18.3619 43.564 18.3531 43.7176 18.3422L43.997 18.3226L43.9964 17.9412C43.993 15.8316 42.5412 14.5112 40.5027 14.7638ZM46.8113 14.7599C46.0529 14.8391 45.3883 15.1607 44.9919 15.6405C44.766 15.9137 44.5463 16.4621 44.5463 16.7525V16.8495L45.347 16.8414L46.1478 16.8333L46.1686 16.6887C46.2429 16.1734 46.7774 15.8866 47.498 15.9753C48.1023 16.0497 48.3916 16.3813 48.3916 16.9995V17.2607L47.5394 17.3127C45.9081 17.4122 45.3323 17.5608 44.8334 18.0106C44.3283 18.4662 44.2017 19.3302 44.5389 20.0214C45.1123 21.1971 47.245 21.3405 48.2893 20.2736L48.4831 20.0756V20.4598V20.844H49.2954H50.1077L50.0847 20.7607C50.0721 20.715 50.0522 19.7036 50.0405 18.5133C50.0171 16.1281 50.022 16.1889 49.8188 15.8106C49.4111 15.052 48.1693 14.6182 46.8113 14.7599ZM60.5683 14.7641C59.6299 14.8597 58.854 15.3246 58.5244 15.9887C58.4212 16.1967 58.31 16.5902 58.31 16.7474V16.8485H59.1013H59.8926L59.9266 16.6858C60.0265 16.2086 60.3943 15.9664 61.0178 15.967C61.7882 15.9678 62.1552 16.3004 62.1552 16.9979V17.2614L61.267 17.3142C59.9595 17.3919 59.5754 17.461 59.0508 17.7128C58.3952 18.0275 58.1284 18.4559 58.1273 19.1955C58.1257 20.3081 58.9079 20.9803 60.2021 20.9784C61.0043 20.9773 61.5061 20.7947 61.9797 20.3317L62.2468 20.0706V20.4573V20.844H63.0588H63.8709L63.8534 20.7749C63.7912 20.5291 63.7732 19.9703 63.7729 18.2802C63.7728 17.0235 63.7615 16.3441 63.739 16.237C63.5216 15.2031 62.2153 14.5963 60.5683 14.7641ZM67.4816 14.7613C66.929 14.8473 66.5424 15.0743 66.18 15.5258L66.0634 15.6711L66.0548 15.2836L66.0463 14.8961H65.2528H64.4593L64.4516 17.87L64.4438 20.844H65.2832H66.1226L66.1236 19.0808C66.125 16.8924 66.1459 16.7464 66.5122 16.3726C66.9472 15.9287 67.8093 16.0408 68.0829 16.5769C68.2218 16.8492 68.2283 16.9555 68.2283 18.9563V20.844H69.0676H69.9068V18.7234C69.9068 16.1585 69.8956 16.058 69.5496 15.5388C69.1632 14.9588 68.2993 14.6341 67.4816 14.7613ZM41.5327 16.1292C41.9223 16.3075 42.3185 16.8717 42.3185 17.2483C42.3185 17.2615 41.7214 17.2722 40.9917 17.2722H39.6649L39.6843 17.1739C39.796 16.6048 40.1303 16.2197 40.64 16.0729C40.8744 16.0054 41.324 16.0337 41.5327 16.1292ZM34.7496 16.2333C36.1524 16.6181 36.1543 19.1785 34.7521 19.5851C33.7012 19.8899 32.7953 19.0188 32.8669 17.7722C32.9332 16.6191 33.743 15.9571 34.7496 16.2333ZM19.5494 16.9836C17.5767 17.4788 17.4545 20.2062 19.3739 20.8987C19.7055 21.0184 20.3445 21.0184 20.6761 20.8987C21.5471 20.5845 22.0379 19.8883 22.0379 18.9673C22.0379 18.0447 21.5422 17.3423 20.6761 17.0379C20.3995 16.9407 19.8297 16.9132 19.5494 16.9836ZM24.4398 16.999C22.9111 17.4082 22.4194 19.2987 23.5499 20.4203C24.8152 21.6756 26.9973 20.7559 26.9973 18.9673C26.9973 17.6433 25.7163 16.6574 24.4398 16.999ZM55.2124 17.1924C55.4582 17.2576 55.6668 17.379 55.8162 17.5439C56.1744 17.939 56.1582 18.6195 55.7817 18.9929C55.4974 19.2748 55.2416 19.3305 54.2309 19.3305H53.4576V18.2408V17.1512L54.2587 17.1515C54.8301 17.1518 55.1035 17.1635 55.2124 17.1924ZM48.4145 18.6278C48.3951 19.0445 48.359 19.1494 48.164 19.3562C47.6503 19.901 46.4112 19.9304 46.1111 19.4049C45.9375 19.1008 46.0615 18.7052 46.3817 18.5418C46.5687 18.4464 47.6624 18.2951 48.3121 18.2748L48.4311 18.2711L48.4145 18.6278ZM62.1552 18.6347C62.1552 18.9403 62.1451 19.0197 62.0915 19.1327C61.8705 19.599 61.0893 19.8846 60.4213 19.7434C60.0062 19.6556 59.8295 19.4829 59.8103 19.146C59.7889 18.7705 59.9521 18.5735 60.3776 18.4612C60.5271 18.4217 61.7537 18.2854 62.056 18.2746L62.1552 18.2711V18.6347Z" fill="#333333"/>
</svg>
