<svg width="95" height="35" viewBox="0 0 95 35" fill="none" xmlns="http://www.w3.org/2000/svg">
<rect width="95" height="35" rx="15" fill="#ECE4C0"/>
<path fill-rule="evenodd" clip-rule="evenodd" d="M37.0006 12.2614L37.0011 14.5228L39.1726 12.4202C40.3669 11.2638 41.4031 10.2462 41.4751 10.1588C41.5988 10.0089 41.4772 10 39.3031 10H37L37.0006 12.2614ZM45.1413 12.6357L42.4461 15.2538L45.1413 17.8357L47.8364 20.4176L47.8617 17.8128C47.8757 16.3802 47.8757 14.0402 47.8617 12.6128L47.8364 10.0175L45.1413 12.6357ZM54.9493 12.6041L57.6691 15.2081L60.3191 12.6732C61.7768 11.279 62.9692 10.1072 62.9692 10.0692C62.9692 10.0312 60.5528 10 57.5994 10H52.2295L54.9493 12.6041ZM37 18.2469V20.5076H39.2914C40.5517 20.5076 41.5828 20.4765 41.5828 20.4384C41.5828 20.4003 40.5517 19.3829 39.2914 18.1777L37 15.9862V18.2469ZM52.276 18.2485V20.4162H54.5141H56.7521L55.6352 19.3426C55.0209 18.7521 54.0139 17.7766 53.3972 17.1749L52.276 16.0806V18.2485ZM60.7733 18.269L58.5312 20.4162H60.7979H63.0647V18.269C63.0647 17.0881 63.0536 16.1218 63.0401 16.1218C63.0265 16.1218 62.0065 17.0881 60.7733 18.269ZM63.1192 23.575C63.0367 23.6541 62.9742 23.8082 62.9803 23.9177C62.9906 24.1029 62.9946 24.1041 63.0379 23.934C63.0635 23.8335 63.1511 23.6794 63.2326 23.5914C63.4167 23.3926 63.3239 23.3792 63.1192 23.575ZM63.595 23.7312C63.6378 23.8381 63.6107 23.8883 63.5102 23.8883C63.4289 23.8883 63.3318 23.9358 63.2943 23.9939C63.2512 24.0606 63.2682 24.0744 63.3405 24.0316C63.4035 23.9944 63.5088 24.0066 63.5745 24.0589C63.6647 24.1305 63.6929 24.1006 63.6897 23.9373C63.6873 23.8182 63.6508 23.6878 63.6086 23.6474C63.5665 23.6071 63.5603 23.6448 63.595 23.7312ZM63.937 23.8929C63.9298 24.021 63.8918 24.1653 63.8524 24.2133C63.813 24.2615 63.8382 24.2544 63.9083 24.1976C63.9785 24.1409 64.0166 23.9967 63.993 23.8772C63.9504 23.6621 63.9499 23.6623 63.937 23.8929ZM63.2023 24.2945C63.3043 24.3726 63.4295 24.4365 63.4808 24.4365C63.602 24.4365 63.5479 24.3943 63.2557 24.2611C63.0306 24.1586 63.0276 24.1604 63.2023 24.2945ZM37 25.9898C37 27.2995 37.0085 27.3604 37.191 27.3604C37.3568 27.3604 37.3819 27.2995 37.3819 26.8975C37.3819 26.4476 37.5037 26.0812 37.6532 26.0812C37.6937 26.0812 37.8724 26.369 38.0502 26.7208C38.3108 27.2362 38.416 27.3604 38.592 27.3604C38.8022 27.3604 38.7935 27.3298 38.3605 26.5515L37.9105 25.7427L38.3146 25.2306C38.5368 24.949 38.7186 24.6962 38.7186 24.6689C38.7186 24.6416 38.6338 24.6193 38.5301 24.6193C38.4047 24.6193 38.181 24.8382 37.8618 25.2732L37.3819 25.9272V25.2732C37.3819 24.6802 37.3641 24.6193 37.191 24.6193C37.0085 24.6193 37 24.6802 37 25.9898ZM39.1959 25.9898C39.1959 27.1472 39.2182 27.3604 39.3391 27.3604C39.4503 27.3604 39.4824 27.2397 39.4824 26.822C39.4824 26.2368 39.5404 26.1726 40.0693 26.1726C40.491 26.1726 40.7041 26.0262 40.8083 25.6648C40.9189 25.2816 40.7906 24.8428 40.5289 24.7087C40.4328 24.6596 40.0936 24.6193 39.7751 24.6193H39.1959V25.9898ZM41.3919 25.9898V27.3604H42.1079C42.6808 27.3604 42.824 27.333 42.824 27.2234C42.824 27.1167 42.6967 27.0863 42.2511 27.0863H41.6783V26.5838V26.0812H42.2034C42.6648 26.0812 42.7285 26.0591 42.7285 25.8985C42.7285 25.7378 42.6648 25.7157 42.2034 25.7157H41.6783V25.3046V24.8934H42.2511C42.6967 24.8934 42.824 24.863 42.824 24.7563C42.824 24.6467 42.6808 24.6193 42.1079 24.6193H41.3919V25.9898ZM43.563 25.5558C43.5098 26.5552 43.3661 27.0863 43.1488 27.0863C43.0518 27.0863 43.0149 27.2121 43.0149 27.5431C43.0149 27.9391 43.0404 28 43.2059 28C43.3605 28 43.3968 27.9391 43.3968 27.6802V27.3604H44.2084H45.0199V27.6802C45.0199 27.8928 45.0645 28 45.1531 28C45.3345 28 45.4044 27.2846 45.2385 27.1259C45.1505 27.0416 45.1154 26.6669 45.1154 25.8136V24.6193H44.3641H43.6128L43.563 25.5558ZM45.6882 25.9898V27.3604H45.958C46.215 27.3604 46.2499 27.3059 46.6979 26.2043L47.1681 25.0483L47.1948 26.2043C47.2167 27.149 47.2473 27.3604 47.3619 27.3604C47.4792 27.3604 47.5023 27.1341 47.5023 25.9838V24.6071L47.2592 24.6361C47.049 24.661 46.9669 24.7826 46.6532 25.533C46.4537 26.0104 46.2442 26.5244 46.1878 26.6751C46.1045 26.8976 46.0838 26.7298 46.0777 25.7843C46.0705 24.6826 46.0597 24.6193 45.8792 24.6193C45.6967 24.6193 45.6882 24.6802 45.6882 25.9898ZM47.8842 24.7563C47.8842 24.8541 47.988 24.8934 48.2462 24.8934H48.6082L48.5943 26.1269C48.5814 27.2719 48.5931 27.3604 48.7574 27.3604C48.921 27.3604 48.9344 27.2671 48.9344 26.1269V24.8934H49.3163C49.5921 24.8934 49.6982 24.8553 49.6982 24.7563C49.6982 24.6441 49.5338 24.6193 48.7912 24.6193C48.0486 24.6193 47.8842 24.6441 47.8842 24.7563ZM50.0801 25.9898C50.0801 27.1355 50.1031 27.3604 50.2206 27.3604C50.3363 27.3604 50.3659 27.1376 50.3877 26.1041L50.4143 24.8477L50.7408 26.1041C51.0086 27.1345 51.098 27.3604 51.2383 27.3604C51.4206 27.3604 51.4149 27.3754 51.8372 25.7739C51.9679 25.2783 52.0986 24.85 52.1277 24.8221C52.1568 24.7944 52.1805 25.3541 52.1805 26.066C52.1805 27.1055 52.2065 27.3604 52.3123 27.3604C52.4179 27.3604 52.4464 27.0887 52.4557 25.9898L52.4674 24.6193H52.1807C52.0231 24.6193 51.8929 24.6502 51.8914 24.6878C51.8897 24.7255 51.746 25.2791 51.5719 25.9179L51.2552 27.0795L51.0086 26.1921C50.873 25.7039 50.7327 25.1504 50.6969 24.9619C50.6393 24.6595 50.5994 24.6193 50.3559 24.6193H50.0801V25.9898ZM53.2935 25.8671C53.0919 26.5535 52.903 27.1745 52.8739 27.247C52.837 27.3389 52.8759 27.3688 53.0018 27.3456C53.1277 27.3224 53.209 27.1931 53.269 26.9209L53.3553 26.5295L53.8393 26.5566C54.3153 26.5833 54.3253 26.59 54.4301 26.9492C54.4967 27.1771 54.6017 27.3268 54.7092 27.3468C54.8223 27.3679 54.8651 27.3365 54.8334 27.2554C54.8069 27.1875 54.6181 26.5667 54.4141 25.8756C54.0956 24.7972 54.016 24.6193 53.8516 24.6193C53.6872 24.6193 53.6083 24.7958 53.2935 25.8671ZM55.2358 25.9898C55.2358 27.1472 55.258 27.3604 55.379 27.3604C55.4915 27.3604 55.5222 27.2335 55.5222 26.7665V26.1726H55.9561C56.2896 26.1726 56.4444 26.1207 56.6244 25.9483C56.7947 25.7855 56.8588 25.6246 56.8588 25.361C56.8588 25.0777 56.8036 24.9564 56.6073 24.8087C56.4177 24.666 56.2177 24.6193 55.7957 24.6193H55.2358V25.9898ZM57.4317 25.9898C57.4317 27.1472 57.4539 27.3604 57.5749 27.3604C57.6834 27.3604 57.7181 27.2478 57.7181 26.8951C57.7181 26.5773 57.7753 26.3603 57.8985 26.2104L58.0788 25.9909L58.2191 26.196C58.2962 26.3087 58.4735 26.6169 58.6132 26.8807C58.7528 27.1445 58.9307 27.3604 59.0086 27.3604C59.0865 27.3604 59.1502 27.3379 59.1502 27.3104C59.1502 27.283 58.9569 26.9397 58.7206 26.5477C58.4843 26.1556 58.291 25.7949 58.291 25.7461C58.291 25.6972 58.4313 25.4956 58.6028 25.2982C59.2003 24.6101 59.195 24.6193 58.9885 24.6193C58.8659 24.6193 58.6283 24.8583 58.2847 25.3274L57.7658 26.0355L57.738 25.3274C57.7164 24.7802 57.6785 24.6193 57.5709 24.6193C57.4551 24.6193 57.4317 24.8501 57.4317 25.9898ZM59.6276 25.9898V27.3604H60.3516C60.8882 27.3604 61.0655 27.3308 61.0362 27.2462C61.0126 27.1774 60.7818 27.1211 60.4555 27.1046L59.914 27.0772V26.5335V25.9898H60.4391C60.728 25.9898 60.9643 25.9487 60.9643 25.8985C60.9643 25.8482 60.728 25.8071 60.4391 25.8071H59.914V25.3503V24.8934L60.3198 24.8829C60.9419 24.8667 60.9926 24.8561 61.0356 24.7335C61.0653 24.6488 60.8885 24.6193 60.3516 24.6193H59.6276V25.9898ZM61.315 24.7648C61.3569 24.8691 61.4643 24.9002 61.694 24.8746L62.0145 24.8388V26.0996C62.0145 27.1486 62.0381 27.3604 62.155 27.3604C62.2706 27.3604 62.3002 27.1378 62.3221 26.1057C62.3471 24.9237 62.3597 24.8505 62.5396 24.8421C62.9669 24.8224 63.0647 24.7978 63.0647 24.7107C63.0647 24.6562 62.6997 24.6193 62.1607 24.6193C61.373 24.6193 61.2641 24.638 61.315 24.7648ZM56.4531 25.0068C56.6051 25.1237 56.6083 25.6448 56.4578 25.7888C56.3948 25.8491 56.1585 25.8985 55.9327 25.8985H55.5222V25.4112C55.5222 25.1431 55.5423 24.9045 55.567 24.881C55.6405 24.8106 56.3242 24.9077 56.4531 25.0068ZM40.3897 25.1095C40.4989 25.269 40.5139 25.3854 40.4469 25.5539C40.3452 25.8102 40.1694 25.8985 39.7609 25.8985C39.4869 25.8985 39.4824 25.8903 39.4824 25.3959V24.8934H39.8621C40.1559 24.8934 40.2752 24.9423 40.3897 25.1095ZM44.7335 25.9898V27.0863H44.2084C43.9196 27.0863 43.6833 27.0758 43.6833 27.0628C43.6833 27.0499 43.724 26.9035 43.7738 26.7374C43.8236 26.5712 43.8754 26.0883 43.8888 25.6644L43.9134 24.8934H44.3234H44.7335V25.9898ZM54.0523 25.5059C54.2551 26.3308 54.2442 26.371 53.8275 26.338C53.5077 26.3127 53.4726 26.2852 53.4986 26.0812C53.5477 25.6958 53.8117 24.8706 53.8685 24.925C53.898 24.9532 53.9807 25.2147 54.0523 25.5059Z" fill="#333333"/>
</svg>
