<svg width="95" height="35" viewBox="0 0 95 35" fill="none" xmlns="http://www.w3.org/2000/svg">
<rect width="95" height="35" rx="15" fill="#ECE4C0"/>
<path fill-rule="evenodd" clip-rule="evenodd" d="M26.8236 17.7899C26.8499 17.7746 28.4342 16.2407 30.3443 14.381C32.2545 12.5214 33.8657 11 33.9249 11C33.9842 11 34.113 11.059 34.2113 11.131C34.3777 11.2531 34.3646 11.5757 34.0192 15.8226C33.8152 18.3308 33.6479 20.5144 33.6474 20.6749C33.6464 20.9661 33.6448 20.9667 33.086 20.8968C31.4758 20.6955 29.7924 20.0714 28.4216 19.1679C27.5883 18.6185 26.7064 17.858 26.8236 17.7899ZM51.7444 16.9933C52.0036 16.136 52.6792 15.5008 53.5545 15.2916C54.0353 15.1766 54.3929 15.1813 55.006 15.3103C55.7372 15.4643 56.4115 16.0604 56.649 16.7626C56.826 17.2858 56.8823 18.6921 56.7483 19.2385C56.6314 19.715 56.325 20.2513 55.9928 20.561C55.5345 20.9882 54.9259 21.1973 54.1416 21.1973C52.453 21.1973 51.5797 20.228 51.5797 18.3538C51.5797 17.9051 51.6538 17.2929 51.7444 16.9933ZM37.7276 18.3516C37.7076 16.3992 37.7349 15.5439 37.8208 15.4423C37.9613 15.276 38.5874 15.251 38.8715 15.4004C38.9917 15.4636 39.4013 16.3313 39.9478 17.6806C40.4331 18.8786 40.8604 19.8933 40.8974 19.9353C40.9344 19.9773 41.3716 19.034 41.869 17.839C42.3663 16.6441 42.8599 15.5809 42.9659 15.4766C43.1043 15.3402 43.2844 15.2959 43.6063 15.3188L44.0541 15.3508L44.0825 18.2669L44.1109 21.1829L43.7623 21.15L43.4137 21.1169L43.3808 18.5484L43.3479 15.9798L42.2978 18.5484L41.2475 21.1169H40.8937H40.5399L40.024 19.8065C39.7401 19.0857 39.282 17.9298 39.0057 17.2379L38.5034 15.9798L38.45 18.5484L38.3966 21.1169H38.0764H37.7561L37.7276 18.3516ZM45.8155 21.1827V18.2339V15.2851L46.1624 15.318L46.5093 15.3508V18.2339V21.1169L46.1624 21.1497L45.8155 21.1827ZM48.3327 21.1057C48.1845 21.0498 48.1639 20.6917 48.1639 18.1636V15.2851L48.5108 15.318L48.8577 15.3508L48.8862 17.9456L48.9148 20.5403H50.0223C50.9084 20.5403 51.1422 20.5718 51.1914 20.6976C51.2251 20.7841 51.2251 20.9256 51.1914 21.0121C51.1413 21.1401 50.8855 21.1694 49.8158 21.1694C49.093 21.1694 48.4256 21.1407 48.3327 21.1057ZM57.4508 21.0206C57.4508 20.815 59.367 15.6056 59.5073 15.4294C59.5648 15.3574 59.7682 15.2984 59.9593 15.2984C60.1504 15.2984 60.3544 15.3574 60.4125 15.4294C60.55 15.5997 62.4678 20.811 62.4678 21.0143C62.4678 21.1209 62.3538 21.1694 62.103 21.1694C61.7504 21.1694 61.7304 21.1472 61.5142 20.5141C61.3911 20.1538 61.2512 19.7983 61.2033 19.7243C61.1389 19.6245 60.8013 19.5973 59.8998 19.6194L58.6834 19.6492L58.4119 20.3831C58.1586 21.0681 58.1175 21.1191 57.7957 21.1497C57.5413 21.174 57.4508 21.1401 57.4508 21.0206ZM63.5353 18.3017C63.5353 16.095 63.5666 15.4084 63.6687 15.3678C63.9266 15.2657 64.457 15.2997 64.6261 15.4294C64.7202 15.5016 65.17 16.2446 65.6258 17.0806C66.0817 17.9167 66.6377 18.931 66.8616 19.3347L67.2686 20.0685L67.27 17.6769L67.2714 15.2851L67.6183 15.318L67.9652 15.3508L67.9937 18.1161C68.0138 20.0685 67.9865 20.9238 67.9005 21.0254C67.7586 21.1935 67.3417 21.2137 67.0611 21.0662C66.9532 21.0095 66.3592 20.0306 65.7413 18.8908C65.1233 17.7511 64.5543 16.6793 64.4768 16.5091C64.3536 16.2385 64.3291 16.5081 64.2825 18.6583L64.2291 21.1169L63.8822 21.1497L63.5353 21.1827V18.3017ZM56.0409 18.5511C56.1011 17.5298 55.8808 16.7256 55.4229 16.2947C55.1395 16.0281 54.9982 15.9811 54.3782 15.9478C53.7639 15.9148 53.6087 15.9444 53.2934 16.1546C53.0911 16.2895 52.827 16.5648 52.7063 16.7664C52.5227 17.0734 52.4871 17.3122 52.4871 18.2339C52.4871 19.1676 52.5227 19.4001 52.7219 19.7658C53.0128 20.2999 53.4951 20.5403 54.2754 20.5403C54.7024 20.5403 54.9524 20.4774 55.2142 20.3041C55.7683 19.9373 55.9864 19.4748 56.0409 18.5511ZM58.9695 18.9218C59 18.9516 59.4573 18.9623 59.9859 18.9456L60.947 18.9153L60.437 17.5C59.9853 16.2468 59.9152 16.1147 59.8244 16.3468C59.4255 17.3658 58.9239 18.877 58.9695 18.9218ZM25 20.0342C25 19.6628 25.0762 19.5279 25.5986 18.9737C25.9278 18.6245 26.2446 18.3387 26.3023 18.3387C26.3602 18.3387 26.6866 18.5863 27.0276 18.8891C27.3687 19.1919 28.0356 19.6694 28.5097 19.9504C29.8936 20.7708 31.2574 21.2371 33.1484 21.5367L33.5577 21.6015L33.4891 22.5124C33.3813 23.9411 33.3614 24 32.9876 24C32.4644 24 30.6145 23.5987 29.7786 23.3038C29.352 23.1532 28.6667 22.8657 28.2558 22.665C27.3457 22.2203 25.9433 21.3155 25.4003 20.8229C25.0643 20.5179 25 20.3913 25 20.0342ZM29.6516 16.2419C28.8104 16.7699 28.4496 17.5911 28.9904 17.767C29.423 17.9078 29.8314 17.8257 29.6516 16.2419ZM32.5344 17.7097C31.6932 18.2376 31.3325 19.0588 31.8732 19.2348C32.3058 19.3756 32.7143 19.2935 32.5344 17.7097ZM32.7531 14.355C31.912 14.8829 31.5512 15.7041 32.092 15.8801C32.5246 16.0208 32.933 15.9387 32.7531 14.355Z" fill="#333333"/>
</svg>
