<svg width="95" height="35" viewBox="0 0 95 35" fill="none" xmlns="http://www.w3.org/2000/svg">
<rect width="95" height="35" rx="15" fill="#ECE4C0"/>
<path fill-rule="evenodd" clip-rule="evenodd" d="M29.5547 20.8586V16.7467C29.5547 15.5802 28.9311 15.0265 27.8838 15.0265C27.013 15.0265 26.26 15.5449 25.9304 16.0633C25.7186 15.4153 25.1891 15.0265 24.3537 15.0265C23.4829 15.0265 22.7298 15.5684 22.4944 15.9101V15.1679H21V20.8586H22.4944V17.0295C22.718 16.7114 23.1534 16.3579 23.6711 16.3579C24.283 16.3579 24.5184 16.7349 24.5184 17.2651V20.8586H26.0246V17.0177C26.2364 16.7114 26.6718 16.3579 27.2013 16.3579C27.8132 16.3579 28.0485 16.7349 28.0485 17.2651L28.0486 20.8586H29.5547ZM33.6615 21C31.7905 21 30.6608 19.6333 30.6608 18.0074C30.6608 16.3932 31.7905 15.0265 33.6615 15.0265C35.5442 15.0265 36.6739 16.3933 36.6739 18.0074C36.6739 19.6333 35.5443 21 33.6615 21ZM33.6615 19.6687C34.5911 19.6687 35.1206 18.9028 35.1206 18.0074C35.1206 17.1237 34.5911 16.3579 33.6615 16.3579C32.7318 16.3579 32.2141 17.1237 32.2141 18.0074C32.2141 18.9028 32.7319 19.6687 33.6615 19.6687ZM43.1105 20.8586V16.8409C43.1105 15.7334 42.5104 15.0265 41.2631 15.0265C40.3335 15.0265 39.6393 15.4742 39.2745 15.9101V15.1679H37.78V20.8586H39.2745V17.0295C39.5216 16.6878 39.9805 16.3579 40.5688 16.3579C41.2043 16.3579 41.6161 16.6289 41.6161 17.4183V20.8586H43.1105ZM47.229 21C45.3581 21 44.2284 19.6333 44.2284 18.0074C44.2284 16.3932 45.358 15.0265 47.229 15.0265C49.1118 15.0265 50.2415 16.3933 50.2415 18.0074C50.2415 19.6333 49.1118 21 47.229 21ZM47.229 19.6687C48.1586 19.6687 48.6882 18.9028 48.6882 18.0074C48.6882 17.1237 48.1587 16.3579 47.229 16.3579C46.2994 16.3579 45.7817 17.1237 45.7817 18.0074C45.7817 18.9028 46.2995 19.6687 47.229 19.6687ZM52.842 19.0324C53.0891 19.3976 53.6421 19.6686 54.1246 19.6686C54.9954 19.6686 55.5719 19.0088 55.5719 18.0191C55.5719 17.0294 54.9954 16.3578 54.1246 16.3578C53.6421 16.3578 53.0891 16.6406 52.842 17.0176V19.0324ZM52.842 20.8586H51.3475V13H52.842V15.8984C53.2891 15.3211 53.9245 15.0265 54.5953 15.0265C56.0426 15.0265 57.1135 16.1575 57.1135 18.0191C57.1135 19.916 56.0309 20.9999 54.5953 20.9999C53.9128 20.9999 53.2891 20.6936 52.842 20.128V20.8586ZM63.15 20.8586H61.6556V20.2695C61.2673 20.729 60.5966 21 59.8552 21C58.9491 21 57.8784 20.3873 57.8784 19.1149C57.8784 17.7835 58.9492 17.2769 59.8552 17.2769C60.6083 17.2769 61.279 17.5243 61.6556 17.972V17.2062C61.6556 16.6289 61.1614 16.2518 60.4083 16.2518C59.7964 16.2518 59.2316 16.4757 58.7491 16.9234L58.1843 15.922C58.8785 15.3093 59.7728 15.0265 60.6671 15.0265C61.9615 15.0265 63.15 15.545 63.15 17.1827L63.15 20.8586ZM60.4554 19.9867C60.9378 19.9867 61.4085 19.8218 61.6556 19.4919V18.785C61.4085 18.4551 60.9378 18.2901 60.4554 18.2901C59.867 18.2901 59.3845 18.5965 59.3845 19.1502C59.3845 19.6804 59.8669 19.9867 60.4554 19.9867ZM69.9632 20.8586V16.8409C69.9632 15.7334 69.3631 15.0265 68.1158 15.0265C67.1862 15.0265 66.4919 15.4742 66.1271 15.9101V15.1679H64.6327V20.8586H66.1271V17.0295C66.3742 16.6878 66.8332 16.3579 67.4215 16.3579C68.0569 16.3579 68.4688 16.6289 68.4688 17.4183V20.8586H69.9632ZM77 20.8586L74.6819 17.7482L76.9294 15.1679H75.0937L72.9403 17.701V13H71.4459V20.8586H72.9403V19.3976L73.6228 18.6672L75.129 20.8586H77Z" fill="#333333"/>
</svg>
