<svg width="95" height="35" viewBox="0 0 95 35" fill="none" xmlns="http://www.w3.org/2000/svg">
<rect width="95" height="35" rx="15" fill="#ECE4C0"/>
<path fill-rule="evenodd" clip-rule="evenodd" d="M23.1801 12.2818C22.8421 12.4288 22.314 12.7288 22.0062 12.9482C21.3945 13.3845 20.3685 14.7068 20.3685 15.0591C20.3685 15.2755 21.5175 15.7097 22.0906 15.7097C22.2501 15.7097 22.4345 15.5397 22.5005 15.3317C22.6279 14.9294 23.7872 14.1088 24.3705 14.0081C24.6241 13.9643 24.7476 13.7432 24.8187 13.2057C24.8726 12.7976 24.8846 12.3595 24.8452 12.2319C24.7504 11.9251 23.9446 11.9492 23.1801 12.2818ZM25.1835 12.4405C25.1835 13.3479 25.4139 14.0404 25.7159 14.0411C26.2069 14.0422 27.2195 14.7504 27.5468 15.3215L27.8514 15.8529L28.7861 15.5768C29.3001 15.425 29.7516 15.2713 29.7894 15.2355C29.9498 15.0832 28.8294 13.4585 28.2686 13.0302C27.5812 12.5049 26.2845 12 25.6232 12C25.2839 12 25.1835 12.1005 25.1835 12.4405ZM73.3746 13.0308C73.1481 13.1895 72.9629 13.5104 72.9629 13.744C72.9629 14.2275 73.4901 14.7823 73.9498 14.7823C74.3346 14.7823 75 14.1359 75 13.7621C75 13.4223 74.3481 12.7419 74.0227 12.7419C73.8926 12.7419 73.6009 12.872 73.3746 13.0308ZM74.5587 13.3997C74.7728 13.7232 74.7676 13.8399 74.5241 14.188C74.03 14.8947 73.1481 14.6039 73.1481 13.7343C73.1481 13.2964 73.617 12.9035 74.052 12.977C74.1926 13.0007 74.4205 13.191 74.5587 13.3997ZM73.5212 13.8085C73.5235 14.1867 73.5677 14.2498 73.6924 14.0522C73.8227 13.846 73.9194 13.8348 74.1213 14.0027C74.3311 14.1771 74.3768 14.1483 74.3554 13.8554C74.3263 13.46 74.074 13.0992 74.074 13.4529C74.074 13.572 73.9857 13.6694 73.8779 13.6694C73.7701 13.6694 73.7333 13.5859 73.7963 13.4839C73.8592 13.3819 73.8224 13.2984 73.7146 13.2984C73.6068 13.2984 73.5198 13.5279 73.5212 13.8085ZM33.7792 15.2314C32.8634 15.6307 32.406 16.3608 32.406 17.4227C32.406 18.2185 32.4895 18.4273 33.021 18.9597C33.7877 19.7276 34.7774 19.9494 35.8172 19.5863C37.2204 19.0964 37.826 17.4218 37.0569 16.1586C36.6617 15.5092 35.6583 14.9643 34.8781 14.975C34.5879 14.9791 34.0935 15.0945 33.7792 15.2314ZM44.3508 15.2178C42.7745 15.9433 42.3621 17.8098 43.5069 19.0372C44.4155 20.0114 46.2011 20.0179 47.2757 19.0509C47.7504 18.6239 47.8234 18.47 47.6393 18.283C47.4545 18.0955 47.2965 18.1573 46.84 18.5954C46.3818 19.0348 46.1081 19.1413 45.4346 19.1413C44.724 19.1413 44.5169 19.0502 44.0579 18.5355C43.4139 17.8137 43.3595 17.0738 43.8995 16.3862C44.6119 15.479 46.195 15.4302 46.9046 16.2933C47.1241 16.5602 47.2983 16.6342 47.42 16.5124C47.5211 16.4111 47.5524 16.1941 47.4896 16.0301C47.1822 15.228 45.3559 14.7554 44.3508 15.2178ZM51.8511 17.3791V19.7905H53.8098C55.7279 19.7905 55.7799 19.7792 56.3099 19.2483C56.6077 18.95 56.8512 18.529 56.8512 18.3123C56.8512 17.838 56.0725 17.0128 55.6095 16.9965C55.4268 16.99 54.7354 16.9692 54.0734 16.9501C52.9078 16.9165 52.8678 16.8993 52.8111 16.4053L52.7524 15.8952H54.6167H56.4809V15.4315V14.9678H54.166H51.8511V17.3791ZM57.9841 17.3012C57.3611 18.5846 56.8512 19.6697 56.8512 19.7126C56.8512 19.7554 57.0157 19.7905 57.2168 19.7905C57.4359 19.7905 57.6978 19.5671 57.8698 19.234C58.1472 18.6967 58.2015 18.6775 59.4439 18.6775C60.6864 18.6775 60.7406 18.6967 61.0181 19.234C61.2201 19.6256 61.4416 19.7905 61.7649 19.7905C62.2159 19.7905 62.202 19.7454 61.0181 17.3791C60.1152 15.5743 59.7243 14.9678 59.4643 14.9678C59.2032 14.9678 58.8361 15.5465 57.9841 17.3012ZM62.7157 15.0915C62.6477 15.1594 62.5922 16.2445 62.5922 17.5029V19.7905H63.0552C63.4929 19.7905 63.5181 19.7348 63.5181 18.7703V17.7501H65.0923H66.6664V18.7703C66.6664 19.7348 66.6916 19.7905 67.1294 19.7905H67.5923V17.3791V14.9678H67.1294C66.6973 14.9678 66.6664 15.0296 66.6664 15.8952V16.8227H65.2775C64.5135 16.8227 63.8261 16.8238 63.7496 16.8251C63.6731 16.8264 63.5855 16.409 63.5548 15.8976C63.5098 15.1505 63.4339 14.9678 63.1689 14.9678C62.9876 14.9678 62.7835 15.0234 62.7157 15.0915ZM68.0863 15.0915C68.0183 15.1594 67.9627 16.2445 67.9627 17.5029V19.7905H68.4257C68.8578 19.7905 68.8887 19.7287 68.8887 18.863C68.8887 18.3529 68.9409 17.9356 69.005 17.9356C69.0689 17.9356 69.6832 18.3529 70.3702 18.863C71.1247 19.4232 71.8119 19.7905 72.1058 19.7905C72.3736 19.7905 72.5925 19.707 72.5925 19.605C72.5925 19.503 72.5301 19.4189 72.4536 19.4184C72.3771 19.4178 71.7503 18.9662 71.0606 18.4147L69.8065 17.412L71.2938 16.2362C72.7616 15.0761 72.7736 15.0598 72.2055 15.001C71.7432 14.9533 71.369 15.1429 70.3056 15.9633L68.9813 16.985L68.9257 15.9765C68.8804 15.1531 68.8096 14.9678 68.54 14.9678C68.3583 14.9678 68.154 15.0234 68.0863 15.0915ZM38.1875 17.4081C38.2332 19.3906 38.2786 19.6686 38.5636 19.7103C38.8382 19.7504 38.8877 19.6042 38.8877 18.754C38.8877 18.2018 38.9399 17.7501 39.004 17.7501C39.0679 17.7501 39.672 18.1561 40.3466 18.6525C41.0211 19.1489 41.8028 19.5965 42.0839 19.6473C42.7361 19.7652 42.595 19.5974 41.0348 18.3993C40.3707 17.8892 39.8279 17.4301 39.8288 17.3791C39.8298 17.3281 40.4468 16.8273 41.2 16.2662C42.4106 15.3646 42.5165 15.2392 42.1124 15.1869C41.7885 15.1449 41.3063 15.4022 40.4605 16.0679C39.8036 16.5851 39.1808 17.0082 39.0768 17.0082C38.9729 17.0082 38.8877 16.5908 38.8877 16.0807C38.8877 15.2722 38.8393 15.1533 38.5116 15.1533C38.1514 15.1533 38.1377 15.2484 38.1875 17.4081ZM48.7028 17.3791C48.7028 19.234 48.7491 19.605 48.9806 19.605C49.2121 19.605 49.2584 19.234 49.2584 17.3791C49.2584 15.5243 49.2121 15.1533 48.9806 15.1533C48.7491 15.1533 48.7028 15.5243 48.7028 17.3791ZM20.1109 15.6587C20.0489 15.7207 19.9989 16.2794 20 16.9C20.0021 18.1706 20.5304 19.5174 21.383 20.4258L21.8923 20.9681L22.2475 20.5185C22.4429 20.2711 22.7229 19.8472 22.8699 19.5766C23.1007 19.152 23.1012 19.0708 22.8738 18.9834C22.4666 18.8269 22.0158 17.8063 21.9773 16.954C21.9442 16.2176 21.9055 16.1705 21.0832 15.865C20.6104 15.6895 20.1728 15.5966 20.1109 15.6587ZM28.6888 16.0041C28.1127 16.244 28.0375 16.3476 28.1049 16.8084C28.1901 17.3895 27.543 19.0485 27.231 19.0485C26.9127 19.0485 27.0015 19.3002 27.6145 20.1351L28.1936 20.9238L28.6446 20.4994C28.8927 20.2661 29.255 19.817 29.4494 19.5017C30.2311 18.2348 30.3765 15.6979 29.6661 15.7194C29.4924 15.7246 29.0527 15.8528 28.6888 16.0041ZM36.0431 15.9806C36.2554 16.1295 36.5341 16.5051 36.6624 16.8153C36.8498 17.2686 36.8498 17.4897 36.6624 17.943C36.5341 18.2532 36.2554 18.6288 36.0431 18.7777C35.8307 18.9267 35.294 19.0485 34.8507 19.0485C34.2062 19.0485 33.9355 18.9396 33.5029 18.5063C33.1334 18.1363 32.9616 17.7783 32.9616 17.3791C32.9616 16.98 33.1334 16.622 33.5029 16.2519C33.9355 15.8186 34.2062 15.7097 34.8507 15.7097C35.294 15.7097 35.8307 15.8316 36.0431 15.9806ZM59.8726 16.9217C60.0443 17.2823 60.1847 17.6579 60.1847 17.7564C60.1847 17.8549 59.8513 17.9356 59.4439 17.9356C59.0365 17.9356 58.7032 17.8549 58.7032 17.7564C58.7032 17.4871 59.31 16.2662 59.4439 16.2662C59.508 16.2662 59.701 16.5611 59.8726 16.9217ZM55.8327 18.3066C55.8327 18.7593 55.7968 18.7716 54.3049 18.8241L52.777 18.8781V18.3066V17.7351L54.3049 17.7891C55.7968 17.8416 55.8327 17.8538 55.8327 18.3066ZM22.9831 20.0999C22.6608 20.4909 22.4203 20.9359 22.4484 21.0889C22.5138 21.4443 24.1257 22 25.0909 22C25.9282 22 27.6277 21.4665 27.7199 21.175C27.8095 20.8912 26.6321 19.3583 26.495 19.5803C26.3115 19.8778 24.962 20.1136 24.3659 19.9522C24.069 19.8719 23.7683 19.7124 23.6975 19.5976C23.6164 19.4664 23.3518 19.6525 22.9831 20.0999Z" fill="#333333"/>
</svg>
