<svg width="95" height="35" viewBox="0 0 95 35" fill="none" xmlns="http://www.w3.org/2000/svg">
<rect width="95" height="35" rx="15" fill="#ECE4C0"/>
<path d="M28.1719 16.5001C28.1719 15.1982 29.2371 14.1428 30.5513 14.1428C31.8655 14.1428 32.9305 15.1982 32.9305 16.5001C32.9305 17.8017 31.8655 18.8571 30.5513 18.8571C29.2371 18.8571 28.1719 17.8017 28.1719 16.5001Z" fill="#333333"/>
<path d="M32.2731 13.4098C32.2731 12.6377 32.905 12.0116 33.6844 12.0116C34.4641 12.0116 35.0963 12.6377 35.0963 13.4098C35.0963 14.1822 34.4641 14.8082 33.6844 14.8082C32.905 14.8082 32.2731 14.1822 32.2731 13.4098ZM25 16.5003C25 13.4647 27.4821 11.0037 30.5451 11V12.9877C28.5899 12.9911 27.0061 14.5623 27.0061 16.5003C27.0061 18.4402 28.5936 20.0126 30.5516 20.0126C32.4981 20.0126 34.0973 18.4551 34.0973 16.4869L36.1034 16.4881C36.1034 19.5378 33.6181 22 30.5516 22C27.4854 22 25 19.5378 25 16.5002" fill="#333333"/>
<path d="M48.7994 18.2773C49.1929 18.324 49.6205 18.1946 49.9105 17.9561C50.2425 17.6769 50.5409 17.1007 50.5409 16.4752C50.5409 15.7843 50.0933 15.7021 49.9271 15.7021C49.6868 15.7021 49.5044 15.8254 49.3303 15.9406L48.7994 18.2773ZM49.4713 15.1263C49.6868 14.9783 50.0432 14.7311 50.5824 14.7311C51.4112 14.7311 51.967 15.348 51.967 16.3929C51.967 16.9855 51.7598 17.6846 51.3283 18.2032C50.5078 19.1984 49.4713 19.1902 48.5922 19.1902L48.1202 21.1567L48.0626 21.1979C47.8715 21.1979 47.6892 21.1892 47.4986 21.1892C47.2167 21.1892 46.9681 21.2061 46.6614 21.2143L46.6195 21.1567C46.6195 21.1567 46.9118 20.2845 47.2752 18.7855C47.6569 17.2124 48.0137 15.3696 48.0452 14.9943L48.1032 14.9367L49.521 14.7069L49.5711 14.764L49.4713 15.1263ZM46.4712 19.0997L46.4049 19.1655C46.1392 19.2153 45.8277 19.256 45.6584 19.256C45.0324 19.256 44.1137 19.1621 44.5028 17.595C44.765 16.5354 44.9539 15.7432 44.9539 15.7432L44.3733 15.7596L44.3235 15.6938L44.5643 14.8627L44.6224 14.822H45.1694L45.4098 13.7602L45.4678 13.703C46.0899 13.5632 46.2552 13.5217 46.8276 13.3572L46.8773 13.4065L46.5126 14.8385L47.3581 14.822L47.3916 14.8792C47.2751 15.2246 47.2419 15.3155 47.1342 15.7021L47.0679 15.7596L46.3053 15.7432C46.3053 15.7432 46.1504 16.3817 45.9336 17.2704C45.6993 18.2318 45.8224 18.1825 46.0571 18.2742C46.2577 18.353 46.5208 18.2526 46.67 18.2032L46.7197 18.2444L46.4711 19.0997H46.4712ZM41.837 15.5952C41.447 15.5952 41.0059 15.7921 40.7511 16.9903C40.468 18.3236 41.0325 18.4088 41.3065 18.4088C41.5552 18.4088 42.0848 18.2742 42.3478 16.9977C42.5323 16.1051 42.3862 15.5952 41.837 15.5952ZM43.773 16.9977C43.4166 19.0153 42.1515 19.2724 41.0805 19.2724C40.0235 19.2724 39.0489 18.55 39.3247 16.9877C39.5401 15.7666 40.2709 14.6368 42.0472 14.7229C43.2862 14.7831 44.0151 15.6259 43.773 16.9977Z" fill="#333333"/>
<path d="M69.0805 16.911L70.3733 19.509L70.3232 19.5795L69.3975 19.6059L69.3307 19.5526C69.1143 18.934 68.171 16.9902 68.171 16.9902C67.9291 18.1088 67.8791 18.3729 67.6701 19.535L67.6122 19.5883L66.7693 19.6059L66.736 19.5526C66.736 19.5526 67.1811 17.6 67.5661 15.7924C67.7465 14.9472 68.0265 13.609 68.1376 12.7981L68.1956 12.7453L69.1051 12.5868L69.1556 12.6485C68.9875 13.2569 68.1956 16.867 68.1956 16.867C68.7939 16.3137 69.7895 15.2113 69.9229 15.0617L70.0147 15.0089H70.9743L70.9992 15.0881C70.7621 15.2855 70.3232 15.7044 70.1647 15.854L69.0805 16.911L69.0805 16.911ZM65.8923 19.5373L65.826 19.5901L64.9749 19.6165L64.9415 19.5554C65.0639 18.9623 65.5775 16.9758 65.5841 16.3581C65.5894 15.8299 65.2755 15.6538 64.8831 15.6538C64.366 15.6538 64.0236 15.9267 63.7734 16.1209C63.4648 17.6 63.3647 18.0666 63.0978 19.5373L63.039 19.5901L62.1887 19.6165L62.1465 19.5553C62.1465 19.5553 62.3998 18.4771 62.6285 17.3562C62.8077 16.4786 62.9547 15.7557 63.0223 15.152L63.0811 15.0904C63.4731 15.0375 63.5649 15.0199 63.9656 14.9319L64.0074 14.993L63.8906 15.442C64.2159 15.2136 64.6329 14.905 65.3251 14.905C65.6004 14.905 66.5016 14.9847 66.5016 16.05C66.5016 16.6871 65.974 18.9154 65.8923 19.5373M61.1439 15.6715C61.0184 15.6715 60.8937 15.6627 60.7682 15.6627C60.493 15.6627 59.9508 15.6803 59.4583 16.0329C58.5825 16.6663 58.5658 17.8025 58.5658 17.847C58.5658 18.2696 58.7827 18.9475 59.5417 18.9475C59.7673 18.9475 60.1396 18.8919 60.543 18.5156L61.1439 15.6715V15.6715ZM61.7611 16.79C61.4692 18.1463 61.4108 18.4808 61.244 19.529L61.1852 19.5901L60.4012 19.6077L60.3595 19.5461L60.4179 19.1944C60.2761 19.3172 59.9091 19.643 59.1997 19.643C58.3486 19.643 57.6563 19.0091 57.6563 17.9081C57.6563 17.2126 57.9732 16.455 58.324 16.0148C59.0997 15.0547 60.176 15.0019 60.9438 15.0019L62.0947 15.0112L62.1365 15.0811L61.7611 16.79ZM53.7758 18.9034C54.2477 18.9266 54.9439 18.9123 55.486 18.5249C56.1032 18.0754 56.3956 17.2918 56.3956 16.7279C56.3956 15.9268 55.9364 15.6186 55.4026 15.6186C54.9768 15.6186 54.6766 15.8123 54.4097 15.9884C54.4097 15.9884 53.8276 18.6875 53.7758 18.9034ZM52.7578 19.5461C52.8136 19.2792 53.1731 17.7144 53.541 15.9546C53.8552 14.4454 54.0743 13.5038 54.1511 12.8004L54.2179 12.7383L55.1274 12.5715L55.1691 12.6332L54.9356 13.6109L54.5515 15.3017C54.9022 15.0992 55.2354 14.905 55.7696 14.905C56.5953 14.905 57.288 15.4949 57.288 16.6051C57.288 17.0541 57.1546 17.8993 56.5953 18.5777C55.8447 19.485 54.9189 19.5461 53.8425 19.5901H53.3838L52.7995 19.5989L52.7578 19.5461V19.5461Z" fill="#333333"/>
</svg>
