<svg width="95" height="35" viewBox="0 0 95 35" fill="none" xmlns="http://www.w3.org/2000/svg">
<rect width="95" height="35" rx="15" fill="#ECE4C0"/>
<path fill-rule="evenodd" clip-rule="evenodd" d="M20 14.875V16.75L20.6474 16.7513C21.7937 16.7534 22.7345 17.0712 23.2738 17.6384C23.3976 17.7685 23.6022 18.1 23.7284 18.375C23.9241 18.8012 23.9634 19.0135 23.9943 19.8125L24.0306 20.75H25.9412H27.8519V16.875V13H23.926H20V14.875ZM26.2649 16.875V19.1667H25.9323C25.6375 19.1667 25.594 19.1407 25.5492 18.9375C25.2795 17.7175 24.9823 17.1211 24.312 16.4549C23.7335 15.8801 23.1657 15.5735 22.2553 15.3443C21.6295 15.1868 21.6289 15.1863 21.603 14.885L21.577 14.5833H23.921H26.2649V16.875ZM28.9379 18.4167V20.75H29.5643H30.1908V18.875V17H31.2767H32.3626V18.875V20.75H33.0309H33.6991V18.4167V16.0833H31.3185H28.9379V18.4167ZM56.002 18.4167V20.75H57.6574C59.5325 20.75 59.9743 20.6684 60.4123 20.2411C60.7305 19.9308 60.7973 19.716 60.745 19.1728C60.6954 18.6574 60.4469 18.3141 59.9483 18.0718C59.6071 17.906 59.3926 17.8748 58.4035 17.8468L57.255 17.8144V17.4073V17H58.8003H60.3456V16.5417V16.0833H58.1738H56.002V18.4167ZM36.1787 17.3708C36.0034 17.4331 35.7936 17.544 35.7127 17.6171C35.5177 17.7931 35.4533 17.7847 35.4533 17.5833C35.4533 17.4338 35.3976 17.4167 34.9103 17.4167H34.3674V19.7083V22H34.9521H35.5368V21.25C35.5368 20.8375 35.5535 20.5 35.5738 20.5C35.5941 20.5 35.7404 20.5763 35.8988 20.6695C36.4801 21.0118 37.3642 20.965 37.9663 20.5603C38.7871 20.0083 38.9257 18.5887 38.2333 17.8241C37.7696 17.3121 36.8894 17.1178 36.1787 17.3708ZM48.951 17.3379C48.3256 17.4944 47.9489 17.8304 47.8819 18.2917C47.86 18.4423 47.912 18.4607 48.4215 18.483C48.8592 18.5021 48.9854 18.4817 48.9854 18.3917C48.9854 18.0315 49.8158 17.7851 50.1948 18.0328C50.4034 18.1692 50.4954 18.6013 50.3366 18.6993C50.2988 18.7226 49.9323 18.7828 49.5221 18.8331C48.1324 19.0036 47.7439 19.2162 47.6729 19.8451C47.6352 20.1792 47.6593 20.2586 47.8691 20.4897C48.3257 20.9929 49.5876 21.0456 50.2314 20.5883C50.4687 20.4197 50.4702 20.4197 50.5134 20.5844C50.5517 20.7302 50.6284 20.75 51.1543 20.75C51.6113 20.75 51.7365 20.7255 51.6867 20.6458C51.6509 20.5886 51.6205 19.9914 51.6191 19.3189C51.6163 17.9355 51.5556 17.7657 50.9581 17.4696C50.5899 17.2871 49.4523 17.2124 48.951 17.3379ZM62.3922 17.3232C61.7619 17.4882 61.2645 17.9204 61.2645 18.3029C61.2645 18.4898 61.2925 18.5 61.8028 18.5C62.3079 18.5 62.348 18.4858 62.451 18.2708C62.6363 17.8842 63.392 17.8011 63.7228 18.1311C63.8812 18.2891 63.8885 18.4211 63.7495 18.6104C63.6759 18.7108 63.4429 18.7757 62.9588 18.8307C62.0143 18.9381 61.6358 19.0525 61.3333 19.3222C61.1258 19.5071 61.0746 19.6187 61.0746 19.8856C61.0746 20.6017 61.4614 20.874 62.4769 20.8733C63.0196 20.873 63.2066 20.8375 63.4632 20.6864C63.8349 20.4677 63.9375 20.4543 63.9375 20.625C63.9375 20.7253 64.0646 20.75 64.5807 20.75C65.0809 20.75 65.2016 20.7278 65.1236 20.65C65.055 20.5815 65.0234 20.1732 65.0234 19.3542C65.0234 17.9274 64.9581 17.7398 64.3701 17.478C63.9475 17.2898 62.8482 17.2038 62.3922 17.3232ZM39.0451 18.7166C39.0451 20.2527 39.1148 20.4811 39.664 20.7463C40.2286 21.019 40.9361 20.9487 41.4884 20.5649C41.7166 20.4064 41.7181 20.4065 41.7181 20.5777C41.7181 20.7366 41.7669 20.75 42.3446 20.75H42.9711V19.0833V17.4167H42.3446H41.7181V18.5898V19.7628L41.474 20.0064C41.1817 20.298 40.7541 20.3334 40.4536 20.0909C40.2645 19.9383 40.2553 19.8797 40.2295 18.6743L40.2026 17.4167H39.6238H39.0451V18.7166ZM43.5558 19.0833V20.75H45.1038C47.1303 20.75 47.3983 20.6452 47.3983 19.8533C47.3983 19.4688 47.157 19.1977 46.7411 19.1147L46.4677 19.0602L46.7868 18.8817C47.2083 18.6459 47.3573 18.3393 47.233 17.9636C47.0743 17.484 46.8078 17.4167 45.0677 17.4167H43.5558V19.0833ZM51.8254 17.75V18.0833H52.4937H53.1619V19.4167V20.75H53.7467H54.3314V19.42V18.0901L55.0205 18.0658L55.7096 18.0417L55.7355 17.7292L55.7615 17.4167H53.7934H51.8254V17.75ZM65.6081 19.0833V20.75H66.1928H66.7775V20.0417V19.3333H67.5293H68.2811V20.0417V20.75H68.8658H69.4506V19.0833V17.4167H68.8658H68.2811V18.0417V18.6667H67.5293H66.7775V18.0417V17.4167H66.1928H65.6081V19.0833ZM70.0353 19.0833V20.75H70.6585H71.2817L71.3059 20.0285L71.33 19.3071L71.9504 20.0285L72.5709 20.75H73.2855H74L73.1244 19.8681L72.2489 18.9862L73.0815 18.2014L73.9141 17.4167H73.2359H72.5576L71.9229 18.0962L71.2882 18.7757V18.0962V17.4167H70.6618H70.0353V19.0833ZM20 19.2936V20.8371L21.5244 20.8144L23.0489 20.7917L23.0717 19.2708L23.0944 17.75H21.5473H20V19.2936ZM37.0913 18.1753C37.5568 18.6115 37.5458 19.5124 37.0694 19.9878C36.8101 20.2464 36.7523 20.2674 36.4065 20.2286C35.9174 20.1736 35.6541 19.926 35.545 19.4185C35.4099 18.7898 35.6371 18.1833 36.0798 17.9912C36.3488 17.8744 36.8719 17.9696 37.0913 18.1753ZM46.0098 18.2693C46.1679 18.5203 45.8891 18.6955 45.2692 18.7348L44.7253 18.7694V18.4227V18.076L45.3221 18.1005C45.7792 18.1193 45.9402 18.1588 46.0098 18.2693ZM59.1232 18.9227C59.4214 19.1568 59.4224 19.5278 59.1252 19.7221C58.9593 19.8305 58.7144 19.8658 58.1019 19.8698L57.2967 19.875L57.272 19.3125L57.2474 18.75H58.0752C58.7863 18.75 58.9341 18.7743 59.1232 18.9227ZM50.4054 19.4222C50.4054 19.7655 50.2824 19.973 49.9894 20.1242C49.4597 20.3974 48.822 20.1619 48.93 19.7329C48.9967 19.4674 49.2008 19.3873 50.3428 19.1782C50.3773 19.1718 50.4054 19.2817 50.4054 19.4222ZM63.8264 19.4703C63.7667 19.837 63.5009 20.1393 63.1752 20.2107C62.5612 20.3452 62.0502 19.9292 62.4003 19.5799C62.5317 19.4487 63.2022 19.2557 63.8022 19.1764C63.8427 19.1711 63.8536 19.3033 63.8264 19.4703ZM46.0618 19.5C46.2439 19.6817 46.259 19.7403 46.1625 19.8917C46.0543 20.0616 45.7613 20.1262 45.2326 20.0968L44.7253 20.0685V19.7009V19.3333H45.31C45.7834 19.3333 45.9265 19.3651 46.0618 19.5Z" fill="#333333"/>
</svg>
