<svg width="95" height="35" viewBox="0 0 95 35" fill="none" xmlns="http://www.w3.org/2000/svg">
<rect width="95" height="35" rx="15" fill="#ECE4C0"/>
<path fill-rule="evenodd" clip-rule="evenodd" d="M20 17V21H47.5H75V17V13H47.5H20V17ZM74.7552 17V20.76H47.5H20.2448L20.2007 17.1637C20.1766 15.1856 20.1927 13.4754 20.2366 13.3632C20.3011 13.1986 25.5901 13.1669 47.5359 13.1995L74.7552 13.24V17ZM20.9792 17V20.201L47.5408 20.1605L74.1024 20.12V17V13.88L47.5408 13.8395L20.9792 13.799V17ZM25.8398 17.0518C25.8858 18.9411 25.8855 18.9435 25.5134 18.8918C25.1584 18.8424 25.1388 18.7667 25.0943 17.28L25.0476 15.72H24.1558H23.2641V17.32V18.92H22.8561H22.4481V17.192C22.4481 16.0346 22.5147 15.3987 22.6495 15.2666C22.787 15.1317 23.3175 15.0834 24.3223 15.1146L25.7938 15.16L25.8398 17.0518ZM29.6991 15.3314C29.862 15.4912 29.9555 15.867 29.9555 16.3624C29.9555 16.9866 29.8832 17.1915 29.5927 17.3909C29.3662 17.5466 28.8764 17.64 28.287 17.64H27.3442V18.28C27.3442 18.856 27.3034 18.92 26.9362 18.92H26.5282V17.1067C26.5282 16.1093 26.5772 15.2453 26.637 15.1867C26.6968 15.128 27.3525 15.08 28.0941 15.08C29.1024 15.08 29.5073 15.1434 29.6991 15.3314ZM33.602 15.2576C34.1381 15.4971 34.362 16.04 34.362 17.0998C34.362 17.8718 34.2989 18.0466 33.8669 18.4701C33.3919 18.9355 33.3244 18.9528 32.2152 18.8914C31.2473 18.8378 31.0086 18.7669 30.7519 18.456C30.5176 18.1723 30.4451 17.8224 30.4451 16.975C30.4451 16.0102 30.4973 15.8142 30.8458 15.4728C31.182 15.143 31.4034 15.08 32.2252 15.08C32.7638 15.08 33.3831 15.16 33.602 15.2576ZM37.9525 15.4C37.9525 15.6798 37.8437 15.72 37.0861 15.72C35.8816 15.72 35.63 15.9411 35.63 17C35.63 18.0589 35.8816 18.28 37.0861 18.28C37.8437 18.28 37.9525 18.3202 37.9525 18.6C37.9525 18.884 37.8437 18.92 36.9839 18.92C36.4512 18.92 35.8234 18.8485 35.5888 18.761C35.1093 18.5822 34.6884 17.759 34.6884 17C34.6884 16.2826 35.1082 15.4168 35.5381 15.2477C35.744 15.1666 36.3716 15.0957 36.9325 15.0901C37.8471 15.0811 37.9525 15.1131 37.9525 15.4ZM41.8694 15.4C41.8694 15.6726 41.7606 15.72 41.135 15.72H40.4006V17.32V18.92H39.9926H39.5846V17.32V15.72H38.8501C38.2246 15.72 38.1157 15.6726 38.1157 15.4C38.1157 15.0986 38.2246 15.08 39.9926 15.08C41.7606 15.08 41.8694 15.0986 41.8694 15.4ZM44.9361 15.1826C45.1417 15.2365 45.417 15.484 45.5481 15.7323C45.8299 16.2667 45.8616 17.623 45.6052 18.1749C45.3661 18.6891 44.8105 18.92 43.8121 18.92C42.9281 18.92 42.1324 18.6058 41.9708 18.1928C41.9151 18.0504 41.8694 17.4685 41.8694 16.8997C41.8694 16.0149 41.9274 15.8086 42.2701 15.4728C42.6039 15.1454 42.8281 15.0803 43.6165 15.0822C44.1367 15.0834 44.7306 15.1285 44.9361 15.1826ZM52.2196 15.1771C52.4342 15.2579 52.4777 15.5835 52.4777 17.1083C52.4777 18.9187 52.473 18.9416 52.1105 18.8912C51.7621 18.8426 51.7409 18.7602 51.6965 17.2722L51.6496 15.7043L50.7398 15.7522L49.8299 15.8L49.8074 17.32C49.786 18.7667 49.7672 18.8424 49.4177 18.8912C49.0553 18.9416 49.0504 18.9182 49.0504 17.1178C49.0504 16.1144 49.0994 15.2453 49.1593 15.1867C49.2953 15.0533 51.8692 15.0453 52.2196 15.1771ZM56.4985 15.4333C56.8063 15.7349 56.9752 17.0349 56.8152 17.8706C56.6646 18.6582 56.0095 18.9774 54.7301 18.8867C54.0199 18.8363 53.677 18.7269 53.4098 18.465C53.1056 18.1667 53.049 17.9338 53.049 16.9818C53.049 15.9317 53.0824 15.824 53.5263 15.4496C53.9564 15.0872 54.1147 15.0533 55.1171 15.1088C55.8649 15.1501 56.3184 15.2566 56.4985 15.4333ZM60.2184 15.3314C60.4952 15.6027 60.5701 16.6034 60.3248 16.752C60.2394 16.8037 60.2773 17.0442 60.4124 17.3099C60.7224 17.9189 60.552 18.5792 60.0354 18.7717C59.8166 18.8533 59.1282 18.92 58.5057 18.92C57.4827 18.92 57.3739 18.8893 57.3739 18.6C57.3739 18.3107 57.4827 18.28 58.5054 18.28C59.5115 18.28 59.6488 18.2427 59.7456 17.9438C59.8055 17.759 59.7919 17.5469 59.7157 17.4723C59.6395 17.3979 59.0998 17.315 58.5163 17.2885C57.704 17.2514 57.4555 17.1837 57.4555 17C57.4555 16.8195 57.7184 16.7402 58.5163 16.68C59.529 16.6037 59.5794 16.58 59.6287 16.16L59.6805 15.72H58.5271C57.4827 15.72 57.3739 15.6898 57.3739 15.4C57.3739 15.1069 57.4827 15.08 58.6679 15.08C59.6266 15.08 60.0282 15.1451 60.2184 15.3314ZM61.815 16.56L61.862 18.04L62.7765 16.6C63.5864 15.3243 63.7447 15.16 64.1637 15.16H64.6365L64.6825 17.0518C64.7285 18.9411 64.7282 18.9435 64.3561 18.8918C63.9961 18.8418 63.9855 18.7936 64.0361 17.44C64.065 16.6701 64.0282 16.0419 63.9545 16.0442C63.8809 16.0466 63.4533 16.6598 63.0045 17.407C62.2188 18.715 61.7448 19.115 61.3001 18.8456C61.1952 18.7821 61.1276 18.024 61.1276 16.9106C61.1276 15.1984 61.1483 15.08 61.4478 15.08C61.7396 15.08 61.7724 15.2117 61.815 16.56ZM66.1053 17C66.1053 18.7864 66.0946 18.8414 65.7381 18.8912C65.3747 18.9418 65.3709 18.9227 65.3709 17C65.3709 15.0773 65.3747 15.0582 65.7381 15.1088C66.0946 15.1586 66.1053 15.2136 66.1053 17ZM67.8995 16.0411L66.9294 17.0021L67.8144 17.7611C68.3011 18.1784 68.7262 18.52 68.7592 18.52C68.792 18.52 69.1078 17.8437 69.461 17.017C69.814 16.1904 70.1855 15.4163 70.2865 15.297C70.5732 14.9584 71.1686 15.0365 71.3773 15.44C71.8991 16.449 72.8331 18.7509 72.7528 18.8298C72.7022 18.8794 72.5222 18.92 72.353 18.92C72.158 18.92 71.9828 18.7445 71.8746 18.44C71.7114 17.981 71.6625 17.96 70.7567 17.96C69.8509 17.96 69.8019 17.981 69.6387 18.44C69.4865 18.8683 69.3959 18.92 68.7969 18.92C68.213 18.92 68.0106 18.8131 67.238 18.0968C66.7192 17.6158 66.3501 17.1358 66.3501 16.9422C66.3501 16.76 66.6963 16.2666 67.1192 15.8454C67.699 15.2685 68.0091 15.08 68.3789 15.08H68.8695L67.8995 16.0411ZM27.3441 16.3117L27.3437 16.92L28.2508 16.8646L29.1577 16.8093L29.1078 16.3046C29.0595 15.816 29.0308 15.7984 28.201 15.7517L27.3442 15.7032L27.3441 16.3117ZM31.5175 15.9714C31.172 16.3102 31.172 17.6898 31.5175 18.0286C31.6624 18.1706 32.0491 18.28 32.406 18.28C32.8739 18.28 33.1037 18.1877 33.2919 17.9243C33.4316 17.7288 33.546 17.3128 33.546 17C33.546 16.6872 33.4316 16.2712 33.2919 16.0757C33.1037 15.8123 32.8739 15.72 32.406 15.72C32.0491 15.72 31.6624 15.8294 31.5175 15.9714ZM42.9419 15.9714C42.5701 16.336 42.5975 17.6723 42.984 18.0152C43.4005 18.3848 44.3593 18.3568 44.7214 17.9645C44.9489 17.7179 44.9951 17.469 44.9321 16.8274C44.8879 16.3755 44.7498 15.9427 44.6255 15.8654C44.255 15.6355 43.218 15.7008 42.9419 15.9714ZM54.0398 15.9714C53.8784 16.1298 53.7834 16.5056 53.7834 16.9866C53.7834 17.9054 54.1207 18.28 54.9483 18.28C55.8329 18.28 56.0854 18.0045 56.0931 17.0306C56.0966 16.5682 56.0101 16.0842 55.9008 15.9549C55.6304 15.6355 54.3711 15.6466 54.0398 15.9714ZM70.3918 16.6L70.1195 17.32H70.782C71.3481 17.32 71.4276 17.2794 71.3287 17.04C71.2651 16.8861 71.1397 16.5619 71.0504 16.32C70.961 16.0781 70.8375 15.88 70.7759 15.88C70.7142 15.88 70.5414 16.204 70.3918 16.6Z" fill="#333333"/>
</svg>
