<svg width="95" height="35" viewBox="0 0 95 35" fill="none" xmlns="http://www.w3.org/2000/svg">
<rect width="95" height="35" rx="15" fill="#ECE4C0"/>
<path fill-rule="evenodd" clip-rule="evenodd" d="M44.9947 9.1934C43.3486 9.57814 41.8206 10.4389 40.6203 11.6578C39.8478 12.4422 39.3204 13.1957 38.8569 14.1771C38.4299 15.0815 38.1561 16.0823 38.0459 17.1412C37.8771 18.7637 38.1743 20.3936 38.9244 21.9593C39.3859 22.9224 40.1026 23.9041 40.843 24.5873C41.9548 25.6131 43.423 26.4207 44.8233 26.7769C45.6651 26.991 47.5924 27.0708 48.4719 26.9282C51.5191 26.4338 54.2132 24.2659 55.3497 21.3938C55.6704 20.5832 55.8534 19.8191 55.9572 18.8575C56.0685 17.826 55.9598 16.5973 55.6651 15.558C55.4171 14.6834 54.8572 13.4921 54.3733 12.8098C53.0059 10.8812 50.9519 9.5493 48.6668 9.10931C48.3137 9.0413 47.6075 8.99679 46.9341 9.00018C46.0436 9.00462 45.6235 9.04647 44.9947 9.1934ZM53.8117 15.2279C53.731 15.3175 53.5962 15.428 53.512 15.4733C53.4277 15.5187 53.0376 15.5826 52.6451 15.6153C52.0135 15.668 51.9042 15.701 51.6955 15.9022C51.5658 16.0272 51.4175 16.2584 51.3658 16.416C51.0614 17.3443 51.4946 19.0145 52.1447 19.4187C52.4844 19.6301 52.8315 19.6207 53.042 19.3946C53.2982 19.1193 53.3825 18.8161 53.3806 18.1777C53.3778 17.2545 53.0266 16.6684 52.4763 16.6684C52.3508 16.6684 52.1786 16.7058 52.0937 16.7516C51.888 16.8623 51.6968 17.2483 51.6968 17.5529C51.6968 17.718 51.6571 17.7992 51.5764 17.7992C51.4083 17.7992 51.4197 17.3464 51.5966 16.9972C51.7807 16.6339 52.0757 16.4245 52.4808 16.3698C53.2103 16.2713 53.9467 16.9363 54.0647 17.7999C54.1683 18.5575 53.7416 19.466 53.1336 19.7824C53.01 19.8468 52.7249 19.8994 52.5003 19.8994C51.7257 19.8994 51.1771 19.4296 50.9702 18.5891C50.9154 18.3666 50.8894 17.845 50.9079 17.337C50.9341 16.6124 50.9744 16.3905 51.1479 16.0135C51.2752 15.7369 51.4748 15.4696 51.6605 15.3269C51.9454 15.108 52.0195 15.0915 52.83 15.066C53.494 15.0451 53.7197 15.0093 53.7998 14.912C53.8938 14.7978 53.9067 14.7991 53.9312 14.9251C53.9461 15.0019 53.8923 15.1382 53.8117 15.2279ZM43.1887 16.4974C43.1887 16.5366 43.1165 16.5877 43.0282 16.611C42.8749 16.6513 42.8677 16.7212 42.8677 18.1627C42.8677 19.6043 42.8749 19.6742 43.0282 19.7145C43.3785 19.8067 43.1571 19.8994 42.5868 19.8994C42.0164 19.8994 41.795 19.8067 42.1453 19.7145C42.2986 19.6742 42.3058 19.6043 42.3058 18.1703V16.6684H41.5433H40.7808V18.1703C40.7808 19.6043 40.788 19.6742 40.9413 19.7145C41.0296 19.7377 41.1019 19.7889 41.1019 19.8281C41.1019 19.8673 40.8107 19.8994 40.455 19.8994C40.0442 19.8994 39.8263 19.87 39.8578 19.8187C39.885 19.7742 39.9555 19.7379 40.0144 19.7379C40.0733 19.7379 40.1434 19.6804 40.1702 19.6101C40.2337 19.4436 40.2337 16.8819 40.1702 16.7154C40.1434 16.6451 40.0733 16.5876 40.0144 16.5876C39.9555 16.5876 39.885 16.5512 39.8578 16.5068C39.8253 16.4539 40.392 16.426 41.4985 16.426C42.4281 16.426 43.1887 16.4582 43.1887 16.4974ZM44.3927 16.5068C44.3927 16.5512 44.3566 16.5876 44.3125 16.5876C44.164 16.5876 44.2301 16.8048 44.6435 17.6756L45.0547 18.5421L45.444 17.6658C45.6582 17.1839 45.8343 16.7441 45.8354 16.6886C45.8365 16.6331 45.8014 16.5876 45.7572 16.5876C45.7131 16.5876 45.677 16.5512 45.677 16.5068C45.677 16.4581 46.0036 16.4267 46.4997 16.4276L47.3224 16.4293L47.8752 17.68L48.428 18.9307L48.9742 17.71C49.2746 17.0386 49.5364 16.473 49.5561 16.4533C49.5757 16.4335 49.8035 16.431 50.0624 16.4474C50.4178 16.4701 50.4888 16.4932 50.3524 16.5419C50.1737 16.6058 50.1718 16.6228 50.1718 18.1343C50.1718 19.4179 50.191 19.6696 50.2922 19.7086C50.5756 19.8181 50.3704 19.8994 49.8106 19.8994C49.2402 19.8994 49.0189 19.8067 49.3691 19.7145C49.5208 19.6746 49.5297 19.6043 49.5297 18.4396C49.5297 17.7616 49.5163 17.222 49.5001 17.2405C49.4839 17.2591 49.2079 17.8649 48.8868 18.5868C48.5657 19.3088 48.281 19.8989 48.2541 19.8982C48.2273 19.8976 47.9344 19.2604 47.6033 18.4823L47.0013 17.0676L46.9783 18.221C46.9656 18.8554 46.9753 19.4561 46.9999 19.5561C47.0244 19.6561 47.098 19.7379 47.1634 19.7379C47.2288 19.7379 47.2823 19.7742 47.2823 19.8187C47.2823 19.8631 47.0836 19.8994 46.8408 19.8994C46.4047 19.8994 46.2484 19.7965 46.5599 19.7145C46.7131 19.6742 46.7204 19.6043 46.7204 18.1751C46.7204 17.2104 46.6902 16.6591 46.6356 16.6251C46.5889 16.5961 46.4673 16.5935 46.3654 16.6192C46.2149 16.6572 46.0535 16.9495 45.509 18.1698C45.1399 18.9968 44.7659 19.7244 44.6777 19.7865C44.5896 19.8486 44.4172 19.8994 44.2946 19.8994C44.1101 19.8994 44.0717 19.8645 44.0717 19.6969C44.0717 19.5192 44.0902 19.5058 44.2216 19.5884C44.4263 19.7171 44.618 19.6263 44.6818 19.3705C44.7232 19.2041 44.6016 18.886 44.1238 17.911C43.7877 17.2254 43.4579 16.6432 43.3909 16.6174C43.1122 16.5097 43.3046 16.426 43.8309 16.426C44.1519 16.426 44.3927 16.4607 44.3927 16.5068Z" fill="#333333"/>
</svg>
