<svg width="95" height="35" viewBox="0 0 95 35" fill="none" xmlns="http://www.w3.org/2000/svg">
<rect width="95" height="35" rx="15" fill="#ECE4C0"/>
<path fill-rule="evenodd" clip-rule="evenodd" d="M51.407 12.0836C50.7459 12.278 50.3477 12.8554 50.3477 13.6197C50.3477 13.9537 50.3209 14.0122 50.168 14.0122C50.0082 14.0122 49.9883 14.0706 49.9883 14.5378C49.9883 15.0401 49.9983 15.0635 50.2129 15.0635H50.4375V16.1587V17.2538H51.0664H51.6953V16.1587V15.0635H52.3242H52.9531V16.1625V17.2615L53.6045 17.2358L54.2559 17.21L54.2811 16.1368L54.3064 15.0635H54.7079H55.1094V14.5378V14.0122H54.6602H54.2109V13.621C54.2109 13.1843 54.4119 12.9985 54.805 13.0717C55.0114 13.1102 55.0195 13.0922 55.0195 12.5998C55.0195 12.1238 55.0035 12.0841 54.7895 12.0318C54.4279 11.9432 53.764 12.0489 53.5044 12.2364C53.0568 12.5596 52.8633 12.9409 52.8633 13.4995V14.0122H52.2793H51.6953V13.6286C51.6953 13.1554 51.8516 13.0076 52.28 13.0754L52.5938 13.125V12.6151C52.5938 12.1603 52.5719 12.0994 52.3916 12.0523C52.1234 11.9822 51.7071 11.9955 51.407 12.0836ZM26 18.0861V24H32.0195H38.0391V18.0861V12.1723H32.0195H26V18.0861ZM48.5917 12.3874C47.9707 12.9929 48.8207 13.9422 49.4849 13.385C49.8052 13.1163 49.8276 12.6908 49.5372 12.3893C49.2643 12.1061 48.8808 12.1054 48.5917 12.3874ZM59.3729 12.3874C58.9731 12.7772 59.1528 13.4149 59.6952 13.5311C60.2191 13.6433 60.6836 13.125 60.4943 12.6394C60.3003 12.1418 59.7512 12.0184 59.3729 12.3874ZM37.6797 18.0861V23.6495H32.0195H26.3594V18.0861V12.5227H32.0195H37.6797V18.0861ZM39.8359 14.9359V17.2615L40.4873 17.2358L41.1387 17.21L41.1836 16.5286L41.2285 15.847L41.7227 16.5286L42.2168 17.21L42.958 17.2354C43.3656 17.2494 43.6992 17.2371 43.6992 17.208C43.6992 17.1789 43.415 16.7642 43.0677 16.2866L42.4363 15.418L42.7975 15.0997C43.4358 14.5375 43.4983 13.7684 42.955 13.1649C42.5258 12.6882 42.2461 12.6104 40.9619 12.6104H39.8359V14.9359ZM28.089 13.408C27.4232 13.7294 26.8493 14.6417 26.7444 15.5454L26.6935 15.9834L26.9141 15.7863C27.0354 15.6779 27.1712 15.5892 27.2159 15.5892C27.2607 15.5892 27.644 15.9512 28.0676 16.3936L28.838 17.1982L29.126 16.9905C29.3927 16.7982 29.4141 16.7451 29.4141 16.2736C29.4141 15.9935 29.4464 15.7644 29.4859 15.7644C29.688 15.7644 29.7734 16.0225 29.7734 16.6325C29.7734 17.2735 29.782 17.2988 30.1078 17.6242L30.4421 17.9581L28.6697 19.6881L26.8973 21.4181L27.6693 22.1615L28.4412 22.9048L30.1588 21.1712L31.8762 19.4374L33.6783 21.1932L35.4803 22.9489L36.2206 22.2846C36.6278 21.9193 36.9609 21.5738 36.9609 21.5171C36.9609 21.4602 36.172 20.6453 35.2077 19.7061L33.4546 17.9985L33.8151 17.6735L34.1758 17.3485V16.6576C34.1758 16.0781 34.2047 15.9412 34.3555 15.8082C34.5334 15.6512 34.5352 15.6553 34.5401 16.2108C34.5447 16.7282 34.5663 16.7883 34.8173 16.9819L35.0894 17.1918L35.9328 16.3729L36.776 15.5539L36.9866 15.7468C37.294 16.0284 37.348 15.9885 37.3013 15.5145C37.2115 14.6029 36.371 13.5102 35.6049 13.3091C34.9559 13.1387 34.7042 13.2724 33.5521 14.4003C32.532 15.3989 32.5254 15.4081 32.6923 15.588C32.8585 15.7671 32.8556 15.7742 32.4653 16.1621C32.248 16.3781 32.0434 16.5445 32.0107 16.5319C31.9781 16.5194 31.781 16.358 31.5726 16.1732L31.1938 15.8373L31.4045 15.6157L31.6152 15.3941L30.582 14.4294C29.232 13.1689 28.8817 13.0254 28.089 13.408ZM41.8992 13.8312C42.124 14.2408 41.9049 14.6255 41.4467 14.6255C41.1876 14.6255 41.1836 14.618 41.1836 14.1436V13.6617H41.4949C41.7107 13.6617 41.8347 13.7137 41.8992 13.8312ZM62.3051 13.9224C61.7355 14.0108 61.3086 14.4762 61.3086 15.0088C61.3086 15.5144 61.5036 15.7369 62.1181 15.9321C62.6906 16.114 62.8517 16.3777 62.3904 16.3777C62.2369 16.3777 61.965 16.318 61.786 16.2451C61.6071 16.1723 61.4516 16.1229 61.4406 16.1356C61.4295 16.1483 61.3311 16.3316 61.2217 16.5429C60.991 16.989 61.0032 17.0047 61.7481 17.2206C62.7792 17.5196 63.6987 17.2008 63.9245 16.4659C64.0102 16.1871 64.0058 16.0572 63.9018 15.7909C63.7636 15.4366 63.55 15.2927 62.9482 15.1483C62.7056 15.0901 62.5664 15.0077 62.5664 14.9222C62.5664 14.8157 62.6621 14.7926 63.0266 14.8115C63.469 14.8344 63.4931 14.8236 63.6517 14.5333C63.8952 14.0874 63.869 14.0288 63.3975 13.9663C63.1627 13.9352 62.9101 13.8988 62.8359 13.8854C62.7618 13.8719 62.523 13.8885 62.3051 13.9224ZM44.8223 14.0265C44.1972 14.3629 43.8517 14.9164 43.8468 15.5892C43.8382 16.7925 45.0156 17.6494 46.0813 17.2152C46.3086 17.1226 46.448 17.1035 46.468 17.1621C46.4858 17.2142 46.7678 17.2538 47.1207 17.2538H47.7422V15.633V14.0122H47.1133C46.7434 14.0122 46.4844 14.0491 46.4844 14.1021C46.4844 14.1536 46.3713 14.1348 46.2193 14.0582C45.913 13.9038 45.0854 13.885 44.8223 14.0265ZM56.1426 14.0702C55.0128 14.6509 54.797 15.9209 55.6815 16.7835C56.2766 17.3638 57.2113 17.4951 58.0348 17.114C58.3172 16.9834 58.793 16.4536 58.793 16.2698C58.793 16.1436 57.6677 16.1963 57.4849 16.3311C57.133 16.5907 56.5364 16.42 56.4317 16.03C56.3855 15.8577 56.4223 15.852 57.5832 15.852C58.2428 15.852 58.8053 15.8159 58.8332 15.7718C58.8612 15.7276 58.8394 15.4879 58.7847 15.2392C58.6704 14.7198 58.2751 14.2237 57.8315 14.0429C57.436 13.8818 56.479 13.8972 56.1426 14.0702ZM65.2168 14.0702C64.087 14.6509 63.8712 15.9209 64.7557 16.7835C65.3593 17.372 66.3342 17.4998 67.1374 17.0957C67.4337 16.9467 67.8672 16.4604 67.8672 16.2771C67.8672 16.1386 66.6418 16.1902 66.5195 16.3339C66.2815 16.6136 65.6083 16.4117 65.5059 16.03C65.4597 15.8577 65.4965 15.852 66.6574 15.852C67.317 15.852 67.8799 15.8151 67.9085 15.7701C67.9953 15.6332 67.7803 14.8625 67.5704 14.5584C67.2829 14.1418 66.7621 13.9238 66.0644 13.9281C65.7173 13.9302 65.3786 13.9869 65.2168 14.0702ZM70.001 14.0575C69.8157 14.124 69.6641 14.1409 69.6641 14.0952C69.6641 14.0495 69.3811 14.0122 69.0352 14.0122H68.4062V15.633V17.2538H69.0352H69.6641V16.2161C69.6641 15.083 69.7448 14.8868 70.2102 14.8896C70.6164 14.8921 70.6452 14.9686 70.6719 16.1183L70.6973 17.21L71.3486 17.2358L72 17.2615V16.1373C72 15.1437 71.9765 14.9684 71.7979 14.6286C71.4613 13.9885 70.7897 13.7751 70.001 14.0575ZM48.3711 15.633V17.2538H49.0449H49.7188V15.633V14.0122H49.0449H48.3711V15.633ZM59.1523 15.633V17.2538H59.8262H60.5V15.633V14.0122H59.8262H59.1523V15.633ZM57.4234 14.954C57.4497 15.0322 57.3265 15.0635 56.9926 15.0635C56.5802 15.0635 56.5385 15.0474 56.6405 14.9276C56.7773 14.7669 57.3671 14.7867 57.4234 14.954ZM66.4976 14.954C66.5239 15.0322 66.4008 15.0635 66.0668 15.0635C65.6544 15.0635 65.6127 15.0474 65.7147 14.9276C65.8515 14.7669 66.4413 14.7867 66.4976 14.954ZM46.3191 15.1262C46.6376 15.3942 46.591 15.902 46.2227 16.1778C45.977 16.3617 45.5098 16.3114 45.2674 16.075C44.6177 15.4415 45.6195 14.5375 46.3191 15.1262ZM40.2034 21.4373C39.9944 22.6781 39.8022 23.7658 39.7763 23.8544C39.7315 24.0067 39.8074 24.0138 41.1975 23.9858C42.5516 23.9585 42.6923 23.9402 43.0037 23.7514C43.7454 23.3017 44.0113 22.3288 43.5671 21.6904L43.3451 21.3714L43.5671 20.9641C43.822 20.4965 43.8414 20.2615 43.6597 19.8375C43.4267 19.2937 43.103 19.182 41.7594 19.1817L40.5833 19.1813L40.2034 21.4373ZM45.055 21.5596C44.3587 22.8675 43.7891 23.9517 43.7891 23.9689C43.7891 23.986 44.1024 23.9999 44.4854 23.9997L45.1816 23.9995L45.4062 23.5836L45.6309 23.1677H46.43H47.2292L47.3536 23.5838L47.4781 24H48.1553C48.7591 24 48.8271 23.9834 48.783 23.8467C48.7559 23.7623 48.5084 22.7471 48.233 21.5907C47.9575 20.4342 47.7115 19.419 47.6862 19.3346C47.6479 19.2066 47.5314 19.1813 46.9805 19.1813H46.3208L45.055 21.5596ZM49.5555 21.5249C49.3959 22.814 49.2663 23.8982 49.2675 23.9343C49.2686 23.9704 49.5655 24 49.9272 24H50.5849L50.6971 22.9267C50.7587 22.3365 50.8329 21.6801 50.8619 21.4683C50.9261 21.0008 50.8598 20.9272 51.9775 22.7077L52.7888 24H53.4998C53.8909 24 54.2111 23.9901 54.2113 23.9781C54.2115 23.9661 54.3322 22.9903 54.4796 21.8097C54.8428 18.8991 54.8806 19.1813 54.1271 19.1813C53.611 19.1813 53.4966 19.2076 53.4592 19.3346C53.4345 19.419 53.3448 20.0893 53.2598 20.8244C53.1342 21.9107 53.0855 22.1321 52.9994 22.0072C52.9411 21.9226 52.519 21.2523 52.0613 20.5174L51.2293 19.1813H50.5374H49.8456L49.5555 21.5249ZM55.6962 19.3784C55.5957 19.8148 54.8398 23.81 54.8398 23.9052C54.8398 23.9764 55.0496 23.9997 55.5323 23.9818L56.2247 23.9562L56.3864 23.1677C56.4754 22.734 56.5589 22.3469 56.572 22.3075C56.5851 22.2682 56.8712 22.6328 57.2078 23.1179L57.8196 24H58.7106C59.2006 24 59.6016 23.9761 59.6016 23.9468C59.6016 23.8999 58.9288 22.9307 58.131 21.8283L57.8591 21.4525L59.021 20.3169L60.1829 19.1813H59.2752H58.3676L57.6594 19.9632C57.2698 20.3933 56.927 20.7482 56.8974 20.7518C56.8492 20.7576 56.9052 20.2683 57.0446 19.466L57.0941 19.1813H56.4179C55.79 19.1813 55.7385 19.1954 55.6962 19.3784ZM42.2094 20.3735C42.5297 20.4933 42.3013 20.9336 41.9188 20.9336C41.7375 20.9336 41.7106 20.9011 41.7559 20.7364C41.7856 20.6281 41.8106 20.4901 41.8112 20.4298C41.8126 20.3119 41.981 20.2879 42.2094 20.3735ZM46.8314 21.5177C46.8876 21.7908 46.9336 22.047 46.9336 22.0872C46.9336 22.1273 46.7483 22.1601 46.5218 22.1601C46.2953 22.1601 46.1235 22.1277 46.14 22.0881C46.3474 21.5892 46.6307 21.0239 46.6741 21.0227C46.7044 21.0219 46.7751 21.2446 46.8314 21.5177ZM42.3368 22.3749C42.3738 22.6912 42.1688 22.861 41.7504 22.861C41.4341 22.861 41.3825 22.7328 41.511 22.2652C41.5591 22.09 41.6149 22.067 41.9365 22.09C42.2722 22.1139 42.3094 22.1403 42.3368 22.3749Z" fill="#333333"/>
</svg>
