<svg width="95" height="35" viewBox="0 0 95 35" fill="none" xmlns="http://www.w3.org/2000/svg">
<rect width="95" height="35" rx="15" fill="#ECE4C0"/>
<path fill-rule="evenodd" clip-rule="evenodd" d="M39.9999 12.3356C39.9999 14.4064 40.0308 15.8406 40.0815 16.1178C40.2538 17.0622 40.8625 17.9654 41.6847 18.497C42.1881 18.8225 42.9524 19.0859 43.3934 19.0859H43.6864V18.6474C43.6864 18.1398 43.53 17.9331 43.0846 17.8527C42.3776 17.7249 41.618 17.0325 41.351 16.2725C41.2135 15.8811 41.2037 15.637 41.2037 12.6114V9.36949L41.019 9.18478C40.8674 9.03304 40.7598 9 40.4171 9H39.9999V12.3356ZM31.3289 11.3655C30.7363 11.577 30.2806 12.059 30.0974 12.6679C29.9642 13.1108 29.9667 13.3227 30.1107 13.808C30.2371 14.2337 30.6015 14.694 31.0141 14.9491C31.1824 15.0532 32.1982 15.3063 34.035 15.702C37.4768 16.4432 37.3399 16.4039 37.5205 16.7002C37.7061 17.005 37.7061 17.253 37.5203 17.5579C37.2878 17.9395 37.0654 17.9651 34.2032 17.941L31.6413 17.9193L31.3086 17.5618C30.9772 17.2057 30.9737 17.2042 30.4847 17.2042C29.9318 17.2042 29.9336 17.2016 30.1043 17.7739C30.252 18.2694 30.6141 18.69 31.0792 18.9067C31.4592 19.0838 31.4721 19.0845 34.3485 19.0852C36.3463 19.0857 37.3274 19.0587 37.5317 18.9974C37.9066 18.885 38.453 18.4066 38.6659 18.0042C38.8968 17.5678 38.8979 16.6923 38.6682 16.2583C38.4838 15.9101 37.984 15.4298 37.6825 15.3113C37.5709 15.2674 36.1855 14.9517 34.6038 14.6096C33.0221 14.2676 31.641 13.9306 31.5346 13.8608C31.1257 13.5928 31.0893 13.0822 31.4532 12.7182L31.709 12.4623H34.414H37.119L37.2993 12.6487C37.3984 12.7511 37.5388 12.9036 37.6112 12.9874C37.7182 13.1112 37.8344 13.1398 38.2319 13.1398C38.681 13.1398 38.7209 13.1267 38.7209 12.9791C38.7209 12.3989 38.2427 11.7202 37.6342 11.4367C37.2557 11.2604 37.2401 11.2596 34.4325 11.2621C32.2715 11.2641 31.5451 11.2882 31.3289 11.3655ZM47.0344 11.3258C46.1962 11.5392 45.4092 12.1868 45.0194 12.9836L44.7774 13.4785V15.1736V16.8689L45.0239 17.3698C45.3371 18.0062 45.8471 18.5154 46.4702 18.814L46.9592 19.0483H49.2555H51.5519L52.0526 18.8017C52.6802 18.4925 53.1766 17.9941 53.4886 17.3598L53.7304 16.8684V15.1734C53.7304 13.4898 53.729 13.4756 53.5275 13.0454C53.2437 12.4397 52.6468 11.8333 52.0431 11.5378L51.5485 11.2957L49.4043 11.282C48.225 11.2745 47.1586 11.2942 47.0344 11.3258ZM55.5553 11.3901C55.1224 11.6586 55.1115 11.747 55.1368 14.7783C55.1625 17.8593 55.1547 17.8092 55.698 18.412C56.0237 18.7735 56.6172 19.0841 56.9843 19.0852L57.2288 19.0859V18.667C57.2288 18.168 57.1503 17.998 56.8471 17.8412C56.7223 17.7766 56.5542 17.6153 56.4734 17.4828C56.3359 17.2572 56.3265 17.0895 56.3263 14.8521L56.326 12.4623H58.0485C59.548 12.4623 59.8329 12.4815 60.2491 12.6102C61.4247 12.9736 62.3313 13.9052 62.6586 15.0859C62.7829 15.5348 62.7962 15.9226 62.7962 19.1066V22.6304L62.9809 22.8151C63.1325 22.9668 63.2401 22.9999 63.5828 22.9999H64L63.9987 19.2929C63.9977 16.3316 63.9752 15.48 63.8872 15.0591C63.6015 13.6931 62.6038 12.4008 61.3668 11.7946C60.4004 11.321 59.987 11.2605 57.7178 11.2614C56.0079 11.262 55.7358 11.2781 55.5553 11.3901ZM51.581 12.6479C52.01 12.8654 52.3577 13.2578 52.4784 13.6608C52.6146 14.1155 52.5915 16.4661 52.4475 16.8115C52.3004 17.1646 51.9372 17.5463 51.5485 17.7565C51.2617 17.9117 51.1545 17.9193 49.2539 17.9193C47.3394 17.9193 47.2477 17.9127 46.9484 17.7525C46.5543 17.5416 46.1439 17.0655 46.0309 16.688C45.9794 16.5161 45.9438 15.8746 45.9443 15.1256C45.9449 13.9479 45.958 13.8273 46.1223 13.4785C46.322 13.0549 46.5212 12.8518 46.9592 12.6249C47.2406 12.479 47.3881 12.4688 49.2375 12.4656C51.1935 12.4623 51.2189 12.4644 51.581 12.6479ZM59.7868 15.0084C59.7868 15.604 59.9593 15.7741 60.5628 15.7741H60.9906V15.4843C60.9906 14.8201 60.7528 14.5698 60.1218 14.5698H59.7868V15.0084ZM30.7539 21.3864C30.0657 21.9658 30.5222 23.0748 31.4089 22.9776C31.8233 22.9322 32.1597 22.6509 31.9958 22.4869C31.9028 22.3937 31.8652 22.3957 31.7142 22.5015C31.4425 22.692 31.0852 22.6584 30.9019 22.4252C30.7084 22.1792 30.7033 21.9402 30.8867 21.7136C31.0632 21.4956 31.4969 21.4771 31.7189 21.678C31.841 21.7887 31.8937 21.7981 31.9815 21.7252C32.1256 21.6055 32.0696 21.4781 31.8041 21.3212C31.4766 21.1277 31.0282 21.1556 30.7539 21.3864ZM35.7867 22.0887V22.9999H35.9748C36.1396 22.9999 36.1629 22.9673 36.1629 22.7364C36.1629 22.4857 36.1756 22.473 36.4253 22.473C36.6539 22.473 36.7017 22.5068 36.7976 22.7364C36.8825 22.9399 36.9513 22.9999 37.0995 22.9999C37.3268 22.9999 37.3263 23.0027 37.1654 22.6654C37.0466 22.4161 37.0471 22.3926 37.1729 22.2534C37.3611 22.0455 37.3474 21.5923 37.1469 21.3917C37.017 21.2617 36.8757 21.227 36.387 21.2048L35.7867 21.1775V22.0887ZM41.0532 22.059V22.9246H41.7679C42.4325 22.9246 42.4827 22.9141 42.4827 22.7741C42.4827 22.6378 42.4325 22.6235 41.956 22.6235C41.4444 22.6235 41.4294 22.6182 41.4294 22.4354C41.4294 22.2556 41.4495 22.2472 41.8808 22.2472C42.3121 22.2472 42.3322 22.2388 42.3322 22.059C42.3322 21.879 42.3125 21.8709 41.8755 21.8709C41.445 21.8709 41.4203 21.8612 41.4429 21.7015C41.4648 21.5477 41.5134 21.5301 41.9748 21.5099C42.421 21.4904 42.4827 21.4698 42.4827 21.3405C42.4827 21.2049 42.4269 21.1934 41.7679 21.1934H41.0532V22.059ZM46.2609 22.0778L46.2821 22.9622L46.5033 22.9875C47.5149 23.1027 48.1797 22.4053 47.7855 21.6426C47.6217 21.3258 47.3122 21.1934 46.7348 21.1934H46.2397L46.2609 22.0778ZM51.5862 22.059V22.9246H51.7742H51.9623V22.059V21.1934H51.7742H51.5862V22.059ZM55.6489 21.3816C55.6489 21.551 55.679 21.5698 55.9498 21.5698H56.2508V22.2472C56.2508 22.9196 56.2522 22.9246 56.4388 22.9246C56.6255 22.9246 56.6269 22.9196 56.6269 22.2472V21.5698H56.9279C57.1987 21.5698 57.2288 21.551 57.2288 21.3816V21.1934H56.4388H55.6489V21.3816ZM36.9186 21.7266C37.0439 21.9609 36.8229 22.1719 36.4522 22.1719C36.1649 22.1719 36.1629 22.1699 36.1629 21.8709V21.5698H36.4988C36.7622 21.5698 36.8528 21.6037 36.9186 21.7266ZM47.4063 21.7371C47.6982 22.1539 47.4414 22.6235 46.9216 22.6235H46.6206V22.0967V21.5698H46.9549C47.2151 21.5698 47.3152 21.6069 47.4063 21.7371Z" fill="#333333"/>
</svg>
