<svg width="95" height="35" viewBox="0 0 95 35" fill="none" xmlns="http://www.w3.org/2000/svg">
<rect width="95" height="35" rx="15" fill="#ECE4C0"/>
<path fill-rule="evenodd" clip-rule="evenodd" d="M56.942 12.1185C56.2592 12.3781 55.741 12.9071 55.3904 13.7025L55.1855 14.1673L55.165 15.9793C55.1525 17.0842 55.1718 17.9304 55.2145 18.1476C55.4315 19.2516 56.1875 20.0924 57.2291 20.3884C57.6965 20.5213 62.16 20.5443 62.7926 20.4172C64.0237 20.1697 64.9415 19.0494 64.9482 17.7861L64.9511 17.2419L63.4313 17.2228L61.9114 17.2035L61.7077 17.5265C61.3919 18.0272 61.2806 18.0642 60.0869 18.0642C58.4708 18.0642 58.2979 17.885 58.2998 16.2118C58.3016 14.6069 58.484 14.394 59.8876 14.3583C61.2127 14.3246 61.4904 14.4276 61.7602 15.0529L61.8717 15.3113L63.4358 15.3305L65 15.3497L64.9725 14.7215C64.9235 13.6041 64.4114 12.7518 63.4922 12.258L63.0534 12.0222L60.1681 12.0056C57.5276 11.9903 57.2539 11.9999 56.942 12.1185ZM33.029 12.15C33.0113 12.2005 33.0049 12.7878 33.0147 13.4549L33.0328 14.6678L34.4903 14.6871L35.9478 14.7063L35.9649 17.5114L35.9821 20.3166H38.2433H40.5044L40.5372 17.5279L40.57 14.7393L41.8113 14.7036L43.0526 14.6678L43.7259 13.4523C44.0963 12.7837 44.4004 12.1965 44.4017 12.1473C44.4053 12.0138 33.076 12.0164 33.029 12.15ZM45.8299 12.3619C44.9928 13.3474 44.2713 14.9653 44.0742 16.2991C43.8752 17.6445 44.1909 19.5746 44.7168 20.2272C44.8228 20.3587 47.8126 20.4277 47.8119 20.2987C47.8117 20.2691 47.7231 20.1003 47.6147 19.9233C47.4129 19.5934 47.0257 18.5845 47.0257 18.3883C47.0257 18.2934 47.2093 18.2787 48.4003 18.2787H49.7748L49.793 19.2976L49.8112 20.3166L51.904 20.3354C53.5348 20.3502 54.0086 20.3344 54.0495 20.2639C54.1402 20.1081 54.1169 12.2435 54.0255 12.1438C53.966 12.0789 52.9863 12.058 50.0174 12.058H46.088L45.8299 12.3619ZM49.7784 15.3113V15.9191H48.4676C47.7467 15.9191 47.1568 15.9051 47.1568 15.888C47.1568 15.7815 47.3225 15.4216 47.5245 15.0896L47.7594 14.7036H48.7689H49.7784V15.3113ZM49.7784 16.8487C49.7784 16.8941 49.2528 16.9202 48.3327 16.9202C47.3855 16.9202 46.9009 16.8955 46.9274 16.8487C46.9524 16.8046 47.507 16.7772 48.3732 16.7772C49.2663 16.7772 49.7784 16.8032 49.7784 16.8487ZM33.0438 21.5439C33.0197 21.5701 33 22.3585 33 23.2959V25H48.9931H64.9862L64.9687 23.2661L64.9511 21.5321L49.0194 21.5141C40.2569 21.5041 33.0679 21.5176 33.0438 21.5439ZM41.3695 22.3881C41.5922 22.4578 41.4879 22.644 41.2546 22.5931C40.7891 22.4916 40.6027 22.7271 40.6027 23.4168C40.6027 23.9756 40.7542 24.1634 41.1778 24.1298C41.5664 24.0991 41.6244 24.2489 41.2648 24.3545C40.2695 24.6469 39.8284 22.7477 40.8055 22.3769C41.0234 22.2943 41.0725 22.2952 41.3695 22.3881ZM47.3036 22.4365C47.6386 22.6279 47.7603 23.5355 47.5132 23.9995C47.2216 24.5473 46.488 24.5063 46.223 23.9275C45.7936 22.9898 46.5194 21.9883 47.3036 22.4365ZM35.9493 22.4574C35.9493 22.5246 35.8643 22.568 35.7036 22.5825L35.4578 22.6047L35.4394 23.4806C35.4222 24.2974 35.4123 24.3565 35.2919 24.3565C35.1704 24.3565 35.1628 24.3041 35.1628 23.4627V22.5689H34.9335C34.7733 22.5689 34.7041 22.5366 34.7041 22.4616C34.7041 22.3738 34.8169 22.3544 35.3267 22.3544C35.8249 22.3544 35.9493 22.375 35.9493 22.4574ZM38.3041 22.837C38.3767 23.1025 38.509 23.5529 38.598 23.8381L38.7598 24.3565H38.6049C38.4856 24.3565 38.4324 24.2982 38.3733 24.1027C38.2606 23.7301 37.6631 23.7459 37.5641 24.1241C37.5185 24.2985 37.4663 24.3565 37.3547 24.3565C37.2076 24.3565 37.2092 24.346 37.5102 23.3554C37.8024 22.3939 37.8214 22.3544 37.9933 22.3544C38.1574 22.3544 38.183 22.3942 38.3041 22.837ZM43.4865 22.7499C43.4865 23.3805 43.875 23.376 44.0674 22.7431C44.1577 22.4462 44.2033 22.3866 44.3549 22.3675C44.5425 22.344 44.606 22.4722 44.4409 22.5414C44.389 22.5631 44.3267 22.6827 44.3025 22.8073C44.2782 22.9318 44.2178 23.084 44.1683 23.1455C44.0911 23.2412 44.097 23.2977 44.2083 23.536C44.28 23.6893 44.3385 23.8711 44.3385 23.94C44.3385 24.009 44.4007 24.1017 44.4766 24.146C44.6468 24.2454 44.5521 24.3794 44.3364 24.3447C44.1727 24.3182 44.1357 24.2561 44.003 23.7844C43.9225 23.4982 43.8891 23.4602 43.6995 23.4403L43.4865 23.4179V23.8872C43.4865 24.3088 43.4732 24.3565 43.3554 24.3565C43.2306 24.3565 43.2244 24.3088 43.2244 23.3554C43.2244 22.4021 43.2306 22.3544 43.3554 22.3544C43.4707 22.3544 43.4865 22.4021 43.4865 22.7499ZM50.0361 22.9443C50.2608 23.8841 50.2552 23.8823 50.4611 23.0782C50.6398 22.3804 50.6531 22.3544 50.8306 22.3544C51.055 22.3544 51.0662 22.3919 51.1221 23.3197C51.1457 23.7129 51.1807 24.1071 51.1998 24.1956C51.227 24.3214 51.206 24.3565 51.1033 24.3565C50.945 24.3565 50.8928 24.2271 50.892 23.8322C50.8918 23.6683 50.8723 23.3601 50.8489 23.1472L50.8063 22.7603L50.5978 23.5405C50.3011 24.6506 50.1913 24.6552 49.934 23.5685C49.7303 22.7081 49.6721 22.7158 49.6542 23.6057C49.6424 24.1889 49.5937 24.3565 49.4358 24.3565C49.3246 24.3565 49.3105 24.3219 49.3414 24.1241C49.3614 23.9962 49.3965 23.6021 49.4194 23.2482C49.4745 22.3952 49.4878 22.3544 49.7101 22.3544C49.8868 22.3544 49.9015 22.3811 50.0361 22.9443ZM54.0386 22.4616C54.0386 22.5451 53.9512 22.5689 53.6453 22.5689H53.2521V22.8457V23.1225L53.5744 23.1692C54.0219 23.2339 54.1995 23.4063 54.1995 23.7759C54.1995 24.2095 54.0691 24.3126 53.4804 24.3451L52.9899 24.3721V23.3632V22.3544H53.5142C53.9366 22.3544 54.0386 22.3753 54.0386 22.4616ZM56.9658 23.3197C57.2959 24.4283 57.287 24.3565 57.0957 24.3565C56.9777 24.3565 56.927 24.3017 56.8806 24.1241C56.7846 23.7574 56.1701 23.727 56.0856 24.0847C56.0346 24.3003 55.7426 24.4875 55.7426 24.3045C55.7426 24.2539 56.1816 22.7836 56.2995 22.439C56.3183 22.3841 56.4063 22.3542 56.5104 22.3675C56.6777 22.3887 56.7064 22.4487 56.9658 23.3197ZM59.1508 22.7477V23.1409H59.4785H59.8062V22.7477C59.8062 22.4021 59.822 22.3544 59.9372 22.3544C60.0621 22.3544 60.0683 22.4021 60.0683 23.3554C60.0683 24.3088 60.0621 24.3565 59.9372 24.3565C59.8196 24.3565 59.8062 24.3088 59.8062 23.8917V23.4269H59.4785H59.1508V23.8917C59.1508 24.3398 59.1449 24.3565 58.9869 24.3565H58.823V23.3554V22.3544H58.9869C59.1418 22.3544 59.1508 22.3758 59.1508 22.7477ZM62.1656 22.7499C62.1656 23.1855 62.2318 23.263 62.5066 23.149C62.6302 23.0977 62.6858 23.0086 62.7204 22.8064C62.7792 22.4635 62.8608 22.3544 63.0584 22.3544C63.2292 22.3544 63.2701 22.4785 63.12 22.5414C63.0681 22.5631 63.0071 22.6732 62.9844 22.7861C62.9616 22.8989 62.8864 23.0698 62.8171 23.1659C62.713 23.3103 62.7075 23.3475 62.7854 23.3801C62.8373 23.4018 62.9131 23.558 62.9538 23.7272C62.9945 23.8963 63.0917 24.0891 63.1698 24.1554C63.2963 24.2629 63.2997 24.2811 63.2013 24.3224C62.9292 24.4363 62.8218 24.3259 62.6774 23.7844C62.6007 23.4969 62.569 23.4603 62.3786 23.4403L62.1656 23.4179V23.8872C62.1656 24.3088 62.1523 24.3565 62.0345 24.3565C61.9097 24.3565 61.9035 24.3088 61.9035 23.3554C61.9035 22.4021 61.9097 22.3544 62.0345 22.3544C62.1498 22.3544 62.1656 22.4021 62.1656 22.7499ZM46.5379 22.7278C46.3002 23.0979 46.4531 24.0828 46.7555 24.13C47.2538 24.2078 47.524 23.568 47.2837 22.8789C47.1597 22.5228 46.7259 22.4349 46.5379 22.7278ZM37.859 23.0244C37.8193 23.1963 37.7684 23.3894 37.7459 23.4535C37.7123 23.5489 37.7514 23.5699 37.9633 23.5699H38.2216L38.1191 23.1409C37.997 22.6295 37.9545 22.6105 37.859 23.0244ZM56.3714 23.0464C56.2218 23.5254 56.2325 23.5699 56.4964 23.5699C56.7624 23.5699 56.7554 23.5961 56.6228 23.0983C56.4981 22.6302 56.5012 22.6308 56.3714 23.0464ZM53.2521 23.7804C53.2521 24.1314 53.2576 24.142 53.4414 24.142C53.9924 24.142 54.075 23.4839 53.5294 23.4407L53.2521 23.4187V23.7804Z" fill="#333333"/>
</svg>
