<svg width="95" height="35" viewBox="0 0 95 35" fill="none" xmlns="http://www.w3.org/2000/svg">
<rect width="95" height="35" rx="15" fill="#ECE4C0"/>
<path fill-rule="evenodd" clip-rule="evenodd" d="M20.0183 15.1026C20.0469 18.2117 20.0483 18.2324 20.2811 18.7837C20.6161 19.5774 21.1465 20.3372 21.8908 21.09C22.5036 21.7097 23.6764 22.6478 24.1305 22.8815L24.3381 22.9884V19.983C24.3381 16.6106 24.3095 16.4233 23.6199 15.2761C23.2183 14.6082 21.7574 13.1281 20.906 12.5268C19.8898 11.8091 19.9855 11.5314 20.0183 15.1026ZM28.9491 12.476C27.3653 13.5884 26.0023 15.1999 25.6325 16.3973C25.4609 16.9528 25.4454 17.2505 25.4454 20.0015V23L25.7454 22.8103C27.5371 21.6766 29.0068 20.068 29.538 18.6591C29.722 18.1712 29.7369 17.9358 29.7644 15.0685C29.7816 13.2789 29.7591 12 29.7105 12C29.6646 12 29.322 12.2142 28.9491 12.476ZM70.8474 17.5415V20.9604L71.4241 20.933L72.0009 20.9055L72.0269 19.8212L72.0528 18.7368H72.4089C72.9436 18.7368 73.1199 18.9467 73.4553 19.9827L73.7542 20.9055L74.3771 20.9328C74.8392 20.953 75 20.9292 75 20.8407C75 20.775 74.851 20.2644 74.6687 19.706C74.4176 18.9362 74.2661 18.6222 74.0422 18.4073L73.747 18.124L73.9601 17.9633C74.1587 17.8135 74.9077 16.457 74.9077 16.2471C74.9077 16.1921 74.6453 16.1528 74.2775 16.1528H73.6474L73.4245 16.6286C73.0968 17.3284 72.7823 17.6294 72.3791 17.6294H72.047V15.876V14.1226H71.4472H70.8474V17.5415ZM55.0171 14.423C54.9927 14.4868 54.9837 15.9715 54.997 17.7222L55.0213 20.9055L56.8208 20.9049C58.5008 20.9042 58.6457 20.8906 59.0037 20.6998C59.4965 20.4371 59.7425 20.1183 59.9178 19.5155C60.1184 18.8253 59.8743 18.0371 59.3393 17.6473L59.0829 17.4605L59.3472 17.2526C59.834 16.8697 60.0109 16.0323 59.7413 15.387C59.5514 14.9325 59.0283 14.5252 58.4846 14.4086C57.7998 14.2617 55.0747 14.2731 55.0171 14.423ZM32.9202 16.9002C32.9202 19.7026 32.9326 19.7685 33.5718 20.346C34.5683 21.2462 36.7303 21.0979 37.4864 20.0773C37.8672 19.5633 37.9033 19.2781 37.9033 16.7851V14.3994H37.2573H36.6114L36.611 16.6835C36.6107 18.8116 36.598 18.9884 36.4244 19.273C35.9474 20.0554 34.6598 19.9855 34.2662 19.1558C34.1451 18.9007 34.1198 18.4627 34.1198 16.6234V14.3994H33.52H32.9202V16.9002ZM58.3978 15.7709C58.6267 16.0537 58.6222 16.4355 58.387 16.688C58.1393 16.9539 57.9301 16.9972 57.0512 16.9647L56.3132 16.9372L56.2854 16.3471C56.2436 15.461 56.2149 15.4846 57.2908 15.5212C58.1379 15.5501 58.2374 15.5725 58.3978 15.7709ZM40.948 16.2336C40.8207 16.2753 40.5788 16.3807 40.4103 16.4679C40.1122 16.622 40.1025 16.6212 40.0541 16.4357C40.0108 16.2703 39.9324 16.2451 39.4613 16.2451H38.9184V18.5522V20.8594H39.5182H40.118V19.2557V17.6521L40.5734 17.4562C41.135 17.2146 41.3285 17.2109 41.6073 17.4365C41.8191 17.6078 41.826 17.658 41.8542 19.2361L41.8833 20.8594H42.4855H43.0877L43.0547 19.0367C43.0248 17.3844 43.0031 17.1796 42.8233 16.845C42.7142 16.6419 42.5317 16.4193 42.4177 16.3504C42.1684 16.1993 41.27 16.1279 40.948 16.2336ZM45.1934 16.2558C44.732 16.3947 44.298 16.7527 44.0852 17.1696C43.9322 17.4695 43.9018 17.7115 43.903 18.6178C43.9049 19.9541 44.0503 20.2961 44.7756 20.6693C45.4312 21.0068 46.5196 21.0085 47.1723 20.6729C47.4211 20.545 47.6376 20.3997 47.6534 20.3499C47.6691 20.3002 47.5411 20.0934 47.3687 19.8904L47.0554 19.5212L46.7792 19.6827C46.3576 19.9293 45.5571 19.9025 45.3042 19.6332C45.1952 19.5171 45.0945 19.3199 45.0805 19.1948L45.055 18.9675L46.4714 18.942L47.8878 18.9165L47.8556 18.0968C47.8261 17.3446 47.8002 17.2479 47.5407 16.9226C47.3851 16.7277 47.1035 16.4914 46.9148 16.3976C46.5025 16.1927 45.6392 16.1215 45.1934 16.2558ZM61.8094 16.3051C61.5839 16.384 61.3033 16.5115 61.1857 16.5886L60.972 16.7287L61.1721 17.0637C61.474 17.5694 61.4883 17.5765 61.8544 17.4028C62.0556 17.3073 62.4193 17.2408 62.7528 17.2385C63.2254 17.2351 63.3395 17.267 63.4814 17.4421C63.5738 17.5564 63.6495 17.7444 63.6495 17.8598C63.6495 18.0625 63.6159 18.0712 62.703 18.1049C61.9619 18.1323 61.6865 18.1808 61.4344 18.328C60.9917 18.5866 60.6965 19.0521 60.6965 19.4917C60.6965 20.6959 61.7798 21.2669 63.0732 20.7445L63.6362 20.5171L63.6919 20.7388C63.7436 20.9452 63.7845 20.9587 64.2753 20.9331L64.803 20.9055L64.8283 19.3085C64.843 18.3816 64.8122 17.5583 64.7552 17.3463C64.6229 16.8548 64.1987 16.393 63.7586 16.2611C63.2594 16.1115 62.3007 16.1331 61.8094 16.3051ZM67.8016 16.239C67.6743 16.2778 67.4324 16.3807 67.2639 16.4679C66.9658 16.622 66.9561 16.6212 66.9077 16.4357C66.8644 16.2703 66.7859 16.2451 66.3148 16.2451H65.772V18.6028V20.9604L66.3487 20.933L66.9255 20.9055L66.9507 19.2779L66.9758 17.6503L67.4291 17.4552C67.9827 17.2171 68.1826 17.2113 68.4474 17.4257C68.6435 17.5845 68.6522 17.6573 68.6652 19.2483L68.6788 20.9055H69.2786H69.8784V19.0598C69.8784 17.3346 69.8652 17.1893 69.6754 16.8346C69.3602 16.2454 68.5877 15.9999 67.8016 16.239ZM48.5327 16.545C49.1638 17.3915 49.8997 18.4508 49.8997 18.5128C49.8997 18.5515 49.5468 19.0723 49.1154 19.6702C48.6839 20.268 48.331 20.7801 48.331 20.8082C48.331 20.8364 48.6342 20.8594 49.0048 20.8594H49.6786L50.0891 20.1699C50.3148 19.7906 50.5278 19.4791 50.5622 19.4778C50.5966 19.4763 50.8189 19.7865 51.0562 20.1672L51.4876 20.8594H52.1808H52.8739L52.7079 20.6059C52.6166 20.4665 52.2396 19.9412 51.8703 19.4385L51.1988 18.5246L51.3993 18.2386C51.5096 18.0811 51.8821 17.5683 52.2271 17.0987L52.8542 16.2451H52.1375H51.4208L51.0513 16.8607C50.8481 17.1993 50.6408 17.4896 50.5907 17.5058C50.5406 17.5221 50.3335 17.2454 50.1304 16.891L49.7613 16.2468L49.0352 16.2459L48.3091 16.2451L48.5327 16.545ZM46.4318 17.4555C46.6101 17.5958 46.6721 17.7194 46.6519 17.8939C46.6252 18.1251 46.5947 18.1383 46.0268 18.1649C45.1905 18.2041 45.0231 18.1502 45.0787 17.8594C45.1829 17.3142 45.9581 17.0829 46.4318 17.4555ZM58.3509 18.3045C58.55 18.4758 58.5993 18.5981 58.5993 18.9214C58.5993 19.2446 58.55 19.3669 58.3509 19.5382C58.1295 19.7287 58.0085 19.7519 57.2407 19.7519C56.5401 19.7519 56.3687 19.7246 56.3231 19.6059C56.2472 19.4083 56.2517 18.2292 56.3286 18.1524C56.3624 18.1185 56.7754 18.0908 57.2463 18.0908C58.0082 18.0908 58.1297 18.1143 58.3509 18.3045ZM63.6495 19.2734C63.6495 19.4799 63.5826 19.5651 63.3234 19.6887C62.945 19.8691 62.26 19.8942 62.0992 19.7335C62.0383 19.6726 61.9885 19.5355 61.9885 19.4289C61.9885 19.0939 62.1703 19.0137 62.9297 19.0137H63.6495V19.2734Z" fill="#333333"/>
</svg>
